<svg width="112" height="255" viewBox="0 0 112 255" xmlns="http://www.w3.org/2000/svg"><g fill-rule="nonzero" fill="none"><g transform="rotate(45 -236.028 134.121)"><path d="M10.942 5.564c2.844 3.358 3.62 7.686 3.83 10.043.078.885-.754 1.577-1.62 1.347-2.307-.613-6.474-2.122-9.318-5.48C.99 8.116.214 3.788.005 1.43-.073.546.76-.146 1.625.084c2.307.613 6.474 2.122 9.317 5.48z" fill="#22BC89"/><path d="M14.771 15.607c-.208-2.357-.985-6.685-3.829-10.043-.244-.289-.5-.563-.761-.825-2.985 1.462-5.06 4.469-5.162 7.966 2.724 2.508 6.13 3.717 8.132 4.249.867.23 1.699-.462 1.62-1.347z" fill="#000" opacity=".1"/><path d="M11.076 13.568a.702.702 0 0 1-.538-.248L3.164 4.612a.69.69 0 0 1 .086-.979.706.706 0 0 1 .988.086l7.375 8.707a.69.69 0 0 1-.087.98.702.702 0 0 1-.45.162z" fill="#000" opacity=".1"/><path d="M25.854 14.512v-.121c0-5.062-4.086-9.257-9.195-9.295-5.149-.037-9.335 4.087-9.335 9.18v.235c0 2.863-.964 5.627-2.67 7.938a14.484 14.484 0 0 0-2.84 8.867c.123 7.738 6.392 14.1 14.197 14.395 8.424.318 15.354-6.354 15.354-14.63 0-3.251-1.07-6.255-2.88-8.684a13.197 13.197 0 0 1-2.631-7.885z" fill="#EAD376"/><path d="M28.485 22.397a13.197 13.197 0 0 1-2.631-7.885v-.121c0-5.062-4.086-9.257-9.195-9.295-5.149-.037-9.335 4.087-9.335 9.18v.235c0 2.863-.964 5.627-2.67 7.938a14.484 14.484 0 0 0-2.84 8.867c.123 7.738 6.392 14.1 14.197 14.395 8.424.318 15.354-6.354 15.354-14.63 0-3.251-1.07-6.255-2.88-8.684zM25.187 39.6a12.136 12.136 0 0 1-8.597 3.528 12.132 12.132 0 0 1-8.685-3.636c-2.191-2.221-3.424-5.14-3.473-8.216a11.869 11.869 0 0 1 2.335-7.296c2.077-2.814 3.175-6.088 3.175-9.469v-.235c0-3.632 2.982-6.586 6.647-6.586h.05c3.638.027 6.597 3.033 6.597 6.7v.122c0 3.406 1.087 6.665 3.143 9.425a11.872 11.872 0 0 1 2.369 7.144c0 3.218-1.265 6.243-3.561 8.519z" fill="#22BC89"/><ellipse fill="#DDC460" cx="16.589" cy="31.082" rx="6.261" ry="6.204"/><g opacity=".3" transform="translate(37.959 12.228)" fill="#FFF"><ellipse cx="4.058" cy=".733" rx="1" ry="1"/><ellipse cx="4.478" cy="6.569" rx="1" ry="1"/><ellipse cx=".792" cy="3.234" rx="1" ry="1"/></g></g><g transform="translate(45)" fill="#2AB875" opacity=".1"><ellipse cx="11.121" cy="64.05" rx="10.547" ry="10.411"/><ellipse cx="48.855" cy="17.618" rx="17.682" ry="17.455"/><ellipse cx="25.446" cy="102.314" rx="17.682" ry="17.455"/></g></g></svg>