<svg width="773" height="539" viewBox="0 0 773 539" xmlns="http://www.w3.org/2000/svg"><defs><linearGradient x1="50.03%" y1="99.998%" x2="50.03%" y2="-.004%" id="a"><stop stop-color="gray" stop-opacity=".25" offset="0%"/><stop stop-color="gray" stop-opacity=".12" offset="54%"/><stop stop-color="gray" stop-opacity=".1" offset="100%"/></linearGradient></defs><g fill="none" fill-rule="evenodd"><path d="M449.116 85.242c-49.552-1.719-96.748-17.71-141.82-35.2-45.07-17.49-89.71-36.87-138.084-46.135-31.105-5.965-66.685-6.807-91.752 9.861-24.122 16.039-31.914 43.726-36.108 69.42-3.152 19.332-5.003 39.67 3.632 57.77 5.996 12.56 16.646 23.12 23.985 35.152 25.623 41.876 7.538 93.504-20.257 134.394-13.02 19.175-28.138 37.473-38.184 57.887C.482 388.805-4.151 412.2 4.682 433.058c8.717 20.64 29.468 36.144 51.993 47.053 45.667 22.113 99.524 28.454 152.037 32.043 116.252 7.943 233.127 4.506 349.687 1.061 43.131-1.28 86.462-2.568 128.895-9.238 23.567-3.698 47.894-9.587 65.006-23.756 21.716-18.004 27.103-48.492 12.547-71.07-24.41-37.87-91.903-47.252-108.96-87.916-9.395-22.366.254-47.286 13.904-68.03 29.276-44.512 78.349-83.546 80.932-134.42 1.782-34.926-21.812-69.934-58.29-86.465-38.239-17.326-91.252-15.148-119.465 13.539-29.05 29.536-80.096 40.897-123.852 39.383z" fill="#2AB875" fill-rule="nonzero" opacity=".1"/><path d="M159 179v302.442c0 2.8 1.114 5.486 3.098 7.466a10.589 10.589 0 0 0 7.48 3.092h434.844c5.842 0 10.578-4.727 10.578-10.558V179H159z" fill="#FFF" fill-rule="nonzero"/><rect fill="#000" fill-rule="nonzero" opacity=".1" x="195" y="206" width="109" height="64" rx="8.65"/><rect fill="#000" fill-rule="nonzero" opacity=".1" x="333" y="206" width="109" height="64" rx="8.65"/><rect fill="#2AB875" fill-rule="nonzero" x="196" y="206" width="106" height="62" rx="8.65"/><rect fill="#444053" fill-rule="nonzero" opacity=".1" transform="rotate(-180 525 237)" x="472" y="206" width="106" height="62" rx="8.65"/><rect fill="#2AB875" fill-rule="nonzero" transform="rotate(-180 387 237)" x="334" y="206" width="106" height="62" rx="8.65"/><rect fill="#444053" fill-rule="nonzero" opacity=".1" x="196" y="296" width="106" height="62" rx="8.65"/><rect fill="#444053" fill-rule="nonzero" opacity=".1" transform="rotate(-180 525 327)" x="472" y="296" width="106" height="62" rx="8.65"/><rect fill="#444053" fill-rule="nonzero" opacity=".1" transform="rotate(-180 387 327)" x="334" y="296" width="106" height="62" rx="8.65"/><rect fill="#444053" fill-rule="nonzero" opacity=".1" x="196" y="386" width="106" height="62" rx="8.65"/><rect fill="#444053" fill-rule="nonzero" opacity=".1" transform="rotate(-180 525 417)" x="472" y="386" width="106" height="62" rx="8.65"/><rect fill="#444053" fill-rule="nonzero" opacity=".1" transform="rotate(-180 387 417)" x="334" y="386" width="106" height="62" rx="8.65"/><path d="M159 125.482V180h456v-54.518a10.424 10.424 0 0 0-3.096-7.411 10.631 10.631 0 0 0-7.482-3.071H169.578a10.631 10.631 0 0 0-7.482 3.07 10.424 10.424 0 0 0-3.096 7.412zm112.85 16.128c-4.665 0-8.446-3.744-8.446-8.363 0-4.618 3.781-8.362 8.445-8.362s8.445 3.744 8.445 8.362c0 4.619-3.78 8.363-8.445 8.363zm230.3 0c-4.663 0-8.444-3.744-8.444-8.363 0-4.618 3.78-8.362 8.445-8.362 4.664 0 8.445 3.744 8.445 8.362 0 2.22-.892 4.35-2.479 5.918a8.487 8.487 0 0 1-5.98 2.445h.014z" fill="#2AB875" fill-rule="nonzero"/><path d="M272.007 124A10 10 0 1 0 282 134a9.993 9.993 0 0 0-9.993-10zm0 18.46a8.46 8.46 0 1 1 0-16.92 8.46 8.46 0 0 1 0 16.92zM502 124c-5.523 0-10 4.477-10 10s4.477 10 10 10 10-4.477 10-10-4.477-10-10-10zm0 18.46a8.46 8.46 0 1 1 0-16.92 8.46 8.46 0 0 1 0 16.92z" fill="#000" fill-rule="nonzero" opacity=".1"/><path d="M633.814 507.176a21.94 21.94 0 0 0-5.088-2.862 1.049 1.049 0 0 0-.446-.116 78.3 78.3 0 0 1-10.492-9.044c.686-.55 1.317-1.084 1.989-1.613-4.115-1.962-6.398-6.457-8.62-10.512a103.7 103.7 0 0 0-22.863-28.505c-.226-.872-1.55-.686-2.256-1.249a1.812 1.812 0 0 1-.5-1.75c.109-.631.397-1.214.555-1.832.377-1.448.048-2.971-.117-4.46-.164-1.49-.096-3.15.892-4.262.315-.363.72-.645 1.028-1.015a3.872 3.872 0 0 0 .686-3.081 10.944 10.944 0 0 0-.686-3.122c3.36-9.15 6.718-18.315 10.074-27.496 2.352-6.41 4.725-12.956 4.965-19.79.192-5.49-1.22-11.192-4.54-15.385a40.896 40.896 0 0 0 1.804-.467c-3.923-5.201-4.348-12.09-4.45-18.644a281.333 281.333 0 0 0-.337-9.805c1.138.5 2.29.947 3.47 1.33l1.097.337c1.782.522 3.6.912 5.438 1.167.81.116 1.632.205 2.448.26-1.18-2.955-2.356-5.915-3.531-8.88a12.138 12.138 0 0 1-1.097-4.164v-.275c0-.164 0-.33.034-.494.047-.393.136-.78.267-1.153.061-.184.132-.365.213-.542.244-.54.538-1.057.878-1.544.246-.377.52-.74.795-1.111a15.174 15.174 0 0 0 2.462-3.987c.241-.734.368-1.5.377-2.271a11.185 11.185 0 0 0-.206-2.334 18.737 18.737 0 0 0-.637-2.436l-.083-.247c-.075-.233-.15-.46-.233-.686l-.082-.233c-.09-.247-.178-.487-.274-.734l-.055-.144c-1.31-3.37-3.052-6.581-4.115-10.046-.28-.923-.508-1.86-.686-2.807-.048-.24-.082-.487-.123-.727-.041-.24-.062-.412-.09-.618-.027-.206-.06-.48-.088-.72l-.062-.687c0-.22-.034-.439-.048-.686 0-.418-.041-.837-.048-1.256v-.446-.953-.508c0-.316.048-.631.075-.94 0-.151 0-.302.048-.446.046-.458.108-.915.186-1.373.068-.405.144-.816.226-1.228.248-1.127.377-2.277.384-3.431 0-.22 0-.446-.048-.686-.048-.24-.055-.37-.09-.55a1.373 1.373 0 0 1 0-.164c0-.123-.061-.247-.088-.37-.028-.124-.035-.117-.055-.172-.02-.055-.076-.24-.117-.357-.041-.116-.034-.103-.055-.158a6.34 6.34 0 0 0-.15-.363l-.049-.124a10.109 10.109 0 0 0-1.138-1.866c-2.256-2.965-6.007-5.222-8.071-8.489a18.906 18.906 0 0 1-2.311-6.862c-.103-.549-.192-1.097-.288-1.64-.096-.542-.178-1.077-.274-1.612-.062-.33-.124-.686-.192-.988l-.042-.213c-.054-.26-.11-.528-.171-.79l-.041-.184c-.062-.275-.124-.55-.192-.824l-.041-.144a39.901 39.901 0 0 0-.22-.865.57.57 0 0 1 0-.102c-.082-.302-.171-.604-.26-.906v-.062a37.099 37.099 0 0 0-.624-1.887c-.124-.323-.24-.645-.37-.96a25.394 25.394 0 0 0-3.47-6.177c-3.141-4.034-7.996-6.93-13.03-6.738-2.702.103-5.294 1.05-7.838 1.99l-6.604 2.436 1.845-.85c-1.92.17-3.881.35-5.616 1.2-1.735.85-3.203 2.518-3.258 4.467-.034 1.132.412 2.258.268 3.383-.24 1.86-1.948 3.122-2.832 4.77a6.138 6.138 0 0 0-.686 3.224v.439a.604.604 0 0 0 0 .11v.22a218.819 218.819 0 0 1-8.23-3.767c-4.532-2.23-9.12-4.852-11.945-9.079-.905-1.372-1.605-2.854-2.503-4.213a33.344 33.344 0 0 0-3.429-4.117L511.723 234c-.645 1.215.185 2.649.837 3.856a16.564 16.564 0 0 1 1.556 4.022c.166.457.152.96-.04 1.406-.307.368-.704.65-1.153.817a4.118 4.118 0 0 0-1.735 4.714 5.213 5.213 0 0 0 3.888 3.39c.594.068 1.177.21 1.735.425 1.015.501 1.495 1.668 2.222 2.54 1.324 1.591 3.429 2.188 5.438 2.71 3.114 3.595 6.35 7.04 9.464 10.636 4.71 5.441 9.531 10.979 15.676 14.657.638.384 1.289.741 1.947 1.07 0 .11 0 .22-.034.33a3.721 3.721 0 0 0 .295 2.402c.549.871 1.68 1.132 2.688 1.31l4.65.83a15.902 15.902 0 0 1-.227 1.798c-.062.364-.137.72-.206 1.085l-.082.466v.069c0 .02 0 .247-.048.377s0 .09 0 .13v.913c.158 1.826 1.372 3.335 2.585 4.728l.652.79a10.982 10.982 0 0 0-2.12 4.446 15.106 15.106 0 0 0-.3 3.095 5.373 5.373 0 0 0-1.372 2.14 9.791 9.791 0 0 0-.357 3.466v1.372c-.08 1.64.192 3.277.796 4.804.061.123.13.233.192.35-1.029 2.017-2.743 3.588-3.97 5.49a11.919 11.919 0 0 0 1.09 13.64c.939 1.085 2.146 2.128 2.256 3.57-.017.652-.081 1.304-.192 1.948-.11 1.55.603 3.02.987 4.522.322 1.249.336 2.745-.377 3.747a5.492 5.492 0 0 0-.94 3.595c.35 1.942-.452 3.884-.59 5.854-.061.844 0 1.701-.075 2.545a14.357 14.357 0 0 1-.5 2.388c0 .083-.042.172-.069.261-1.694.748-3.374 1.523-4.992 2.422a4.383 4.383 0 0 0-2.057 1.894 4.861 4.861 0 0 0-.11 2.608l1.46 10.17-.253-.11c.114 1.665.233 3.337.356 5.016.09 1.27.206 2.614.96 3.63.384.41.73.853 1.036 1.324.576 1.167-.11 2.525-.617 3.72-.508 1.193-.686 2.888.432 3.533a9.112 9.112 0 0 0 1.872 1.002c-1.372 5.723-.11 11.72 1.166 17.464.973 4.391 1.95 8.778 2.928 13.161.382 1.862.598 3.754.644 5.654v.824c.138 2.613.599 5.2 1.372 7.699 1.522 5.133.062 11.295.542 16.887.319 2.69.855 5.35 1.604 7.953 3.312 13.148 6.268 26.035 7.406 39.553a9.93 9.93 0 0 0 4.746 3.314c-.137 1.66.048 3.562 0 4.53a7.827 7.827 0 0 1-.37 2.36c-.583 1.523-2.058 2.518-3.587 3.053-.48.165-.967.295-1.46.412l.548-.467a12.24 12.24 0 0 0-9.127 1.606 3.616 3.616 0 0 0-1.804 2.127 3.433 3.433 0 0 0 .63 2.464 11.226 11.226 0 0 0 6.344 4.508 33.252 33.252 0 0 0 7.818 1.091l4.841.281a1.332 1.332 0 0 0 .316 1.723c.518.379 1.134.603 1.776.645 1.978.294 3.986.324 5.973.089a2.337 2.337 0 0 0 1.371-.494.885.885 0 0 0 0-1.31 1.447 1.447 0 0 0 1.317-.961 3.9 3.9 0 0 0 .178-1.736c-.13-2.258-.33-5.538-1.502-7.549a1.913 1.913 0 0 0-2.119-.933 82.396 82.396 0 0 1-1.371-12.173 29.704 29.704 0 0 0 3.524-1.592c-3.367-5.442-3.428-12.352-2.4-18.678.408-1.998.708-4.016.899-6.046.226-4.048-.384-8.632-2.627-11.98a42.849 42.849 0 0 1 10.698 9.688c4.738 6.176 7.625 13.656 13.434 18.802.763-.746 1.536-1.487 2.318-2.223a110.881 110.881 0 0 1 3.476 6.36 24.205 24.205 0 0 1 2.016 5.017c.535 2.665.598 5.404.186 8.09a88.35 88.35 0 0 1-.583 4.262 11.603 11.603 0 0 1-.419 1.784 1.236 1.236 0 0 0-.13-.535c-.363-.639-1.371-.35-1.92.089a8.48 8.48 0 0 0-2.366 2.745 2.959 2.959 0 0 0-.425 1.75c.18.747.682 1.375 1.372 1.715 2.544 1.489 5.74.412 8.469-.686a9.934 9.934 0 0 0 2.14-1.078c1.37-.988 2.118-2.614 3.483-3.575a20.18 20.18 0 0 0 2.105-1.331c1.269-1.16 1.371-3.115 2.297-4.584 1.536-2.532 4.972-3.184 6.316-5.867 1.557-2.964-.26-6.704-2.606-8.64z" fill="url(#a)" fill-rule="nonzero"/><path d="M575.342 519.674a7.66 7.66 0 0 1-.382 2.35c-.585 1.514-2.089 2.503-3.635 3.035-1.545.533-3.188.692-4.761 1.155a4.187 4.187 0 0 0-1.86.954c-1.392 1.383-.556 3.871 1.073 4.901 1.629 1.03 3.704.996 5.639.865a74.762 74.762 0 0 0 12.197-1.722c1.448-.339 3.14-1.002 3.37-2.461a4.01 4.01 0 0 0-.112-1.383 81.176 81.176 0 0 1-1.566-15.023c0-.331-8.076-.546-8.828-.062-1.685 1.1-1.044 5.69-1.135 7.39zM611.51 501.985a106.683 106.683 0 0 1 3.68 6.657 23.648 23.648 0 0 1 2 4.933c.527 2.62.589 5.314.183 7.957a82.47 82.47 0 0 1-.585 4.194c-.224 1.368-.585 2.92-1.748 3.708 1.05.626 2.326.74 3.47.308a9.982 9.982 0 0 0 3.053-1.882c5.83-4.837 10.203-11.863 10.42-19.464a3.101 3.101 0 0 0-.32-1.724 3.408 3.408 0 0 0-1.02-.917 78.503 78.503 0 0 1-12.06-10.187 1.475 1.475 0 0 0-.883-.568c-.279.002-.552.08-.79.226-2.237 1.129-5.978 2.736-6.91 5.302.637.323 1.163.83 1.51 1.457z" fill="#A1616A" fill-rule="nonzero"/><path d="M583.326 526.804c-4.845 1.96-10.094 2.665-15.337 3.338-.673.079-1.393.13-1.837-.326a1.327 1.327 0 0 1-.12-1.53 4.03 4.03 0 0 1 1.123-1.201l3.48-2.829a12.423 12.423 0 0 0-8.843 1.477 3.45 3.45 0 0 0-1.764 1.96c-.112.821.11 1.653.62 2.319a10.999 10.999 0 0 0 6.218 4.233c2.505.63 5.077.974 7.665 1.025l4.71.262c-.336.539-.2 1.237.316 1.62a3.428 3.428 0 0 0 1.75.62c1.94.275 3.908.301 5.855.079.489-.008.961-.17 1.346-.464a.813.813 0 0 0 .283-.614.813.813 0 0 0-.283-.614 1.417 1.417 0 0 0 1.292-.908c.18-.523.24-1.079.175-1.627-.128-2.116-.323-5.226-1.474-7.075-1.15-1.849-3.546-.398-5.175.255zM634.76 506.932a22.423 22.423 0 0 0-5.148-2.808.618.618 0 0 0-.93.233 51.734 51.734 0 0 0-7.583 14.395c-.993 2.938-1.777 6.067-3.789 8.445-.263.314-.694.635-1.054.45-.52-.26-.202-1.086-.493-1.585-.36-.628-1.346-.341-1.936.09a8.235 8.235 0 0 0-2.386 2.732 2.7 2.7 0 0 0-.43 1.715c.175.73.67 1.346 1.352 1.68 2.574 1.47 5.808.41 8.562-.683a9.858 9.858 0 0 0 2.158-1.058c1.387-.964 2.144-2.57 3.524-3.505a20.36 20.36 0 0 0 2.13-1.312c1.277-1.141 1.388-3.061 2.318-4.51 1.554-2.48 5.03-3.122 6.39-5.759 1.52-2.945-.312-6.62-2.685-8.52zM595.895 370.501c5.36 4.04 7.61 11.224 7.372 17.949-.24 6.724-2.592 13.175-4.924 19.482-3.34 9.026-6.678 18.049-10.01 27.07.372.99.601 2.027.682 3.081a3.8 3.8 0 0 1-.682 3.027c-.313.363-.682.644-1.023 1-.982 1.096-1.043 2.74-.886 4.198.157 1.458.49 2.965.116 4.39-.157.609-.443 1.184-.552 1.8a1.792 1.792 0 0 0 .497 1.726c.682.548 2.046.37 2.244 1.233a102.265 102.265 0 0 1 22.707 28.076c2.209 3.993 4.439 8.416 8.564 10.347a149.723 149.723 0 0 0-11.544 10.197c-5.762-5.067-8.633-12.443-13.338-18.49a42.338 42.338 0 0 0-10.624-9.539c2.23 3.294 2.837 7.814 2.612 11.793a54.94 54.94 0 0 1-.893 5.95c-1.057 6.232-.962 13.012 2.386 18.394-3.573 1.863-7.678 3.246-11.667 2.691a9.919 9.919 0 0 1-6.355-3.643c-1.132-13.312-4.091-26.022-7.358-38.944a48.053 48.053 0 0 1-1.588-7.882c-.478-5.478.975-11.573-.546-16.627a31.12 31.12 0 0 1-1.364-7.574v-.815a31.161 31.161 0 0 0-.64-5.56l-2.905-12.956c-1.269-5.664-2.537-11.567-1.167-17.202a9.09 9.09 0 0 1-1.854-.98c-1.112-.637-.934-2.3-.43-3.478.505-1.178 1.18-2.514.614-3.664a8.938 8.938 0 0 0-1.03-1.308c-.75-1-.866-2.322-.954-3.568l-.355-4.944a9.648 9.648 0 0 1 4.855 4.266c-2.687-4.177-1.364-10.135.62-14.696a6.675 6.675 0 0 1 6.26-4.978c10.93-1.876 24.282-6.526 33.16.178z" fill="#3F3D56" fill-rule="nonzero"/><path d="M591 399s-5.272 3.57-5.272 6.244-1.338 26.742-1.338 26.742v16.967s.876 8.919 0 11.145c-.877 2.226 0 12.481 0 13.818 0 1.338 1.338-13.818 1.338-13.818v-16.072l1.338-36.556L591 399z" fill="#000" fill-rule="nonzero" opacity=".1"/><path d="M560 275.052l-3.132-1.244c-6.402-2.613-12.81-5.233-19.006-8.297-4.504-2.23-9.07-4.865-11.874-9.069-.901-1.39-1.597-2.849-2.491-4.218a33.505 33.505 0 0 0-3.412-4.12L511.718 239c-.641 1.216.178 2.648.833 3.85a16.86 16.86 0 0 1 1.549 4.023c.16.452.144.95-.048 1.39a2.656 2.656 0 0 1-1.14.82c-1.567.979-2.28 2.919-1.726 4.705a5.181 5.181 0 0 0 3.862 3.39c.59.07 1.17.213 1.727.425 1.01.507 1.488 1.667 2.211 2.536 1.317 1.591 3.412 2.196 5.405 2.71 3.098 3.593 6.312 7.033 9.41 10.625 4.682 5.435 9.473 10.966 15.587 14.65a22.594 22.594 0 0 0 7.036 2.876A117.911 117.911 0 0 1 560 275.052z" fill="#A1616A" fill-rule="nonzero"/><path d="M560 275.052l-3.132-1.244c-6.402-2.613-12.81-5.233-19.006-8.297-4.504-2.23-9.07-4.865-11.874-9.069-.901-1.39-1.597-2.849-2.491-4.218a33.505 33.505 0 0 0-3.412-4.12L511.718 239c-.641 1.216.178 2.648.833 3.85a16.86 16.86 0 0 1 1.549 4.023c.16.452.144.95-.048 1.39a2.656 2.656 0 0 1-1.14.82c-1.567.979-2.28 2.919-1.726 4.705a5.181 5.181 0 0 0 3.862 3.39c.59.07 1.17.213 1.727.425 1.01.507 1.488 1.667 2.211 2.536 1.317 1.591 3.412 2.196 5.405 2.71 3.098 3.593 6.312 7.033 9.41 10.625 4.682 5.435 9.473 10.966 15.587 14.65a22.594 22.594 0 0 0 7.036 2.876A117.911 117.911 0 0 1 560 275.052z" fill="#000" fill-rule="nonzero" opacity=".15"/><path d="M555.09 291.928c-1.017-.18-2.158-.428-2.711-1.298a3.63 3.63 0 0 1-.297-2.38c.55-5.201 1.71-10.32 3.457-15.25 1.542 2.85 4.577 4.513 7.454 6.01a55.372 55.372 0 0 0 8.007 3.644c-.691-.221-2.386 10.392-3.34 11.04-1.203.842-4.107-.297-5.442-.524l-7.128-1.242z" fill="#2AB875" fill-rule="nonzero"/><circle fill="#A1616A" fill-rule="nonzero" cx="562.5" cy="274.5" r="14.5"/><path d="M560 286.983s9.485 8.116 5.42 13.526c-4.065 5.41-6.328 9.022-.908 9.475 5.42.453 23.488-9.022 23.488-9.022s-16.713-13.526-14.003-21.641c2.71-8.116-13.997 7.662-13.997 7.662z" fill="#FBBEBE" fill-rule="nonzero"/><path d="M568.939 299.105a11.157 11.157 0 0 0-8.264 8.297c-1.061 4.84 1.191 10.253-.931 14.71-1 2.118-2.855 3.704-4.108 5.693a11.604 11.604 0 0 0 1.082 13.403c.938 1.066 2.143 2.098 2.252 3.506-.016.642-.08 1.282-.191 1.914-.11 1.524.602 2.973.986 4.45.321 1.223.335 2.693-.377 3.677a5.318 5.318 0 0 0-.931 3.534c.342 1.913-.459 3.82-.596 5.755-.061.833 0 1.667-.075 2.501-.1.794-.265 1.578-.493 2.345l-1.205 4.435c6.531 2.79 13.474 3.794 20.54 3.664 6.325-.123 12.562-1.429 18.751-2.734 1.883-.396 3.766-.793 5.621-1.305-3.916-5.113-4.334-11.886-4.443-18.318a272.992 272.992 0 0 0-2.403-32.056c1.896-3.575 2.738-7.56 3.519-11.53.35-1.6.497-3.237.438-4.874-.192-3.417-1.767-6.664-3.307-9.76-1.41-2.83-2.937-5.81-6.08-7.033a4.84 4.84 0 0 0-4.676.512c-2.375 1.791-1.67 4.88-2.28 7.519-.8 3.417-3.957 5.871-7.318 6.835a23.83 23.83 0 0 1-7.695.717 1.365 1.365 0 1 1-.972-2.242c1.102-1.216 2.21-2.453 3.156-3.615z" fill="#2AB875" fill-rule="nonzero"/><path d="M578.797 355c-5.27 4.38-10.602 8.803-16.686 11.903-3.57 1.818-7.364 3.161-10.84 5.117a4.356 4.356 0 0 0-2.032 1.874 4.703 4.703 0 0 0-.108 2.583l1.545 10.828c.426 2.934 3.197 4.821 5.42 6.695-.123-.985-.32-1.75.141-2.624.16-.274.334-.538.522-.792.949-1.46.982-3.355.752-5.09-.23-1.736-.677-3.445-.59-5.222a1.719 1.719 0 0 1 .719-1.515c7.567-3.7 15.717-6.537 23.365-10.05a24.656 24.656 0 0 0 5.67-3.272 8.898 8.898 0 0 0 3.293-5.558c.071-.29.022-.596-.135-.848a1.128 1.128 0 0 0-.576-.344c-3.428-1.267-7.046-2.431-10.46-3.685z" fill="#A1616A" fill-rule="nonzero"/><path d="M564.747 310.037c-2.66.45-5.458 1.832-6.361 4.39a9.785 9.785 0 0 0-.358 3.457 11.274 11.274 0 0 0 .806 4.791c.453.838.994 1.626 1.613 2.35 6.367 8.187 9.565 18.467 15.768 26.784.55.733 1.557 1.687 1.247 2.552a6.192 6.192 0 0 0-.296.691c-.058.454.113.907.454 1.21.331.304.588.68.752 1.1.117.435-.173 1.002-.62.967.744 2.31 3.025 3.658 5.189 4.75 3.597 1.818 7.58 3.25 11.584 2.855.752-3.021 1.8-6.436 1.379-9.513a24.75 24.75 0 0 0-2.309-6.748l-2.695-5.904c-2.294-5.04-4.61-10.115-7.808-14.63a22.136 22.136 0 0 1-2.887-4.666c-.82-2.137-3.074-3.637-4.438-5.47-2.027-2.765-4.135-5.53-6.85-7.528-1.09-.844-2.84-1.66-4.17-1.438z" fill="#000" fill-rule="nonzero" opacity=".1"/><path d="M564.746 308.037c-2.66.45-5.458 1.832-6.36 4.384a9.843 9.843 0 0 0-.359 3.457 11.277 11.277 0 0 0 .806 4.792c.454.838.994 1.626 1.613 2.35 6.368 8.188 9.566 18.47 15.768 26.788.552.733 1.558 1.687 1.248 2.551a6.193 6.193 0 0 0-.297.692c-.057.454.113.907.455 1.21.33.304.588.68.751 1.1.117.435-.172 1.002-.62.967.744 2.31 3.025 3.658 5.19 4.75 3.597 1.82 7.58 3.25 11.584 2.856.752-3.021 1.8-6.437 1.379-9.514a24.754 24.754 0 0 0-2.309-6.749l-2.695-5.905c-2.295-5.04-4.61-10.116-7.808-14.631a22.028 22.028 0 0 1-2.888-4.674c-.82-2.13-3.073-3.63-4.438-5.463-2.026-2.766-4.135-5.532-6.85-7.53-1.089-.837-2.84-1.653-4.17-1.431z" fill="#2AB875" fill-rule="nonzero"/><path d="M559.117 250.565c-1.912.165-3.879.343-5.606 1.18-1.727.837-3.2 2.484-3.255 4.405 0 1.118.41 2.23.267 3.335-.24 1.838-1.947 3.08-2.824 4.706-1.535 2.827-.342 6.422 1.645 8.92 1.988 2.497 4.681 4.418 6.723 6.902a17.853 17.853 0 0 1 3.715 14.354 11.401 11.401 0 0 0-.363 2.998c.158 1.797 1.37 3.286 2.577 4.659a215.2 215.2 0 0 1 16.257 21.653 58.52 58.52 0 0 1 4.002 6.861c1.165 2.457 2.056 5.078 3.674 7.253a19.134 19.134 0 0 0 5.393 4.63A38.063 38.063 0 0 0 608.593 348l-3.53-8.762c-.623-1.557-1.267-3.197-1.061-4.864.39-3.156 3.57-5.228 4.605-8.234.685-1.934.377-4.068-.185-6.037-1.247-4.44-3.742-8.433-5.085-12.844a26.1 26.1 0 0 1-.768-11.946c.295-1.756.775-3.52.555-5.283-.65-5.365-6.936-7.931-9.842-12.48-1.877-2.923-2.24-6.525-2.871-9.942-.912-4.988-2.536-9.97-5.675-13.949-3.139-3.979-7.978-6.86-13.022-6.648-2.7.103-5.284 1.043-7.827 1.962l-6.606 2.409" fill="#3F3D56" fill-rule="nonzero"/><g opacity=".1" fill="#000" fill-rule="nonzero"><path d="M588.114 262.403c.568 3.074.925 6.298 2.363 9.044-.199-1.068-.363-2.143-.562-3.197a39.864 39.864 0 0 0-2.205-7.846c.171.664.288 1.328.404 1.999zM600.262 290.048a26.14 26.14 0 0 0 .767 11.926 30.81 30.81 0 0 0 1.123 3.08c-.57-3.024-.6-6.125-.089-9.16.295-1.752.774-3.512.555-5.271a8.214 8.214 0 0 0-1.78-4.108c-.103 1.191-.377 2.362-.576 3.533zM607.911 320.63a33.041 33.041 0 0 0-1.37-3.78 8.398 8.398 0 0 1-.26 3.958c-1.034 2.991-4.218 5.066-4.601 8.215-.206 1.664.431 3.3 1.061 4.854.233.582.466 1.17.685 1.752a5.64 5.64 0 0 1 0-.76c.39-3.149 3.568-5.216 4.602-8.215.74-1.93.445-4.06-.117-6.024zM589.032 337.053a19.173 19.173 0 0 1-5.39-4.628c-1.622-2.17-2.513-4.792-3.677-7.236a57.73 57.73 0 0 0-3.999-6.846 215.028 215.028 0 0 0-16.236-21.613c-.212-.24-.418-.486-.623-.733a7.036 7.036 0 0 0-.158 1.93c.158 1.794 1.37 3.28 2.575 4.65a214.755 214.755 0 0 1 16.243 21.606 58.374 58.374 0 0 1 4 6.846c1.163 2.45 2.054 5.066 3.67 7.236a19.111 19.111 0 0 0 5.389 4.621 38.067 38.067 0 0 0 17.256 5.566l-2.396-5.887a38.108 38.108 0 0 1-16.654-5.512zM553.8 274.788c-2.055-2.479-4.732-4.361-6.718-6.88-.178-.233-.35-.473-.52-.726a9.966 9.966 0 0 0 2.32 6.565c1.987 2.526 4.678 4.409 6.719 6.887.796.963 1.485 2.01 2.054 3.122a17.798 17.798 0 0 0-3.855-8.968z"/></g><path d="M286.224 203.767l-4.936-4.987a2.615 2.615 0 0 0-3.725 0l-30.998 30.86-13.112-13.271a2.606 2.606 0 0 0-3.697 0l-4.99 4.96a2.67 2.67 0 0 0 0 3.742l19.913 20.16a2.633 2.633 0 0 0 3.718 0l37.827-37.722a2.64 2.64 0 0 0 0-3.742zM424.224 203.767l-4.936-4.987a2.615 2.615 0 0 0-3.725 0l-30.998 30.86-13.112-13.271a2.606 2.606 0 0 0-3.697 0l-4.99 4.96a2.67 2.67 0 0 0 0 3.742l19.913 20.16a2.633 2.633 0 0 0 3.718 0l37.827-37.722a2.64 2.64 0 0 0 0-3.742z" fill="#3ACC6C" fill-rule="nonzero"/><ellipse fill="#CBF2E1" cx="674.5" cy="476.5" rx="27.5" ry="4.5"/><g transform="rotate(45 -179.213 1032.655)" fill-rule="nonzero"><path d="M10.942 5.564c2.844 3.358 3.62 7.686 3.83 10.043.078.885-.754 1.577-1.62 1.347-2.307-.613-6.474-2.122-9.318-5.48C.99 8.116.214 3.788.005 1.43-.073.546.76-.146 1.625.084c2.307.613 6.474 2.122 9.317 5.48z" fill="#22BC89"/><path d="M14.771 15.607c-.208-2.357-.985-6.685-3.829-10.043-.244-.289-.5-.563-.761-.825-2.985 1.462-5.06 4.469-5.162 7.966 2.724 2.508 6.13 3.717 8.132 4.249.867.23 1.699-.462 1.62-1.347z" fill="#000" opacity=".1"/><path d="M11.076 13.568a.702.702 0 0 1-.538-.248L3.164 4.612a.69.69 0 0 1 .086-.979.706.706 0 0 1 .988.086l7.375 8.707a.69.69 0 0 1-.087.98.702.702 0 0 1-.45.162z" fill="#000" opacity=".1"/><path d="M25.854 14.512v-.121c0-5.062-4.086-9.257-9.195-9.295-5.149-.037-9.335 4.087-9.335 9.18v.235c0 2.863-.964 5.627-2.67 7.938a14.484 14.484 0 0 0-2.84 8.867c.123 7.738 6.392 14.1 14.197 14.395 8.424.318 15.354-6.354 15.354-14.63 0-3.251-1.07-6.255-2.88-8.684a13.197 13.197 0 0 1-2.631-7.885z" fill="#EAD376"/><path d="M28.485 22.397a13.197 13.197 0 0 1-2.631-7.885v-.121c0-5.062-4.086-9.257-9.195-9.295-5.149-.037-9.335 4.087-9.335 9.18v.235c0 2.863-.964 5.627-2.67 7.938a14.484 14.484 0 0 0-2.84 8.867c.123 7.738 6.392 14.1 14.197 14.395 8.424.318 15.354-6.354 15.354-14.63 0-3.251-1.07-6.255-2.88-8.684zM25.187 39.6a12.136 12.136 0 0 1-8.597 3.528 12.132 12.132 0 0 1-8.685-3.636c-2.191-2.221-3.424-5.14-3.473-8.216a11.869 11.869 0 0 1 2.335-7.296c2.077-2.814 3.175-6.088 3.175-9.469v-.235c0-3.632 2.982-6.586 6.647-6.586h.05c3.638.027 6.597 3.033 6.597 6.7v.122c0 3.406 1.087 6.665 3.143 9.425a11.872 11.872 0 0 1 2.369 7.144c0 3.218-1.265 6.243-3.561 8.519z" fill="#22BC89"/><ellipse fill="#DDC460" cx="16.589" cy="31.082" rx="6.261" ry="6.204"/><g opacity=".3" transform="translate(37.959 12.228)" fill="#FFF"><ellipse cx="4.058" cy=".733" rx="1" ry="1"/><ellipse cx="4.478" cy="6.569" rx="1" ry="1"/><ellipse cx=".792" cy="3.234" rx="1" ry="1"/></g></g><g transform="translate(697 223)" fill="#2AB875" fill-rule="nonzero" opacity=".1"><ellipse cx="11.121" cy="64.05" rx="10.547" ry="10.411"/><ellipse cx="48.855" cy="17.618" rx="17.682" ry="17.455"/><ellipse cx="25.446" cy="102.314" rx="17.682" ry="17.455"/></g><circle cx="24.829" cy="25.041" r="24.829" transform="translate(0 212)" fill="#2AB875" fill-rule="nonzero" opacity=".1"/></g></svg>