
<svg width="840px" height="727px" viewBox="0 0 840 727" version="1.1" xmlns="http://www.w3.org/2000/svg" xmlns:xlink="http://www.w3.org/1999/xlink">
    <!-- Generator: Sketch 50.2 (55047) - http://www.bohemiancoding.com/sketch -->
    <desc>Created with Sketch.</desc>
    <defs>
        <linearGradient x1="50%" y1="100.004407%" x2="50%" y2="-3.13124773e-15%" id="linearGradient-1">
            <stop stop-color="#808080" stop-opacity="0.25" offset="0%"></stop>
            <stop stop-color="#808080" stop-opacity="0.12" offset="54%"></stop>
            <stop stop-color="#808080" stop-opacity="0.1" offset="100%"></stop>
        </linearGradient>
        <linearGradient x1="50%" y1="100%" x2="50%" y2="-9.17895279e-15%" id="linearGradient-2">
            <stop stop-color="#808080" stop-opacity="0.25" offset="0%"></stop>
            <stop stop-color="#808080" stop-opacity="0.12" offset="54%"></stop>
            <stop stop-color="#808080" stop-opacity="0.1" offset="100%"></stop>
        </linearGradient>
    </defs>
    <g id="mix" stroke="none" stroke-width="1" fill="none" fill-rule="evenodd">
        <g id="undraw_Taken_if77" fill-rule="nonzero">
            <g id="Group" opacity="0.8" transform="translate(285.000000, 18.000000)" fill="url(#linearGradient-1)">
                <ellipse id="Oval" cx="147" cy="114.31" rx="146.46" ry="113.46"></ellipse>
            </g>
            <ellipse id="Oval" fill="#40CB89" cx="432" cy="132.31" rx="143.21" ry="110.94"></ellipse>
            <path d="M311.94,144.64 C311.94,83.37 376.05,33.7 455.14,33.7 C479.695104,33.5648463 504.005408,38.5829346 526.5,48.43 C501.33,31.43 468.4,21.1 432.36,21.1 C353.27,21.1 289.15,70.77 289.15,132.04 C289.15,173.18 318.06,209.09 361.01,228.25 C330.94,207.91 311.94,178 311.94,144.64 Z" id="Shape" fill="#FFFFFF" opacity="0.1"></path>
            <polygon id="Shape" fill="#40CB89" opacity="0.2" points="432 176.9 590.76 451.88 749.52 726.85 432 726.85 114.48 726.85 273.24 451.88"></polygon>
            <circle id="Oval" fill="#FFFFFF" cx="552.53" cy="487.52" r="9.76"></circle>
            <circle id="Oval" fill="#FFFFFF" cx="583.45" cy="472.17" r="4.88"></circle>
            <g id="Group" opacity="0.5" transform="translate(448.000000, 99.000000)" fill="#000000">
                <circle id="Oval" opacity="0.2" cx="7.37" cy="6.53" r="6.51"></circle>
            </g>
            <path d="M569.52,99.43 C571.379073,106.615368 572.316597,114.008032 572.31,121.43 C572.31,182.7 508.2,232.37 429.11,232.37 C364.38,232.33 309.69,199.07 292,153.43 C305.14,204.2 363,242.43 432.41,242.43 C511.5,242.43 575.62,192.76 575.62,131.49 C575.599624,120.516832 573.530852,109.643907 569.52,99.43 Z" id="Shape" fill="#000000" opacity="0.1"></path>
            <g id="Group" opacity="0.8" transform="translate(135.000000, 103.000000)" fill="url(#linearGradient-2)">
                <ellipse id="Oval" cx="297" cy="77.68" rx="296.18" ry="77.41"></ellipse>
            </g>
            <path d="M432,105.83 C273.82,105.83 145.58,139.34 145.58,180.69 L718.42,180.69 C718.42,139.34 590.18,105.83 432,105.83 Z" id="Shape" fill="#FFFFFF"></path>
            <path d="M432,255.54 C590.18,255.54 718.42,222.03 718.42,180.69 L145.58,180.69 C145.58,222.03 273.82,255.54 432,255.54 Z" id="Shape" fill="#FFFFFF"></path>
            <path d="M432,255.54 C590.18,255.54 718.42,222.03 718.42,180.69 L145.58,180.69 C145.58,222.03 273.82,255.54 432,255.54 Z" id="Shape" fill="#000000" opacity="0.05"></path>
            <rect id="Rectangle-path" fill="#000000" opacity="0.05" x="295.3" y="161.15" width="273.4" height="39.06" rx="17.22"></rect>
            <path d="M133.89,57.81 C132.179878,57.0637212 131.298916,55.1556868 131.84,53.37 C131.881978,53.2367709 131.908813,53.0992371 131.92,52.96 C131.972417,52.1472697 131.484319,51.3967697 130.720154,51.1151137 C129.95599,50.8334578 129.097578,51.0876616 128.61,51.74 C128.529928,51.8520466 128.462832,51.9728196 128.41,52.1 C127.667185,53.8135093 125.756019,54.6959171 123.97,54.15 C123.836501,54.1090948 123.699085,54.0822819 123.56,54.07 C122.74727,54.0175833 121.99677,54.5056806 121.715114,55.2698455 C121.433458,56.0340104 121.687662,56.8924216 122.34,57.38 C122.450458,57.4652084 122.571459,57.5357924 122.7,57.59 C124.410122,58.3362788 125.291084,60.2443132 124.75,62.03 C124.708981,62.1600567 124.682158,62.294171 124.67,62.43 C124.612558,63.2446651 125.098978,63.999707 125.864518,64.2841828 C126.630059,64.5686586 127.491504,64.3144851 127.98,63.66 C128.062177,63.5457033 128.12939,63.42136 128.18,63.29 C128.940865,61.5960422 130.847151,60.7373549 132.62,61.29 C132.753499,61.3309052 132.890915,61.3577181 133.03,61.37 C133.84273,61.4224167 134.59323,60.9343194 134.874886,60.1701545 C135.156542,59.4059896 134.902338,58.5475784 134.25,58.06 C134.141879,57.9607434 134.020771,57.8766406 133.89,57.81 Z" id="Shape" fill="#4D8AF0" opacity="0.5"></path>
            <path d="M642.89,363.81 C641.199421,363.045757 640.342123,361.142557 640.89,359.37 C640.931978,359.236771 640.958813,359.099237 640.97,358.96 C641.022417,358.14727 640.534319,357.39677 639.770154,357.115114 C639.00599,356.833458 638.147578,357.087662 637.66,357.74 C637.579928,357.852047 637.512832,357.97282 637.46,358.1 C636.717185,359.813509 634.806019,360.695917 633.02,360.15 C632.886501,360.109095 632.749085,360.082282 632.61,360.07 C631.79727,360.017583 631.04677,360.505681 630.765114,361.269846 C630.483458,362.03401 630.737662,362.892422 631.39,363.38 C631.500458,363.465208 631.621459,363.535792 631.75,363.59 C633.440579,364.354243 634.297877,366.257443 633.75,368.03 C633.708981,368.160057 633.682158,368.294171 633.67,368.43 C633.612558,369.244665 634.098978,369.999707 634.864518,370.284183 C635.630059,370.568659 636.491504,370.314485 636.98,369.66 C637.062177,369.545703 637.12939,369.42136 637.18,369.29 C637.940865,367.596042 639.847151,366.737355 641.62,367.29 C641.753499,367.330905 641.890915,367.357718 642.03,367.37 C642.84273,367.422417 643.59323,366.934319 643.874886,366.170154 C644.156542,365.40599 643.902338,364.547578 643.25,364.06 C643.141879,363.960743 643.020771,363.876641 642.89,363.81 Z" id="Shape" fill="#4D8AF0" opacity="0.5"></path>
            <path d="M80.89,505.81 C79.1798781,505.063721 78.2989163,503.155687 78.84,501.37 C78.8819775,501.236771 78.9088134,501.099237 78.92,500.96 C78.9724167,500.14727 78.4843194,499.39677 77.7201545,499.115114 C76.9559896,498.833458 76.0975784,499.087662 75.61,499.74 C75.5299277,499.852047 75.4628316,499.97282 75.41,500.1 C74.6671849,501.813509 72.7560187,502.695917 70.97,502.15 C70.8365005,502.109095 70.6990845,502.082282 70.56,502.07 C69.7472697,502.017583 68.9967697,502.505681 68.7151137,503.269846 C68.4334578,504.03401 68.6876616,504.892422 69.34,505.38 C69.4504575,505.465208 69.5714586,505.535792 69.7,505.59 C71.4101219,506.336279 72.2910837,508.244313 71.75,510.03 C71.7089805,510.160057 71.6821577,510.294171 71.67,510.43 C71.6125578,511.244665 72.0989776,511.999707 72.8645182,512.284183 C73.6300587,512.568659 74.4915042,512.314485 74.98,511.66 C75.0621773,511.545703 75.1293899,511.42136 75.18,511.29 C75.9408655,509.596042 77.8471513,508.737355 79.62,509.29 C79.7534995,509.330905 79.8909155,509.357718 80.03,509.37 C80.8427303,509.422417 81.5932303,508.934319 81.8748863,508.170154 C82.1565422,507.40599 81.9023384,506.547578 81.25,506.06 C81.1418791,505.960743 81.0207709,505.876641 80.89,505.81 Z" id="Shape" fill="#4D8AF0" opacity="0.5"></path>
            <path d="M25.89,174.81 C24.1994206,174.045757 23.3421234,172.142557 23.89,170.37 C23.9319775,170.236771 23.9588134,170.099237 23.97,169.96 C24.0224167,169.14727 23.5343194,168.39677 22.7701545,168.115114 C22.0059896,167.833458 21.1475784,168.087662 20.66,168.74 C20.5799277,168.852047 20.5128316,168.97282 20.46,169.1 C19.7171849,170.813509 17.8060187,171.695917 16.02,171.15 C15.8865005,171.109095 15.7490845,171.082282 15.61,171.07 C14.7972697,171.017583 14.0467697,171.505681 13.7651137,172.269846 C13.4834578,173.03401 13.7376616,173.892422 14.39,174.38 C14.5004575,174.465208 14.6214586,174.535792 14.75,174.59 C16.4601219,175.336279 17.3410837,177.244313 16.8,179.03 C16.7589805,179.160057 16.7321577,179.294171 16.72,179.43 C16.6625578,180.244665 17.1489776,180.999707 17.9145182,181.284183 C18.6800587,181.568659 19.5415042,181.314485 20.03,180.66 C20.1121773,180.545703 20.1793899,180.42136 20.23,180.29 C20.9908655,178.596042 22.8971513,177.737355 24.67,178.29 C24.8034995,178.330905 24.9409155,178.357718 25.08,178.37 C25.8927303,178.422417 26.6432303,177.934319 26.9248863,177.170154 C27.2065422,176.40599 26.9523384,175.547578 26.3,175.06 C26.1765118,174.956761 26.0383274,174.872502 25.89,174.81 Z" id="Shape" fill="#4D8AF0" opacity="0.5"></path>
            <path d="M632.89,6.81 C631.199421,6.04575667 630.342123,4.14255688 630.89,2.37 C630.931978,2.2367709 630.958813,2.09923709 630.97,1.96 C631.022417,1.14726969 630.534319,0.396769671 629.770154,0.115113726 C629.00599,-0.166542218 628.147578,0.0876616154 627.66,0.74 C627.579928,0.852046632 627.512832,0.97281961 627.46,1.1 C626.699135,2.79395775 624.792849,3.65264506 623.02,3.1 C622.886501,3.0590948 622.749085,3.03228192 622.61,3.02 C621.719191,2.83313159 620.825614,3.32565567 620.507942,4.17861782 C620.19027,5.03157997 620.543975,5.98863407 621.34,6.43 C621.450458,6.51520845 621.571459,6.58579242 621.7,6.64 C623.390579,7.40424333 624.247877,9.30744312 623.7,11.08 C623.658981,11.2100567 623.632158,11.344171 623.62,11.48 C623.532985,12.3276809 624.039393,13.124202 624.843911,13.405069 C625.648428,13.685936 626.540537,13.3776545 627,12.66 C627.082177,12.5457033 627.14939,12.42136 627.2,12.29 C627.960865,10.5960422 629.867151,9.73735494 631.64,10.29 C631.773499,10.3309052 631.910915,10.3577181 632.05,10.37 C632.86273,10.4224167 633.61323,9.93431936 633.894886,9.17015446 C634.176542,8.40598956 633.922338,7.5475784 633.27,7.06 C633.155721,6.95921018 633.027794,6.87504744 632.89,6.81 Z" id="Shape" fill="#4D8AF0" opacity="0.5"></path>
            <g id="Group" opacity="0.5" transform="translate(103.000000, 257.000000)" fill="#47E6B1">
                <rect id="Rectangle-path" x="7" y="0.85" width="3" height="17"></rect>
                <rect id="Rectangle-path" transform="translate(8.500000, 9.350000) rotate(90.000000) translate(-8.500000, -9.350000) " x="7" y="0.85" width="3" height="17"></rect>
            </g>
            <g id="Group" opacity="0.5" transform="translate(823.000000, 177.000000)" fill="#47E6B1">
                <rect id="Rectangle-path" x="7" y="0.85" width="3" height="17"></rect>
                <rect id="Rectangle-path" transform="translate(8.500000, 9.350000) rotate(90.000000) translate(-8.500000, -9.350000) " x="7" y="0.85" width="3" height="17"></rect>
            </g>
            <g id="Group" opacity="0.5" transform="translate(723.000000, 456.000000)" fill="#47E6B1">
                <rect id="Rectangle-path" x="7" y="0.85" width="3" height="17"></rect>
                <rect id="Rectangle-path" transform="translate(8.500000, 9.350000) rotate(90.000000) translate(-8.500000, -9.350000) " x="7" y="0.85" width="3" height="17"></rect>
            </g>
            <circle id="Oval" fill="#F55F44" opacity="0.5" cx="723" cy="81.85" r="6"></circle>
            <circle id="Oval" fill="#F55F44" opacity="0.5" cx="6" cy="12.85" r="6"></circle>
            <circle id="Oval" fill="#F55F44" opacity="0.5" cx="186" cy="357.85" r="6"></circle>
            <ellipse id="Oval" fill="#000000" opacity="0.05" cx="234" cy="154.43" rx="34" ry="7"></ellipse>
            <ellipse id="Oval" fill="#000000" opacity="0.05" cx="234" cy="207.43" rx="34" ry="7"></ellipse>
            <ellipse id="Oval" fill="#000000" opacity="0.05" cx="621" cy="154.43" rx="34" ry="7"></ellipse>
            <ellipse id="Oval" fill="#000000" opacity="0.05" cx="621" cy="207.43" rx="34" ry="7"></ellipse>
            <ellipse id="Oval" fill="#000000" opacity="0.05" cx="432" cy="124.43" rx="34" ry="7"></ellipse>
            <ellipse id="Oval" fill="#000000" opacity="0.05" cx="457" cy="51.43" rx="34" ry="7"></ellipse>
            <ellipse id="Oval" fill="#000000" opacity="0.05" cx="392" cy="81.43" rx="34" ry="7"></ellipse>
            <ellipse id="Oval" fill="#000000" opacity="0.05" cx="517" cy="94.43" rx="34" ry="7"></ellipse>
            <ellipse id="Oval" fill="#000000" opacity="0.05" cx="432" cy="228.43" rx="34" ry="7"></ellipse>
            <g id="avocado-copy" transform="translate(436.779028, 542.565211) rotate(12.000000) translate(-436.779028, -542.565211) translate(353.279028, 459.565211)">
                <path d="M96.8148656,38.8148336 L96.8148656,38.3226545 C96.8148656,17.8095627 80.4073955,0.806296894 59.8946791,0.654250734 C39.2190293,0.501078306 22.4102324,17.2152687 22.4102324,37.8556288 L22.4102324,38.8110793 C22.4102324,50.4108874 18.5373727,61.6153754 11.6892888,70.9780401 C4.34076643,81.0247247 0.0748392302,93.467732 0.286202164,106.917247 C0.778756638,138.276674 25.951594,164.058447 57.2918741,165.253417 C91.1185782,166.543369 118.94678,139.50318 118.94678,105.963674 C118.94678,92.7859645 114.649692,80.613637 107.381511,70.7678034 C100.545816,61.5080045 96.8148656,50.3241647 96.8148656,38.8148336 Z" id="Shape" fill="#EAD376"></path>
                <path d="M107.381135,70.767428 C100.545816,61.5080045 96.8148656,50.3241647 96.8148656,38.8148336 L96.8148656,38.3226545 C96.8148656,17.8095627 80.4070201,0.806296894 59.8946791,0.654250734 C39.2190293,0.501078306 22.4102324,17.2152687 22.4102324,37.8556288 L22.4102324,38.8110793 C22.4102324,50.4108874 18.5373727,61.6153754 11.6892888,70.9780401 C4.34076643,81.0247247 0.0748392302,93.467732 0.286202164,106.916872 C0.778756638,138.276299 25.951594,164.058071 57.2918741,165.253042 C91.1185782,166.542994 118.94678,139.502804 118.94678,105.963298 C118.94678,92.7859645 114.649317,80.6132615 107.381135,70.767428 Z M94.1354744,140.486787 C84.9150949,149.707166 72.6545431,154.785884 59.6146139,154.785884 C59.613863,154.785884 59.613863,154.785884 59.6131122,154.785884 C58.97602,154.785884 58.3299177,154.773495 57.6920746,154.749092 C45.2385556,154.273807 33.5355063,149.054306 24.7401052,140.050921 C15.9443287,131.047911 10.9925044,119.222099 10.7965338,106.752061 C10.6283444,96.0258617 13.871245,85.8012267 20.1742153,77.1837759 C28.5142288,65.7818156 32.9224412,52.5128786 32.9224412,38.8110793 L32.9224412,37.8556288 C32.9224412,23.1383113 44.8954193,11.1649578 59.6131122,11.1649578 L59.8169666,11.1657086 C74.4216573,11.2738303 86.3037832,23.4562943 86.3037832,38.3226545 L86.3037832,38.8148336 C86.3037832,52.6176215 90.6680711,65.8253646 98.9243653,77.0103307 C105.14662,85.4389439 108.435322,95.4507142 108.435322,105.963298 C108.434571,119.005105 103.356605,131.265657 94.1354744,140.486787 Z" id="Shape" fill="#22BC89"></path>
                <circle id="Oval" fill="#DDC460" cx="59.6112351" cy="105.965175" r="25.1420527"></circle>
                <path d="M78.0212094,123.080317 C51.324907,127.80839 43.392978,92.7596849 52.8438669,81.7507921 C42.2471881,84.7072452 34.4703086,94.4239334 34.4703086,105.963674 C34.4703086,119.84943 45.7269804,131.105727 59.6123613,131.105727 C66.883922,131.105727 73.430917,128.015248 78.0212094,123.080317 Z" id="Shape" fill="#000000" opacity="0.1"></path>
                <g id="Group" opacity="0.3" transform="translate(145.421583, 29.555786)" fill="#FFFFFF">
                    <circle id="Oval" cx="16.2933416" cy="2.96921748" r="2.81604506"></circle>
                    <circle id="Oval" cx="17.9827434" cy="26.6208424" r="2.81604506"></circle>
                    <circle id="Oval" cx="3.17982957" cy="13.1056282" r="2.81604506"></circle>
                </g>
            </g>
        </g>
    </g>
</svg>