<svg width="207" height="109" viewBox="0 0 207 109" xmlns="http://www.w3.org/2000/svg"><g fill-rule="nonzero" fill="none"><path d="M179.26 13.128L167.973 1.8a5.997 5.997 0 0 0-8.51-.057L88.596 71.886 58.633 41.741a5.983 5.983 0 0 0-8.45-.06L38.776 52.945a6.038 6.038 0 0 0-.057 8.496l45.504 45.783a6.063 6.063 0 0 0 8.511.06l86.462-85.663a5.977 5.977 0 0 0 .063-8.494z" fill="#2AB875"/><g transform="rotate(-45 65.9 27.17)"><path d="M5.287 2.701c1.374 1.63 1.749 3.732 1.85 4.876a.622.622 0 0 1-.783.654c-1.114-.297-3.128-1.03-4.502-2.66C.478 3.94.103 1.839.002.695A.622.622 0 0 1 .785.04C1.9.338 3.913 1.07 5.287 2.7z" fill="#22BC89"/><path d="M7.136 7.577c-.1-1.144-.475-3.245-1.85-4.876a6.568 6.568 0 0 0-.367-.4 4.456 4.456 0 0 0-2.494 3.868C3.74 7.386 5.386 7.973 6.354 8.23a.622.622 0 0 0 .782-.654z" fill="#000" opacity=".1"/><path d="M5.351 6.587a.339.339 0 0 1-.26-.12L1.53 2.239a.336.336 0 0 1 .041-.475.34.34 0 0 1 .478.041L5.61 6.033a.336.336 0 0 1-.259.554z" fill="#000" opacity=".1"/><path d="M12.49 7.046v-.06c0-2.457-1.973-4.493-4.441-4.512-2.488-.018-4.51 1.984-4.51 4.457v.114c0 1.39-.466 2.732-1.29 3.854a7.056 7.056 0 0 0-1.372 4.305c.059 3.757 3.088 6.846 6.858 6.989 4.07.154 7.419-3.085 7.419-7.103a7.054 7.054 0 0 0-1.392-4.216 6.428 6.428 0 0 1-1.271-3.828z" fill="#EAD376"/><path d="M13.762 10.874a6.428 6.428 0 0 1-1.271-3.828v-.06c0-2.457-1.974-4.493-4.442-4.512-2.488-.018-4.51 1.984-4.51 4.457v.114c0 1.39-.466 2.732-1.29 3.854a7.056 7.056 0 0 0-1.372 4.305c.059 3.757 3.088 6.846 6.858 6.989 4.07.154 7.419-3.085 7.419-7.103a7.054 7.054 0 0 0-1.392-4.216zm-1.594 8.352a5.849 5.849 0 0 1-4.153 1.713 5.848 5.848 0 0 1-4.196-1.765 5.809 5.809 0 0 1-1.678-3.99 5.781 5.781 0 0 1 1.129-3.542c1.003-1.366 1.533-2.955 1.533-4.597v-.114a3.208 3.208 0 0 1 3.212-3.198h.024c1.758.014 3.187 1.473 3.187 3.254v.059c0 1.653.525 3.236 1.519 4.576a5.783 5.783 0 0 1 1.144 3.468 5.798 5.798 0 0 1-1.72 4.136z" fill="#22BC89"/><ellipse fill="#DDC460" cx="8.015" cy="15.09" rx="3.025" ry="3.012"/><g opacity=".3" transform="translate(18.34 5.937)" fill="#FFF"><ellipse cx="1.96" cy=".356" rx="1" ry="1"/><ellipse cx="2.164" cy="3.189" rx="1" ry="1"/><ellipse cx=".383" cy="1.57" rx="1" ry="1"/></g></g><g transform="rotate(45 49.893 257.02)"><path d="M5.287 2.701c1.374 1.63 1.749 3.732 1.85 4.876a.622.622 0 0 1-.783.654c-1.114-.297-3.128-1.03-4.502-2.66C.478 3.94.103 1.839.002.695A.622.622 0 0 1 .785.04C1.9.338 3.913 1.07 5.287 2.7z" fill="#22BC89"/><path d="M7.136 7.577c-.1-1.144-.475-3.245-1.85-4.876a6.568 6.568 0 0 0-.367-.4 4.456 4.456 0 0 0-2.494 3.868C3.74 7.386 5.386 7.973 6.354 8.23a.622.622 0 0 0 .782-.654z" fill="#000" opacity=".1"/><path d="M5.351 6.587a.339.339 0 0 1-.26-.12L1.53 2.239a.336.336 0 0 1 .041-.475.34.34 0 0 1 .478.041L5.61 6.033a.336.336 0 0 1-.259.554z" fill="#000" opacity=".1"/><path d="M12.49 7.046v-.06c0-2.457-1.973-4.493-4.441-4.512-2.488-.018-4.51 1.984-4.51 4.457v.114c0 1.39-.466 2.732-1.29 3.854a7.056 7.056 0 0 0-1.372 4.305c.059 3.757 3.088 6.846 6.858 6.989 4.07.154 7.419-3.085 7.419-7.103a7.054 7.054 0 0 0-1.392-4.216 6.428 6.428 0 0 1-1.271-3.828z" fill="#EAD376"/><path d="M13.762 10.874a6.428 6.428 0 0 1-1.271-3.828v-.06c0-2.457-1.974-4.493-4.442-4.512-2.488-.018-4.51 1.984-4.51 4.457v.114c0 1.39-.466 2.732-1.29 3.854a7.056 7.056 0 0 0-1.372 4.305c.059 3.757 3.088 6.846 6.858 6.989 4.07.154 7.419-3.085 7.419-7.103a7.054 7.054 0 0 0-1.392-4.216zm-1.594 8.352a5.849 5.849 0 0 1-4.153 1.713 5.848 5.848 0 0 1-4.196-1.765 5.809 5.809 0 0 1-1.678-3.99 5.781 5.781 0 0 1 1.129-3.542c1.003-1.366 1.533-2.955 1.533-4.597v-.114a3.208 3.208 0 0 1 3.212-3.198h.024c1.758.014 3.187 1.473 3.187 3.254v.059c0 1.653.525 3.236 1.519 4.576a5.783 5.783 0 0 1 1.144 3.468 5.798 5.798 0 0 1-1.72 4.136z" fill="#22BC89"/><ellipse fill="#DDC460" cx="8.015" cy="15.09" rx="3.025" ry="3.012"/><g opacity=".3" transform="translate(18.34 5.937)" fill="#FFF"><ellipse cx="1.96" cy=".356" rx="1" ry="1"/><ellipse cx="2.164" cy="3.189" rx="1" ry="1"/><ellipse cx=".383" cy="1.57" rx="1" ry="1"/></g></g></g></svg>