<svg width="500" height="361" viewBox="0 0 500 361" xmlns="http://www.w3.org/2000/svg"><defs><linearGradient x1="50.099%" y1="100.001%" x2="50.099%" y2="-.073%" id="a"><stop stop-color="gray" stop-opacity=".25" offset="0%"/><stop stop-color="gray" stop-opacity=".12" offset="54%"/><stop stop-color="gray" stop-opacity=".1" offset="100%"/></linearGradient><linearGradient x1="53.685%" y1="100.225%" x2="46.108%" y2="-.834%" id="b"><stop stop-color="gray" stop-opacity=".25" offset="0%"/><stop stop-color="gray" stop-opacity=".12" offset="54%"/><stop stop-color="gray" stop-opacity=".1" offset="100%"/></linearGradient></defs><g transform="translate(0 -13)" fill="none" fill-rule="evenodd"><path d="M257.489 86.38c-31.398 5.237-62.845 2.417-93.118-1.485-30.272-3.902-60.475-8.885-91.94-7.918-20.228.628-42.73 4.6-56.727 16.79C2.238 105.496.312 121.53.44 136.026.536 146.937 1.56 158.234 8.953 167c5.132 6.09 12.978 10.506 18.91 16.134 20.668 19.589 14.806 49.933 1.72 75.633-6.157 12.053-13.682 23.89-17.81 36.246-4.13 12.356-4.54 25.682 3.245 35.934 7.713 10.14 22.467 15.99 37.818 19.118 31.175 6.358 65.774 3.075 99.24-1.486 74.067-10.163 147.33-26.6 220.33-42.99 27.031-6.068 54.182-12.167 80.189-21.09 14.441-4.948 29.133-11.175 38.381-21.017 11.737-12.5 11.843-29.756.247-40.227-19.433-17.536-62.969-14.258-78.083-34.233-8.33-10.985-4.939-25.753 1.425-38.741 13.632-27.858 40.347-55.21 36.5-83.204-2.64-19.228-21.276-35.323-46.034-39.774-25.946-4.666-59.108 3.124-73.782 22.238-15.132 19.676-46.038 32.216-73.76 36.839z" fill="#2AB875" fill-rule="nonzero" opacity=".1"/><path d="M391.504 76.977l.132.224c-11.917 14.865-12.705 37.946-12.753 38.144l-2.511-2.9c.044-.211 3.135-20.507 15.132-35.468z" fill="#444053" fill-rule="nonzero"/><path d="M397.177 113.328s-6.443-13.503-.708-22.29M408.087 79.288s-8.857 8.454-7.726 13.155M402.748 76.3s-8.302 1.485-9.463-1.235M391.957 66.286s4.195 5.55 5.277 4.306M384.3 70.94s-.026 12.412-3.385 13.291M356.65 87.021s13.43 1.147 19.625-5.778M380.831 56.273s-3.25 12.593-12.212 15.98M348.593 73.76s9.507 3.3 17.682-5.11M348.953 57.468s7.89.052 9.74-2.518" stroke="#444053" stroke-width=".5"/><ellipse fill="#2AB875" fill-rule="nonzero" opacity=".1" cx="297.643" cy="365.742" rx="155.457" ry="7.395"/><path d="M294.455 354.95v3.437H192.757v-2.795a33.396 33.396 0 0 0 21.787-30.07 33.391 33.391 0 0 0-19.487-31.608h98.707a33.458 33.458 0 0 0-18.47 22.146 33.38 33.38 0 0 0 12.934 35.358 33.477 33.477 0 0 0 6.227 3.533z" fill="#D2D4DE" fill-rule="nonzero"/><path d="M293.764 293.914a33.458 33.458 0 0 0-18.47 22.146h-61.758a33.458 33.458 0 0 0-18.47-22.146h98.698z" fill="#000" fill-rule="nonzero" opacity=".1"/><path d="M76.31 276.413v19.285c0 10.656 7.802 19.29 17.428 19.29h299.2c9.626 0 17.427-8.634 17.427-19.29v-19.285H76.31z" fill="#D2D4DE" fill-rule="nonzero"/><path d="M294.455 354.95v3.437H192.757v-2.795a33.316 33.316 0 0 0 7.845-4.174h87.617a33.477 33.477 0 0 0 6.236 3.533z" fill="#000" fill-rule="nonzero" opacity=".1"/><rect fill="#D2D4DE" fill-rule="nonzero" x="159.151" y="352.49" width="168.905" height="10.181" rx="4.178"/><path d="M410.365 65.052c0-9.617-7.803-17.414-17.427-17.414h-299.2c-9.625 0-17.428 7.797-17.428 17.414v215.11h334.055V65.051z" fill="#30374E" fill-rule="nonzero"/><path d="M401.253 72.82v184.84c0 4.735-3.84 8.573-8.58 8.573H94.007a8.579 8.579 0 0 1-6.068-2.51 8.565 8.565 0 0 1-2.511-6.063V72.82a8.569 8.569 0 0 1 2.508-6.07 8.583 8.583 0 0 1 6.071-2.516h298.668a8.588 8.588 0 0 1 6.07 2.517 8.573 8.573 0 0 1 2.51 6.07z" fill="#DFE3EF" fill-rule="nonzero"/><ellipse fill="#FFF" fill-rule="nonzero" cx="243.338" cy="55.943" rx="4.024" ry="4.02"/><ellipse fill="#FFF" fill-rule="nonzero" cx="243.338" cy="296.502" rx="9.921" ry="9.913"/><path d="M401.249 72.82H85.427a8.565 8.565 0 0 1 2.507-6.071 8.579 8.579 0 0 1 6.072-2.515H392.67a8.579 8.579 0 0 1 6.073 2.515 8.565 8.565 0 0 1 2.507 6.071z" fill="#FFF" fill-rule="nonzero"/><ellipse fill="#DFE3EF" fill-rule="nonzero" cx="94.006" cy="68.532" rx="2.146" ry="2.144"/><ellipse fill="#DFE3EF" fill-rule="nonzero" cx="100.44" cy="68.532" rx="2.146" ry="2.144"/><ellipse fill="#DFE3EF" fill-rule="nonzero" cx="106.873" cy="68.532" rx="2.146" ry="2.144"/><path fill="#FFF" fill-rule="nonzero" d="M115.163 96.561h254.89v148.832h-254.89z"/><path d="M441.192 297.478c.092-.25-.607-1.657-.607-1.727 0-.07-.717-.852-.717-1.287 0-.435-.954-1.384-.954-1.384s-1.275-.528-1.412-1.679c-.136-1.151-1.53-1.173-1.535-1.173v-.264a3.719 3.719 0 0 0-.167-1.349 1.372 1.372 0 0 0-.791-.668 2.969 2.969 0 0 0-.44-1.173c-.317-.33-.44-.8-.325-1.243.14-.44-.185-1.543-.88-1.705-.695-.163-1.438-.413-1.438-.413l-.185.03-.092-.03c-.161.03-.324.05-.488.061a.616.616 0 0 1-.396-.131c-.233-.25-2.11-.734-2.458-.734a5.83 5.83 0 0 1-1.346-.44l-.998-.76a6.508 6.508 0 0 1-.88-1.204 4.914 4.914 0 0 1-.21-.606 5.48 5.48 0 0 0 .879-1.186l.066-.137c.05.007.1.007.15 0l.061-.026a.976.976 0 0 0 .493-.589.962.962 0 0 0 .044-.15v-.052a.878.878 0 0 0 0-.105.259.259 0 0 0 0-.057.878.878 0 0 0 0-.106v-.189c.022-.162.04-.325.074-.488.201-.602.463-1.182.783-1.73a3.496 3.496 0 0 0 .198-.532.64.64 0 0 0 0-.088c0-.066.035-.137.048-.207.013-.07 0-.061 0-.092 0-.097.027-.193.035-.29a3.513 3.513 0 0 0-.237-1.617c-.171-.44-.44-.822-.607-1.252-.268-.655-.338-1.398-.664-2.022a2.415 2.415 0 0 0-2.89-1.177c-.505.189-.94.553-1.455.716-.686.22-1.416.053-2.128-.044-.712-.097-1.495-.105-2.062.356-.66.532-.84 1.533-1.456 2.122-.26.246-.58.4-.853.629a1.384 1.384 0 0 0-.44.584v.048a.44.44 0 0 0 0 .062.386.386 0 0 0 0 .07v.048a1.146 1.146 0 0 0 0 .124c.005.038.013.076.022.114v.03a.624.624 0 0 0 .03.097l.04.106.027.052a.132.132 0 0 0 0 .044c.09.171.162.35.215.536a.602.602 0 0 1 0 .352c-.062.13-.15.245-.26.338a4.86 4.86 0 0 0-1.046 1.674c-.026.07-.048.145-.075.216h.031c.066.02.134.035.203.044h.118c.158.008.316-.004.47-.036l.12-.026c.161-.044.319-.103.47-.176V275.812a5.47 5.47 0 0 0 3.043 4.894v.15c.002.04.002.082 0 .123l-.061-.057s-.44-.207-.814.39c-.29.393-.685.698-1.139.88 0 0-4.222.667-4.397 1.22l-1.97.115s-.695.092-.766 1.542c-.07 1.45-.44 1.587-.44 1.587s-.813 1.428-.743 2.166a1.2 1.2 0 0 1-.629 1.103l-.092 1.318a.88.88 0 0 0-.972.782c-.09.478-.288.93-.58 1.318 0 0-1.275 1.06-1.346 1.955l-.791.484s-1.83-.413-2.248-1.151l-.131-.119a6.256 6.256 0 0 0-.766-.677.566.566 0 0 1 .036.37l-.137-.15-.224-.457s-2.727-3.128-4.464-3.348a1.095 1.095 0 0 0-.782.756c-.22.747-.44 1.986.123 2.596l2.748 2.927.07.053.599.764c-.101.242-.19.475-.26.69 0 .048-.03.092-.044.136v.044l-.04.127c0 .027 0 .053-.021.075v.044a8.292 8.292 0 0 0-.128.51l-.154-.049.15.066a.198.198 0 0 0 0 .049l.14.061c.814.356 4.869 2.131 5.08 2.404a2.935 2.935 0 0 0 3.153.44 3.323 3.323 0 0 0 1.693-1.864 19.67 19.67 0 0 0 1.372-2.087c.044-.272 1.09-.598 1.09-.598s.093 3.076-.44 4.214c-.531 1.138-1.53 6.117-1.53 6.117a.753.753 0 0 1 .198 0l-.057.29a.691.691 0 0 1 .246 0c-.075.57-.501 3.207-.501 3.207a6.758 6.758 0 0 1-.37 1.613c-.233.413-.259 2.575-.259 2.575l-.37 1.568s.05.106.141.268c.25.532.615 1.002 1.069 1.376-.03.246-.094.487-.19.716-.143.35-.206.729-.184 1.107-.179.75-.295 1.512-.347 2.28a8.57 8.57 0 0 1-.255 1.758l-.44 4.007s-.277 3.472-.14 4.394a8.381 8.381 0 0 1-.093 2.232s.277 2.742.211 3.041c-.066.299-.44 1.59-.211 2.302s.092 2.672.092 2.672.141 2.58.304 3.405c.087.628.07 1.267-.049 1.89-.043.59-.121 1.176-.233 1.757-.066 0-.673 1.222.559 2.421 1.231 1.2.466 1.01.466 1.01s-.976-.482-.88.506c.097.989.264.699.277.672l-.228.756.162.022c-.044.053-.087.11-.136.163-.14.175-.296.337-.466.483a1.01 1.01 0 0 0-.303.668 18.14 18.14 0 0 1-3.316 2.808 9.86 9.86 0 0 0-1.887 1.265c-.286.312-.237.567.356.76a9 9 0 0 0 5.031.093 5.871 5.871 0 0 0 2.463-1.587 3.551 3.551 0 0 1 1.97-.325c.976.185 2.924-1.08 2.924-1.08l-.035-.326-.105-.94a.747.747 0 0 1-.163-.576 3.073 3.073 0 0 0-.08-.826c0-.092-.034-.184-.052-.268l.18-.035s-.233-1.173.185-1.402c.418-.228.299-3.247.299-3.247-.226-.308-.5-.58-.81-.804-.276-.119-.026-1.547 0-1.727.027-.18.44-3.757.44-3.757a4.83 4.83 0 0 1 .049-1.608c.185-.483-.233-2.346-.233-2.346a.44.44 0 0 1 .114-.51c.255-.277.163-2.737.163-2.737s-.022-1.244-.022-1.569a5.678 5.678 0 0 1 .532-1.885c.255-.39.097-1.612.097-1.612v-.093-.255c.108-.672.255-1.338.44-1.994.303-.967.65-2.672.65-2.672l2.16-5.62v-.066c.579 1.099.919 2.307.998 3.546.117.862.179 1.731.185 2.601.016 1.054.086 2.105.21 3.15 0 0 .3 3.731.3 3.894 0 .163.373 3.036.607 3.476.233.439-.234 1.757-.374 1.91-.141.155.044 3.516.044 3.516s-.348 2.672-.418 3.225c-.07.554-.347 2.672-.114 3.515.233.844.14.94.14.94s.836.853.348.923a1.275 1.275 0 0 0-.928 1.679c.29.842.63 1.665 1.02 2.465l.387-.08v.273l.026 1.371c.077.534.101 1.074.07 1.613-.065.22-.162 1.252-.206 1.788 0 .198-.026.33-.026.33s0 1.221 2.577.852c2.577-.37 3.038-1.38 3.038-1.38v-.127c.04-.233.124-.73.19-1.002.092-.369-.74-2.026-.74-2.026s-.14-1.129-.373-1.384a1.186 1.186 0 0 1-.185-.483c0-.092-.04-.189-.057-.281l.172.03s-.137-.808.395-1.058a.764.764 0 0 0 .326-1.015 7.74 7.74 0 0 1 .206-1.52.755.755 0 0 1 .185-.734c.33-.326.58-2.58.58-2.58l.049-8.704a8.364 8.364 0 0 0-.022-2.162c-.19-.624-.374-1.819-.119-2.144.255-.325.027-1.815.027-1.815s0-3.155.347-3.954c.347-.8.233-5.734.233-5.734l.092-3.248s.757-.711.577-4.45c.809-.049 1.719-.08 1.86.03.255.207 1.9 1.27 2.876.602.4-.28.787-.58 1.156-.9l-.409-6.904c.255.387.414.642.414.642 0-.967 2.735-4.1 2.735-4.1s2.55-3.29 3.109-3.682c.558-.39 1.649-2.46 1.649-2.46.16-.396.345-.78.554-1.152.392-.4-.444-1.502-.347-1.757zm-5.99 2.417c-.695.07-2.155 1.66-2.198 2.003-.05.23-.155.442-.308.62 0-.14 0-.281-.031-.44-.167-2.034-.343-4.512-.264-4.75.094-.756.125-1.519.092-2.28l.027-.035c.466 1.445 1.922 3.146 1.922 3.146s.255.738.554.76c.299.022.206.976.206.976z" fill="url(#a)" fill-rule="nonzero"/><path d="M398.004 299.372s.848-4.434 3.57-4.456l1.988 4.087-1.32.914s-2.888.092-4.238-.545z" fill="#65617D" fill-rule="nonzero"/><path d="M403.562 299.003l-1.32.914a15.61 15.61 0 0 1-3.473-.29 4.352 4.352 0 0 1-.757-.255v-.075a9.621 9.621 0 0 1 .515-1.63c.083-.198.176-.404.281-.607a4.096 4.096 0 0 1 1.724-1.889c.282-.14.59-.222.906-.237h.123l.04.088.673 1.384 1.288 2.597z" fill="#000" fill-rule="nonzero" opacity=".1"/><path d="M426.152 317.418s2.859-.273 3.11-.066c.25.206 1.877 1.256 2.836.593.958-.664.32-2.97.32-3.076 0-.105-.092-3.357-.092-3.357l-1.715-2.307-2.15-4.047-4.398-.439.115 6.42v3.286l1.974 2.993z" fill="#65617D" fill-rule="nonzero"/><path d="M426.152 317.418s2.859-.273 3.11-.066c.25.206 1.877 1.256 2.836.593.958-.664.32-2.97.32-3.076 0-.105-.092-3.357-.092-3.357l-1.715-2.307-2.15-4.047-4.398-.439.115 6.42v3.286l1.974 2.993z" fill="#000" fill-rule="nonzero" opacity=".1"/><path d="M400.99 294.802s-.225 2.786-1.966 2.83c0 0-.493-.295-1.152-.791-1.53-1.143-3.958-3.335-3.281-5.378.959-2.922 5.624 2.469 5.624 2.469l.361.4.413.47z" fill="#FBBEBE" fill-rule="nonzero"/><path d="M400.99 294.802s-.225 2.786-1.966 2.83c0 0-.493-.295-1.152-.791l-.15-.19c.294.154.618.241.95.256a1.275 1.275 0 0 0 1.244-.782c.185-.359.347-.729.484-1.108.081-.222.14-.451.176-.685l.413.47z" fill="#000" fill-rule="nonzero" opacity=".1"/><path d="M400.246 299.85l-.391-.505-1.32-1.691-.672-.88c.295.155.621.243.954.26a1.284 1.284 0 0 0 1.24-.786c.184-.358.345-.726.484-1.103.215-.62.211-.936.136-1.042.268.207.52.435.752.681l.128.119.044.092.664 1.318v.058c.074.435.299 3.102-2.019 3.48z" fill="#E7EFFD" fill-rule="nonzero"/><path d="M413.945 358.66s-1.922 1.256-2.885 1.071a3.441 3.441 0 0 0-1.944.321 5.779 5.779 0 0 1-2.423 1.577c-1.552.523-3.725.317-4.96-.092-.585-.193-.634-.44-.352-.756a9.754 9.754 0 0 1 1.86-1.256 17.899 17.899 0 0 0 3.272-2.786.997.997 0 0 1 .294-.664c.161-.145.309-.306.44-.478.246-.29.475-.594.475-.594l5.65.18s.098.41.172.827c.064.269.09.545.08.821a.742.742 0 0 0 .158.571l.101.932.062.325zM425.765 360.232c-.07.277-.15.765-.189.998v.123s-.44 1.006-2.995 1.37c-2.555.365-2.537-.843-2.537-.843s0-.132.026-.325c.037-.59.104-1.176.203-1.758a8.315 8.315 0 0 0-.07-1.6l-.027-1.361v-.95l4.204-.439c.028.314.074.627.136.936.028.17.091.334.185.479.229.25.365 1.37.365 1.37s.792 1.635.7 2z" fill="#65617D" fill-rule="nonzero"/><path d="M413.395 355.183s.097.41.171.827c-.61.11-3.276.57-3.957.25a10.288 10.288 0 0 0-2.38-.571l.027-.092c.246-.29.475-.594.475-.594l5.664.18zM424.481 356.374c-1.064-.184-3.404.255-4.323.44v-.95l4.204-.439c.022.318.062.635.12.95z" fill="#000" fill-rule="nonzero" opacity=".1"/><path d="M426.86 321.72l-.088 3.22s.115 4.912-.228 5.712c-.343.8-.343 3.906-.343 3.906s.228 1.485-.027 1.806c-.255.321-.066 1.507.114 2.123.101.712.109 1.434.022 2.148l-.044 8.639s-.25 2.236-.571 2.557a.738.738 0 0 0-.18.73 7.591 7.591 0 0 0-.207 1.51c.181.367.039.81-.321 1.003-.528.254-.392 1.054-.392 1.054-1.253-.299-4.837.501-4.837.501a20.98 20.98 0 0 1-1.007-2.447 1.26 1.26 0 0 1 .915-1.666c.48-.07-.343-.914-.343-.914s.092-.114-.14-.935c-.234-.822.047-2.927.113-3.476l.414-3.194s-.185-3.362-.044-3.516c.14-.153.593-1.463.365-1.893-.229-.431-.594-3.291-.594-3.454 0-.163-.299-3.862-.299-3.862s-.273-2.58-.207-3.129a20.05 20.05 0 0 0-.18-2.58 8.782 8.782 0 0 0-.985-3.514l-.022.066-2.128 5.576s-.343 1.691-.638 2.636a17.515 17.515 0 0 0-.44 1.986V332.656s.163 1.208-.088 1.6a5.568 5.568 0 0 0-.527 1.871c0 .32.022 1.555.022 1.555s.092 2.443-.159 2.716a.44.44 0 0 0-.114.505s.409 1.85.229 2.329a4.794 4.794 0 0 0-.049 1.6s-.365 3.54-.409 3.725c-.044.185-.299 1.6-.022 1.714.305.224.574.494.796.8 0 0 .119 2.992-.294 3.22-.414.229-.185 1.393-.185 1.393s-3.316.642-4.068.273a10.535 10.535 0 0 0-2.379-.571l.229-.752c0 .027-.167.273-.273-.663-.105-.936.844-.506.844-.506s.757.185-.44-1.001c-1.195-1.187-.615-2.4-.549-2.4.11-.58.187-1.167.229-1.757a5.888 5.888 0 0 0 .048-1.876c-.163-.822-.299-3.384-.299-3.384s.114-1.937-.092-2.636c-.207-.699.136-1.986.206-2.285.07-.299-.206-3.014-.206-3.014a8.46 8.46 0 0 0 .092-2.197c-.136-.94.136-4.394.136-4.394l.414-3.954a8.54 8.54 0 0 0 .25-1.758 14.3 14.3 0 0 1 .343-2.259c-.022-.375.04-.75.18-1.098.187-.64.295-1.299.322-1.964l2.198-5.027 1.073-4.433 14.512-.136s.053.386.141 1.085c.088.698.211 1.731.347 3.005.128 1.16.269 2.527.4 4.043.379 4.842-.536 5.694-.536 5.694z" fill="#3F3D56" fill-rule="nonzero"/><path d="M425.515 281.734l-3.387 3.612s-4.344-1.757-3.887-2.329c.176-.232.15-.957.048-1.757-.162-1.266-.505-2.72-.505-2.72s7.59-1.235 6.952.044a2.094 2.094 0 0 0-.048 1.516c.183.587.463 1.139.827 1.634z" fill="#FBBEBE" fill-rule="nonzero"/><path d="M424.736 278.58c-.233.465-.347.514-.202 1.015-.99 1.063-2.252 2.227-3.822 2.227a5.39 5.39 0 0 1-2.423-.567c-.162-1.265-.505-2.72-.505-2.72s7.59-1.234 6.952.045z" fill="#000" fill-rule="nonzero" opacity=".1"/><path d="M426.152 276.246a5.439 5.439 0 0 1-2.675 4.84 5.448 5.448 0 0 1-5.533 0 5.439 5.439 0 0 1-2.676-4.84v-.074a5.442 5.442 0 0 1 5.479-5.253 5.442 5.442 0 0 1 5.405 5.327z" fill="#FBBEBE" fill-rule="nonzero"/><path d="M426.935 312.123c-.717 0-3.118.026-5.8.066H420.189c-3.18.048-6.315-.571-7.572-.44-2.674.25.958-2.469.958-2.469 1.994.484 4.045.69 6.095.615l.77-.04c2.432-.136 4.877-.364 6.156-.746.084.711.207 1.735.339 3.014z" fill="#000" fill-rule="nonzero" opacity=".1"/><path d="M426.935 311.982c-.717 0-3.118.027-5.8.07H420.189c-3.18.053-6.315-.566-7.572-.439-2.674.25.958-2.47.958-2.47 1.994.485 4.045.692 6.095.616l.77-.04c2.432-.136 4.877-.364 6.156-.747.084.708.207 1.736.339 3.01z" fill="#E3A79F" fill-rule="nonzero"/><path d="M419.248 283.242l-4.186 1.964-3.268 25.089s1.922-.879 3.017-.32c1.095.557 4.481.048 4.481.048s2.471-.141 2.836.136c.365.277 4.666-1.143 4.666-1.143s.774-1.757.18-2.012c-.593-.255.185-2.97.185-2.97l-.365-18.095-.734-2.328-1.966-1.187-1.996 1.59-.963.141-1.887-.913z" fill="#000" fill-rule="nonzero" opacity=".1"/><path d="M419.248 282.965l-4.186 1.964-3.246 25.09s1.922-.88 3.017-.322 4.481.044 4.481.044 2.471-.136 2.836.137c.365.272 4.666-1.143 4.666-1.143s.774-1.757.18-2.008c-.593-.25.185-2.97.185-2.97l-.365-18.094-.734-2.334-1.966-1.186-2.018 1.6-.963.136-1.887-.914z" fill="#E7EFFD" fill-rule="nonzero"/><path d="M419.178 284.13s1.213 1.44 1.191 1.757l-.07 1.001-.915 1.855s-.501 2.307-.501 2.785c0 .48-.8 4.636-.8 4.636l-.963 6.398-1.21 8.388 1.232 2.122 1.464-1.235 1.944-14.94.413-2.947s.44-5.3.44-5.849a18.321 18.321 0 0 0-.255-1.986s.299-1.37 1.534-1.692c1.236-.32-.092-.07-.092-.07l-.708-.571-.62.25s-1.72-.54-2.084.097z" fill="#000" fill-rule="nonzero" opacity=".1"/><path d="M419.041 283.993s1.214 1.441 1.188 1.757a56.813 56.813 0 0 0-.066 1.007l-.915 1.85s-.506 2.31-.506 2.79c0 .479-.8 4.635-.8 4.635l-.959 6.398-1.213 8.383 1.235 2.127 1.465-1.235 1.943-14.939.414-2.948s.44-5.3.44-5.849a18.752 18.752 0 0 0-.251-1.99s.299-1.371 1.535-1.687c1.235-.317-.093-.07-.093-.07l-.708-.572-.62.25s-1.724-.544-2.089.093z" fill="#3F3D56" fill-rule="nonzero"/><path d="M418.241 281.594s-.185.14-.229 1.054a18.16 18.16 0 0 1-.686 2.966s2.38-1.643 3.567-1.459l-2.652-2.561z" fill="#000" fill-rule="nonzero" opacity=".1"/><path d="M418.241 281.321s-.185.137-.229 1.05a18.126 18.126 0 0 1-.686 2.97s2.38-1.643 3.567-1.462l-2.652-2.558z" fill="#E7EFFD" fill-rule="nonzero"/><path d="M424.736 280.856l-3.751 3.29s3.157 1.872 3.566 2.33c.41.456.823-4.478.823-4.478l-.638-1.142z" fill="#000" fill-rule="nonzero" opacity=".1"/><path d="M424.872 280.592l-3.75 3.287s3.157 1.876 3.566 2.333c.409.457.827-4.478.827-4.478l-.643-1.142z" fill="#E7EFFD" fill-rule="nonzero"/><path d="M418.377 281.594s-.409-.202-.8.39a2.568 2.568 0 0 1-1.121.88s-4.16.663-4.319 1.212l-1.944.115s-.686.092-.756 1.529c-.07 1.437-.44 1.577-.44 1.577s-.8 1.415-.73 2.149c.02.452-.219.876-.615 1.094l2.858 7.426s.088 3.075-.44 4.183c-.527 1.107-1.508 6.076-1.508 6.076s.409-.092.387.18c-.022.273-.501 3.27-.501 3.27a6.643 6.643 0 0 1-.37 1.6c-.228.412-.25 2.556-.25 2.556l-.365 1.556s.88 1.942 2.198 1.67c1.32-.273 3.73-5.462 3.73-5.462l1.53-5.598 1.187-5.528.343-3.748.55-8.295.8-5.484s.897-2.957.576-3.348z" fill="#000" fill-rule="nonzero" opacity=".1"/><path d="M418.241 281.321s-.413-.206-.8.387a2.555 2.555 0 0 1-1.122.879s-4.16.663-4.318 1.208l-1.944.114s-.686.093-.756 1.534c-.07 1.441-.44 1.577-.44 1.577s-.8 1.415-.73 2.145c.017.453-.223.878-.62 1.098l2.858 7.426s.093 3.076-.44 4.178c-.531 1.103-1.512 6.082-1.512 6.082s.413-.093.391.18c-.022.272-.505 3.269-.505 3.269a6.586 6.586 0 0 1-.365 1.6c-.23.408-.251 2.557-.251 2.557l-.365 1.555s.88 1.942 2.199 1.665c1.319-.277 3.729-5.461 3.729-5.461l1.53-5.594 1.187-5.532.343-3.748.55-8.291.8-5.484s.92-2.957.581-3.344z" fill="#30374E" fill-rule="nonzero"/><path d="M403.562 299.003l-1.32.914a15.61 15.61 0 0 1-3.473-.29l-.74-.33-.149-.062.154.049c.59.209 1.228.23 1.83.061 1.877-.628 1.67-3.726 1.596-4.424v-.137a.975.975 0 0 0 .084.119l.083.088.664 1.318v.057l1.271 2.637z" fill="#000" fill-rule="nonzero" opacity=".1"/><path d="M408.157 290.083l-.642.184-.088 1.319a.88.88 0 0 0-.963.777 3.162 3.162 0 0 1-.571 1.319s-1.258 1.05-1.32 1.937l-.778.484s-1.807-.413-2.199-1.143c0 0 .823 5.892-3.57 4.456 0 0 4.916 2.144 5.145 2.443.858.747 2.077.92 3.109.439a3.318 3.318 0 0 0 1.67-1.85s1.32-1.854 1.373-2.126c.053-.273 1.073-.594 1.073-.594l1.97-4.754-4.209-2.891z" fill="#30374E" fill-rule="nonzero"/><path d="M424.208 283.606l.664-3.014c.12.436.322.846.594 1.208l.985.756c.42.2.863.348 1.32.44.342 0 2.198.478 2.422.729.225.25 1.144.07 1.144.07s.756.25 1.42.409c.664.158.98 1.256.845 1.691-.113.44.008.906.32 1.235.219.355.36.752.414 1.165.337.108.615.347.774.663.147.52.202 1.06.163 1.6l-3.404 4.798c.03.754 0 1.509-.092 2.258-.137.413.479 7.404.479 7.404l.712 12.017c-.365.314-.746.607-1.143.88-.207.091-.413-4.25-.413-4.395 0-.145-5.277-7.909-5.277-7.909a7.112 7.112 0 0 1-.708-1.393c0-.25-.664-2.557-.664-2.557l-1.008-4.456.453-13.599z" fill="#000" fill-rule="nonzero" opacity=".1"/><path d="M435.558 290.311v.264l-3.412 4.78c.032.755.003 1.51-.088 2.26-.08.24.092 2.697.255 4.718.114 1.459.224 2.685.224 2.685l.3 5.097.408 6.92c-.364.315-.746.608-1.143.88-.207.091-.413-4.25-.413-4.395 0-.145-5.277-7.909-5.277-7.909a7.112 7.112 0 0 1-.708-1.393c0-.25-.664-2.557-.664-2.557l-1.003-4.456.44-13.62.387-3.015c.246.435.541.84.88 1.208l.98.756c.42.2.863.347 1.32.44.342 0 2.198.478 2.422.729.224.25 1.143.07 1.143.07s.752.25 1.417.409c.664.158.985 1.256.848 1.691-.114.44.006.905.317 1.235.22.354.36.751.413 1.165.338.107.619.346.779.663.143.444.203.91.175 1.375z" fill="#30374E" fill-rule="nonzero"/><path d="M407.608 351.185c.114 0 4.916.185 4.837.962-.08.778-4.837-.962-4.837-.962zM408.685 352.477s3.224.523 2.375 1.006c-.849.483-2.375-1.006-2.375-1.006zM420.664 350.684s5.352.44 4.551 1.05c-.8.611-2.7.686-2.788.708a24.647 24.647 0 0 1-1.763-1.758zM420.026 353.04s2.973.5 3.079 1.071c.105.572-3.079-1.072-3.079-1.072zM421.658 339.295s2.722.642 2.88 1.077l-2.88-1.077zM411.174 341.25s-1.416.409-.044 1.23c1.372.822.044-1.23.044-1.23zM417.463 319.294c.162 0 2.638-.822 3.518-.44.622.232 1.28.355 1.943.365l-5.461.075zM417.784 321.895l-.022.228-2.129 5.576s-.343 1.692-.637 2.637a17.515 17.515 0 0 0-.44 1.986l1.886-11.692 1.342 1.265z" fill="#000" fill-rule="nonzero" opacity=".1"/><path fill="#3F3D56" fill-rule="nonzero" d="M421.104 312.053h-.91l-.52-2.303.77-.04z"/><path d="M431.89 309.262l-.566.47-1.9 1.565s-5.145 2.742-6.566.136c-1.249-2.294 4.587-3.955 5.99-4.288l.299-.075 2.744 2.192z" fill="#FBBEBE" fill-rule="nonzero"/><path d="M409.916 286.805s1.007.44 1.236 1.094c.229.655-1.236-1.094-1.236-1.094zM406.807 293.66s-1.464 1.78-.88 2.465c.586.685.88-2.465.88-2.465zM432.968 287.811s-1.372.136-1.42 1.318l1.42-1.318zM420.255 306.543c.136-.137 3.29-4.799 4.024-4.394l-4.024 4.394zM426.152 276.246c.001.897-.22 1.78-.642 2.57h-.04c-.347-.074-.527-.474-.791-.724a1.065 1.065 0 0 0-1.231-.172c-.41.242-.646.696-.607 1.17-.176-.73-.119-1.508-.29-2.242-.172-.733-.682-1.476-1.386-1.49-.299 0-.65.115-.88-.113-.131-.137-.157-.352-.259-.515-.497-.812-2.022-.4-2.638 0a16.188 16.188 0 0 1-2.12 1.437 5.442 5.442 0 0 1 5.479-5.252 5.442 5.442 0 0 1 5.405 5.327v.004z" fill="#000" fill-rule="nonzero" opacity=".1"/><path d="M420.035 274.581c.101.167.128.382.26.519.22.224.571.11.88.114.698 0 1.208.756 1.38 1.49.171.733.114 1.51.29 2.24-.04-.475.196-.93.607-1.173.406-.21.9-.14 1.231.176.264.25.44.65.792.725.352.075.677-.26.8-.624.087-.376.153-.755.198-1.138.154-.712.62-1.296.88-1.973a3.596 3.596 0 0 0-.027-2.553c-.171-.44-.44-.813-.598-1.243-.264-.65-.334-1.384-.655-2.004a2.362 2.362 0 0 0-2.845-1.169c-.497.185-.928.545-1.434.708-.677.22-1.398.052-2.097-.044-.7-.097-1.474-.106-2.036.356-.647.527-.823 1.52-1.434 2.104-.255.242-.572.4-.84.624-.297.216-.472.56-.47.927.039.475.5.905.33 1.34-.06.128-.146.241-.251.334-.51.535-.89 1.18-1.109 1.885 1.223.383 2.547-.966 3.518-1.603.607-.418 2.133-.826 2.63-.018z" fill="#3F3D56" fill-rule="nonzero"/><path d="M431.89 309.262l-.566.47c-.502-.834-2.564-2.504-2.564-2.504l.088-.083.299-.075 2.744 2.192z" fill="#000" fill-rule="nonzero" opacity=".1"/><path d="M432.44 308.419s-.202.505-.417.949c-.216.444-.44.84-.44.514-.026-.642-2.678-2.79-2.678-2.79l.36-.352.44-.404 2.736 2.083z" fill="#E7EFFD" fill-rule="nonzero"/><path d="M432.533 305.022l.299 5.097c-.708-1.103-2.639-3.954-3.914-3.84l3.043-3.493c.125-.14.241-.286.348-.44.114 1.464.224 2.676.224 2.676z" fill="#000" fill-rule="nonzero" opacity=".1"/><path d="M432.44 308.419s-.202.505-.417.949c-.796-1.094-1.891-2.386-2.766-2.636l.44-.405 2.744 2.092z" fill="#000" fill-rule="nonzero" opacity=".1"/><path d="M434.727 289.933l.823.642s1.372 0 1.508 1.164c.136 1.165 1.398 1.67 1.398 1.67s.937.936.937 1.371c0 .435.708 1.208.708 1.279 0 .07.686 1.458.594 1.713-.093.255.73 1.345.48 1.758-.207.37-.39.75-.55 1.142 0 0-1.074 2.057-1.623 2.443-.55.387-3.079 3.656-3.079 3.656s-2.7 3.107-2.7 4.069c0 0-2.638-4.394-4.186-4.271l3.043-3.515s.528-.571.55-.914c.022-.343 1.464-1.92 2.15-1.986 0 0 .114-.94-.185-.962-.299-.022-.55-.752-.55-.752s-2.009-2.377-2.035-3.884c-.027-1.507 2.717-4.623 2.717-4.623z" fill="#30374E" fill-rule="nonzero"/><path d="M435.941 292.104s-1.922 1.42-1.513 1.876c.41.457 1.513-1.876 1.513-1.876zM436.029 297.952s3.566-1.142 3.958 0h-3.958zM413.945 358.66s-1.922 1.256-2.885 1.071a3.441 3.441 0 0 0-1.944.321 5.779 5.779 0 0 1-2.423 1.577c-1.552.523-3.725.317-4.96-.092-.585-.193-.634-.44-.352-.756 1.345.268 4.345.8 5.154.413a21.7 21.7 0 0 0 2.56-1.599s1.965-.277 2.242-.277a24.102 24.102 0 0 0 2.568-.984l.04.325zM425.576 361.23v.123s-.44 1.006-2.995 1.37c-2.555.365-2.537-.843-2.537-.843s0-.132.026-.325c.783.303 2.538.641 5.506-.325zM410.866 291.84s0 5.207-.44 5.713c-.44.505.44-5.713.44-5.713zM431.482 293.51l.66 1.863s.263-1.828-.66-1.863z" fill="#000" fill-rule="nonzero" opacity=".1"/><g opacity=".1" fill="#000" fill-rule="nonzero"><path d="M415.312 273.54c.167-.44-.272-.848-.33-1.318a.878.878 0 0 0-.07.413c.026.347.286.667.352.988a.61.61 0 0 0 .048-.083zM422.902 278.46c-.167-.72-.118-1.484-.281-2.196-.163-.712-.686-1.472-1.385-1.485-.304 0-.656.11-.88-.114-.132-.137-.158-.352-.26-.519-.5-.808-2.022-.4-2.638 0-.936.624-2.22 1.925-3.421 1.63-.06.144-.11.29-.154.44 1.223.382 2.546-.967 3.518-1.604.625-.44 2.15-.826 2.639 0 .1.167.127.382.259.518.22.224.572.11.88.115.699 0 1.209.755 1.38 1.49.172.733.115 1.51.29 2.24a1.203 1.203 0 0 1 .053-.514zM426.341 277.604c-.127.36-.44.694-.805.62-.364-.075-.523-.475-.787-.725a1.078 1.078 0 0 0-1.235-.172c-.388.233-.62.656-.607 1.108.094-.28.286-.515.54-.664.406-.21.901-.14 1.232.176.264.25.44.65.792.725.351.075.677-.26.8-.624.065-.213.107-.433.127-.655a3.75 3.75 0 0 1-.057.211zM427.414 274.489c-.255.68-.72 1.265-.88 1.977a3.657 3.657 0 0 0-.07.44c.159-.712.62-1.292.88-1.969.114-.305.185-.625.211-.95-.035.171-.082.338-.14.502z"/></g><path fill="#DFE3EF" fill-rule="nonzero" d="M139.116 110.626h32.542v33.71h-32.542zM180.893 110.626h32.542v33.71h-32.542z"/><path fill="#2AB875" fill-rule="nonzero" opacity=".2" d="M222.669 110.626h32.542v33.71h-32.542zM264.446 110.626h32.542v33.71h-32.542zM306.223 110.626h32.542v33.71h-32.542z"/><path fill="#2AB875" fill-rule="nonzero" opacity=".1" d="M310.14 117.706l25.951-19.634 20.34 26.883-25.952 19.634z"/><path d="M155.387 114.123a5.435 5.435 0 0 0-5.022 3.354 5.428 5.428 0 0 0 1.18 5.919 5.439 5.439 0 0 0 5.925 1.174 5.43 5.43 0 0 0-2.083-10.447zm3.738 6.89c-.211-.07-.616-.092-.77-.273-.074-.092-.026-.439-.026-.439.279.018.557-.037.81-.158.1-.062.056-.07 0-.158-.287-.48-.16-1.086-.172-1.608a1.318 1.318 0 0 0-.524-1.16 1.655 1.655 0 0 0-.818-.18 1.822 1.822 0 0 0-.66.105c-1.107.44-.44 1.911-.835 2.75-.066.145-.158.194 0 .277.24.102.496.157.757.163v.365c-.031.127-.308.215-.414.246-.15.039-.297.089-.44.149a.105.105 0 0 0 0 .198c.103.016.205.041.304.074.447.117.859.34 1.2.65.312.311.499.726.524 1.165a.325.325 0 0 1-.145.303l-.15.093a.07.07 0 0 1-.11-.062 1.758 1.758 0 0 0-1.196-1.7c-.356-.123-.734-.132-1.086-.255-.11-.035-.321-.084-.365-.202a1.317 1.317 0 0 1-.049-.387v-.299c0-.097.168-.202.203-.263.117-.257.178-.536.18-.818.229.062.255-.356.295-.487.04-.132.132-.545-.066-.616.06-.119.097-.249.11-.382.066-.34.056-.692-.031-1.028a1.623 1.623 0 0 0-1.548-1.081 1.658 1.658 0 0 0-1.658.989 2.16 2.16 0 0 0-.075 1.032c.01.163.052.323.123.47-.167.075-.118.44-.088.558.031.119.08.611.317.545.016.214.05.425.101.633a.905.905 0 0 0 .216.365c.044.052.07.057.066.123.008.209-.008.418-.049.624-.052.197-.488.28-.664.316a3.793 3.793 0 0 0-1.082.303 4.703 4.703 0 0 1-.053-4.705 4.71 4.71 0 0 1 4.05-2.4 4.73 4.73 0 0 1 3.339 1.345 4.669 4.669 0 0 1 1.411 3.352c0 .639-.128 1.271-.378 1.859a1.21 1.21 0 0 0-.585-.396l.03.005z" fill="#FFF" fill-rule="nonzero"/><path fill="#2AB875" fill-rule="nonzero" opacity=".5" d="M155.884 139.028v-6.006l2.77 2.768.69-.717-3.957-3.954-3.958 3.954.695.69 2.77-2.741v6.006zM197.66 139.028v-6.006l2.771 2.768.69-.717-3.957-3.954-3.958 3.954.69.69 2.775-2.741v6.006z"/><path d="M197.318 118.5a.119.119 0 0 0-.19 0l-2.256 2.992a.114.114 0 0 0 .08.189l3.957.342a.114.114 0 0 0 .11-.17l-1.697-3.34-.004-.013zm2.572 1.59a.119.119 0 0 0-.189 0l-.607.615a.105.105 0 0 0 0 .132l.625 1.213a.114.114 0 0 0 .088.057l1.103.092a.114.114 0 0 0 .11-.171l-1.117-1.925-.013-.013zm.268-.97a.58.58 0 1 0-.552-.379.58.58 0 0 0 .552.378z" fill="#FFF" fill-rule="nonzero"/><path d="M202.05 116.79l-1.615-.14-.15-1.644a.668.668 0 0 0-.725-.602l-7.286.66a.664.664 0 0 0-.603.72l.655 7.268a.663.663 0 0 0 .726.597l.382-.03-.035.408a.659.659 0 0 0 .607.716l7.291.637c.367.03.689-.24.721-.606l.643-7.267a.659.659 0 0 0-.607-.717h-.005zm-9.02 4.2a.171.171 0 0 1-.18-.148l-.44-4.904a.162.162 0 0 1 .15-.18l6.846-.615c.09-.006.17.06.18.149l.12 1.296-4.948-.44a.664.664 0 0 0-.721.603l-.365 4.174-.642.062v.004zm8.887-3.325l-.44 4.903a.167.167 0 0 1-.18.15l-.44-.04-6.393-.553a.167.167 0 0 1-.154-.18l.092-1.077.339-3.823a.163.163 0 0 1 .175-.154l4.86.44.725.066 1.267.11a.163.163 0 0 1 .15.158z" fill="#FFF" fill-rule="nonzero"/><path fill="#DFE3EF" fill-rule="nonzero" d="M139.116 177.471h74.318v55.364h-74.318z"/><path d="M184.802 194.475a26.117 26.117 0 0 0-23.661 3.41 26.072 26.072 0 0 0-10.956 21.231 1.85 1.85 0 0 1-3.703 0 29.775 29.775 0 0 1 12.458-24.205 29.827 29.827 0 0 1 26.948-3.977" fill="#2AB875" fill-rule="nonzero"/><path d="M185.888 190.934c12.06 4.124 20.167 15.446 20.18 28.182a1.85 1.85 0 0 1-3.702 0 26.12 26.12 0 0 0-17.564-24.64" fill="#FFF" fill-rule="nonzero"/><path d="M179.02 205.952h-.031a3.242 3.242 0 0 0-2.714 1.485 3.242 3.242 0 0 0-2.713-1.485h-.03a3.226 3.226 0 0 0-3.202 3.225 6.935 6.935 0 0 0 1.367 3.792c1.72 2.351 4.578 4.394 4.578 4.394s2.859-2.056 4.578-4.394a6.934 6.934 0 0 0 1.368-3.792c0-1.77-1.43-3.21-3.202-3.225z" fill="#2AB875" fill-rule="nonzero"/><path fill="#DFE3EF" fill-rule="nonzero" d="M233.931 154.328h112.748v83.779H233.931z"/><path fill="#FFF" fill-rule="nonzero" d="M245.536 217.372h4.617v15.462h-4.617zM254.332 198.232h4.617v34.602h-4.617z"/><path fill="#DFE3EF" fill-rule="nonzero" d="M263.127 180.986h4.617v51.848h-4.617z"/><path fill="#FFF" fill-rule="nonzero" d="M271.922 168.683h4.617v64.152h-4.617z"/><path fill="#2AB875" fill-rule="nonzero" d="M263.127 168.683h4.617v64.152h-4.617zM280.717 197.573h4.617v35.261h-4.617z"/><path fill="#FFF" fill-rule="nonzero" d="M289.512 188.455h4.617v44.379h-4.617zM298.307 174.615h4.617v58.22h-4.617z"/><path fill="#2AB875" fill-rule="nonzero" opacity=".2" d="M307.102 206.91h4.617v25.924h-4.617zM315.897 194.937h4.617v37.898h-4.617zM324.692 180.986h4.617v51.848h-4.617zM333.487 180.986h4.617v51.848h-4.617z"/><path fill="#65617D" fill-rule="nonzero" d="M359.283 146.234l4.52-2.54 2.12 1.27L408.29 348.72l-2.537.483-5.295-4.591z"/><path fill="#000" fill-rule="nonzero" opacity=".1" d="M363.804 143.694l41.948 205.51 2.537-.484-42.366-203.756z"/><path fill="#65617D" fill-rule="nonzero" d="M332.62 154.833l32.244 3.085v2.49l-32.072-2.79zM336.038 185.186h34.19v3.647h-34.63zM339.173 217.012l34.517-1.371 4.318 1.37v2.338l-30.669 1.613h-7.884z"/><path fill="#000" fill-rule="nonzero" opacity=".1" d="M347.78 218.91l30.228-1.898v2.337l-30.669 1.613zM339.173 217.012l8.606 1.898-.44 2.052h-7.884z"/><path fill="#65617D" fill-rule="nonzero" d="M342.3 251.552l38.109-3.532 4.2 1.094v2.438l-34.042 3.573-8.267.733z"/><path fill="#000" fill-rule="nonzero" opacity=".1" d="M350.422 253.073l30.4-3.054 3.787-.905v2.438l-34.042 3.573z"/><path fill="#000" fill-rule="nonzero" opacity=".1" d="M341.79 253.52l8.632-.447.145 2.052-8.267.733z"/><path fill="#65617D" fill-rule="nonzero" d="M344.112 285.904l42.977-5.703 3.685 1.463v2.786l-37.071 5.571h-8.712z"/><path fill="#000" fill-rule="nonzero" opacity=".1" d="M353.703 288.26l37.071-6.596v2.786l-37.071 5.571zM344.626 288.308l9.077-.049v1.762h-8.712z"/><path fill="#65617D" fill-rule="nonzero" d="M346.65 321.275l47.14-8.783 4.174 2.452v1.938L356.6 326.908l-8.527.646z"/><path fill="#000" fill-rule="nonzero" opacity=".1" d="M356.6 324.914l41.364-9.97v1.938L356.6 326.908z"/><path fill="#000" fill-rule="nonzero" opacity=".1" d="M347.577 325.366l9.024-.452v1.994l-8.527.646z"/><path fill="#65617D" fill-rule="nonzero" d="M335.624 141.155l-3.812.848 13.773 219.1 4.024 1.48h3.179z"/><path fill="#000" fill-rule="nonzero" opacity=".1" d="M333.764 141.568l15.845 221.015h3.179l-17.164-221.428z"/><path fill="#FFF" fill-rule="nonzero" d="M314.12 116.33l25.952-19.635 20.34 26.883-25.952 19.634z"/><path fill="#DFE3EF" fill-rule="nonzero" d="M314.12 116.33l25.952-19.635 20.34 26.883-25.952 19.634z"/><path fill="#2AB875" fill-rule="nonzero" opacity=".5" d="M344.908 129.23l-3.624-4.799 3.879.536.118-.988-5.54-.77-.757 5.55.968.137.554-3.858 3.628 4.79z"/><path d="M336.346 118.759a5.1 5.1 0 0 1-5.686.313 5.091 5.091 0 0 1-2.428-5.147.409.409 0 1 1 .81.128 4.274 4.274 0 0 0 2.028 4.33 4.282 4.282 0 0 0 4.779-.257 4.273 4.273 0 0 0 .871-5.775 4.281 4.281 0 0 0-5.709-1.255l.963 1.27a.413.413 0 0 1-.655.496l-1.222-1.612a.413.413 0 0 1 .079-.576 5.104 5.104 0 0 1 7.04 1.065 5.094 5.094 0 0 1-.884 7.06l.014-.04z" fill="#FFF" fill-rule="nonzero"/><path d="M330.211 114.013l3.122-.074a.77.77 0 1 1 .04 1.533.744.744 0 0 1-.246-.035l-2.986-.923a.255.255 0 0 1-.167-.32.26.26 0 0 1 .237-.18z" fill="#FFF" fill-rule="nonzero"/><path d="M369.846 217.723c-.325-1.177-.536-2.196-.536-2.196a4.628 4.628 0 0 0-.603-2.246v-.325l-.092-2.39c.15-.44.336-.866.558-1.274.4-.77-.136-3.516-.136-3.516s-1.76-3.822-1.451-6.3c.308-2.479-3.703-10.81-3.703-10.81-.01-.818.074-1.635.25-2.434.033-.168.042-.34.027-.51a.29.29 0 0 0 0-.061c-.119-1.621-1.521-4.618-1.521-4.618l-.049-5.809s.686-3.454-.827-7.992a42.09 42.09 0 0 1-1.108-3.84c-.026-.11-.048-.22-.07-.322 2.735-.527 4.837-.957 4.837-.957s-1.856-6.618-2.981-7.743c-1.126-1.124-2.129-4.767-2.129-4.767s-.743-4.697.11-6.112.88-3.796.88-3.796 2.014-1.582 2.247-2.259c.33-.966.523-1.973.576-2.992-.03-.791-.317-1.494-.246-1.911.07-.418-.682-1.982-.365-2.747.082-.234.119-.481.11-.729v-.022a10.23 10.23 0 0 0-.255-1.95 5.591 5.591 0 0 0-2.094-1.02l-.052-.176-.137-.466a1.905 1.905 0 0 0-.206-.11v-.171l-.044-.677.268-1.538c.532-2.675-3.021-2.935-3.021-2.935a1.869 1.869 0 0 0-1.069-.843c-.721-.224.035 3.99.378 4.249a16.05 16.05 0 0 1 1.482 2.13l.062.106a1.516 1.516 0 0 0-.154.176l.171.914.027.14c-.225.3-.403.632-.528.985.382.397.59.93.576 1.48a4.742 4.742 0 0 0 .282 1.828c-.04-.04-.515-.518-.963-.378-.449.141-1.707.567-1.707.567s-.945.202-.848.409c.096.206-.603 1.151-.603 1.151l-2.638-2.316c-.027-.074-.058-.145-.084-.22a6.064 6.064 0 0 1-.26-1.045c.275-.08.544-.178.805-.294.266-.102.503-.266.69-.48.2-.34.325-.719.366-1.111.242-.736.536-1.454.88-2.149.479-1.21.606-2.53.364-3.81a2.53 2.53 0 0 0-.44-1.093c-.44-.554-1.204-.76-1.759-1.195-.554-.435-.945-1.12-1.6-1.437a3.054 3.054 0 0 0-1.944-.093c-1.28.267-2.499.77-3.593 1.486a1.848 1.848 0 0 1-1.191.439 1.627 1.627 0 0 1-.88-.606v-.035l-.026-.036c-.25.61-.361 1.267-.326 1.925 0 .1.009.2.027.303a.852.852 0 0 0 0 .106.645.645 0 0 1 0 .092.75.75 0 0 1 0 .136.989.989 0 0 1-.23.352 2.197 2.197 0 0 0-.193.29.953.953 0 0 1 .031-.106 1.528 1.528 0 0 0-.237.817.83.83 0 0 0 .215.567c.136.12.283.226.44.317a4.58 4.58 0 0 0-.044.852 4.93 4.93 0 0 0 2.564 4.117c.035.07.066.14.097.215.402.863.598 1.808.571 2.76 0 .07 0 .136-.026.206l-.088.11s-4.209.202-5.238-.659c-1.029-.861-2.418 2.29-2.418 2.29s-1.5.35-1.812.07c-.312-.282-2.076.04-2.076.04a3.815 3.815 0 0 0-2.669-.88 7.817 7.817 0 0 0-1.974-.997h-.053a2.2 2.2 0 0 0-.955-.084s-2.137-1.63-2.779-2.526c-.642-.896-3.645-4.192-3.663-4.205v-.163l-.053-.496a1.51 1.51 0 0 1-.26.03l-.06-.166a9.11 9.11 0 0 0-.67-1.38s0-.628.155-.791c.154-.163-.172-2.452-.172-2.452s-2.031-4.288-3.58-.966c0 0-3.078 2.227-.334 4.578 0 0 1.078.47 1.245.879.11.263.497.984.756 1.463l.12.215-.032.027.057.408v.158c-.488.304-.813.598-.725.809.162.354.279.728.347 1.112 0 0 3.848 4.45 4.398 6.397 0 0 10.066 5.466 13.32 5.76l-.44 2.94s-.105 1.758-.04 2.386c.067.628-.254 3.48-.254 3.48s-.4 4.196-.854 4.798c-.452.602-.268 3.107-.268 3.107a21.044 21.044 0 0 1-.51 3.572 9.08 9.08 0 0 0 0 3.555s-1.495 3.818 2.335 1.12c0 0 1.926-.193 4.143-.356v1.143c.052 2.153.154 5.119.338 7.36.326 3.954 1.838 11.762 1.838 11.762l.15 3.955a5.708 5.708 0 0 0-.07 1.133 7.33 7.33 0 0 0 1.213 3.907l.405 2.636s.778 1.705.831 2.737c0 .086-.008.171-.022.255-.017.134-.017.27 0 .404 0 1.196.836 4.025.836 4.025s.153 2.878.593 3.028c.44.15-.44 1.678-.673 2.122v-.08l-.048.089c-.08.236-.117.484-.11.734-.032.403.17.788.519.993.84.47 1.297.878.607 1.063-.254.05-.505.113-.752.189 0-.03-.03-.066-.04-.092a.44.44 0 0 0-.268.514c.022.34.123.671.295.966.335.74.756 1.44 1.253 2.083l.33-.048a1.652 1.652 0 0 1-.18.364c-.12.182-.281.333-.471.44a1.593 1.593 0 0 1-.58.228 1.65 1.65 0 0 0-1.201.642c-.409.571-.65 1.34.224 1.973l3.131.944s5.308.431 5-.742a77.599 77.599 0 0 1-.54-2.197 4.764 4.764 0 0 0-.51-2.096 2.794 2.794 0 0 0-.203-.303l.19-.027s.285-2.636.782-3.168c.119-.118.14-.21.11-.276.048-.145-.093-.225-.268-.264 0 .035-.022.066-.031.105a2.64 2.64 0 0 0-.52-.04s-.223-1.37.317-1.893a.527.527 0 0 0 .093-.413 2.226 2.226 0 0 0-.08-.558.11.11 0 0 0 0 .03 20.423 20.423 0 0 0-1.367-3.185s-.088-1.252.238-1.757c.325-.506-.308-6.802-.308-6.802s0-3.054-.44-4.46c-.44-1.406.356-3.107.356-3.107v-.087s-.026-.19-.07-.48v.031c-.119-.804-.339-2.258-.488-2.93-.207-.954-.167-5.554-.167-5.554l.699-1.99 1.512 3.325 1.64 4.451c.44.544.723 1.198.819 1.89v.14a2.349 2.349 0 0 0 0 .304 2.7 2.7 0 0 0 .51 1.59s.47 2.114 1.095 2.637c.404.423.64.98.664 1.564 0 0 .853 3.076 1.218 3.59.312.44.374 1.705.387 2.087v.114s.14 1.099.176 2.03v.303c-.008.236-.04.47-.097.699a.158.158 0 0 0 0 .044v-.158a7.824 7.824 0 0 0-.145 1.933c.022 1.112.242 2.421.945 3.168 1.219 1.292 1.944 1.094 1.944 1.094s-.497 1.692-1.174 2.052a.268.268 0 0 0-.07.053.988.988 0 0 1 0-.097.8.8 0 0 0-.18.628c.064.892.395 1.743.95 2.443.17.154.375.263.597.317l-.105.07a1.76 1.76 0 0 1-.233.123c-.112.052-.23.088-.352.106-.474.032-.91.265-1.2.641-.405.571-.647 1.34.228 1.973l3.127.945s5.312.483 4.982-.695z" fill="url(#b)" fill-rule="nonzero"/><path d="M349.644 220.474l-3.03-.949c-.849-.633-.616-1.402-.22-1.973.276-.372.7-.606 1.161-.641a1.39 1.39 0 0 0 .563-.224c.18-.11.33-.26.44-.44.205-.354.307-.76.294-1.169 0 0 3.246-1.085 4.178-.158.175.165.324.356.44.567.32.651.49 1.366.497 2.091 0 0 .21 1.037.527 2.197.317 1.16-4.85.7-4.85.7zM364.213 218.462l-3.03-.95c-.849-.637-.616-1.405-.224-1.972a1.57 1.57 0 0 1 1.16-.642c.119-.015.234-.05.34-.105.077-.035.152-.074.223-.119.818-.492.757-1.621.757-1.621s3.24-1.086 4.178-.158c.125.124.236.263.33.413.378.69.58 1.462.589 2.25 0 0 .206 1.036.523 2.196.317 1.16-4.846.708-4.846.708z" fill="#2D293D" fill-rule="nonzero"/><path d="M353.056 214.911c.176.165.324.356.44.567l-4.894.76c.205-.354.307-.759.294-1.168 0 0 3.22-1.086 4.16-.159zM367.946 213.29l.036.918c-.717 1.292-4.424 1.156-5.524.567.078-.034.153-.074.224-.118.818-.493.757-1.622.757-1.622s3.24-1.085 4.178-.158c.125.125.236.263.33.413z" fill="#000" fill-rule="nonzero" opacity=".1"/><path d="M368.377 209.305c-.213.409-.393.835-.536 1.274l.127 3.295c-.782 1.41-5.145 1.12-5.76.391-.616-.729-1.32-2.667-.66-3.027.66-.36 1.134-2.052 1.134-2.052s-.703.198-1.882-1.098c-1.178-1.297-.958-4.267-.778-4.988.18-.72-.119-3.075-.119-3.075s-.022-1.67-.378-2.197c-.356-.528-1.183-3.59-1.183-3.59a2.46 2.46 0 0 0-.646-1.564c-.607-.519-1.065-2.637-1.065-2.637a2.758 2.758 0 0 1-.488-1.757c.088-1.05-.791-2.145-.791-2.145l-1.597-4.455-1.464-3.33-.677 1.99s-.035 4.6.171 5.554c.207.953.554 3.493.554 3.493s-.773 1.7-.343 3.106c.431 1.407.44 4.456.44 4.456s.62 6.292.304 6.802c-.317.51-.225 1.757-.225 1.757s1.856 3.608 1.32 4.13c-.537.524-.304 1.894-.304 1.894s1.17-.048.686.475c-.483.523-.756 3.164-.756 3.164l-5.03.777a10.675 10.675 0 0 1-1.215-2.082c-.725-1.52.075-1.384.74-1.578.663-.193.223-.593-.59-1.063-.814-.47-.396-1.617-.396-1.617s1.135-2.092.708-2.241c-.426-.15-.576-3.032-.576-3.032s-.967-3.388-.792-4.315c.176-.927-.791-3.106-.791-3.106l-.391-2.637a7.228 7.228 0 0 1-1.113-4.93l-.154-4.05s-1.473-7.804-1.794-11.763c-.202-2.536-.308-6.002-.356-8.169a206.567 206.567 0 0 1-.036-2.017l17.978-2.583c.065.9.212 1.793.44 2.667.22.984.558 2.254 1.072 3.84 1.474 4.544.81 7.997.81 7.997l.057 5.809s1.759 3.823 1.455 5.167c-.169.8-.25 1.617-.242 2.435 0 0 3.879 8.348 3.598 10.817-.282 2.47 1.411 6.301 1.411 6.301s.515 2.738.123 3.507z" fill="#30374E" fill-rule="nonzero"/><path d="M357.22 187.95l5.467-.94s-2.99 3.29-5.466.94z" fill="#000" fill-rule="nonzero" opacity=".05"/><path d="M361.684 181.676s.264 1.933-.88 2.71c-.017 0 2.098-.417.88-2.71zM361.113 175.51s-4.45 3.955-6.13 3.705c-1.68-.25 6.13-3.704 6.13-3.704zM350.48 189.989s-3.457.927-3.519 2.329c-.061 1.401 3.518-2.33 3.518-2.33z" fill="#000" fill-rule="nonzero" opacity=".1"/><path d="M351.917 207.367s-4.894 1.107-3.47 1.678a23.89 23.89 0 0 0 3.739.985s1.591.022-.269-2.663z" fill="#000" fill-rule="nonzero" opacity=".05"/><g opacity=".05" fill="#000" fill-rule="nonzero"><path d="M347.489 210.078a.971.971 0 0 1-.48-.699l-.048.093s-.413 1.142.4 1.612l.264.163c.145-.035.304-.062.44-.106.677-.193.238-.588-.576-1.063zM353.826 209.498c.132-.127.114-.44 0-.879a2.353 2.353 0 0 0-.233 1.217.993.993 0 0 1 .233-.338zM352.27 188.759a5.708 5.708 0 0 0-.278 1.55c.082-.366.196-.725.343-1.071l-.066-.48zM363.47 186.135c.027-.152.037-.306.03-.46a10.3 10.3 0 0 0-.105.878c.022-.167.048-.281.075-.418zM352.722 203.606c.082-.304.111-.619.088-.932a3.2 3.2 0 0 0-.198 1.178c.027-.086.064-.169.11-.246zM354.059 211.431a16.276 16.276 0 0 0-.475 2.588l-5.03.778a10.675 10.675 0 0 1-1.215-2.083 5.429 5.429 0 0 1-.158-.364c-.294.15-.404.47.031 1.37.322.741.73 1.442 1.214 2.088l5.026-.782s.277-2.637.756-3.164c.238-.25.075-.37-.15-.43zM347.093 204.199s.154 2.878.58 3.027c.194-.487.317-.944.128-1.01-.44-.154-.576-3.032-.576-3.032s-.967-3.388-.796-4.315c.172-.927-.787-3.106-.787-3.106l-.396-2.637a7.219 7.219 0 0 1-1.108-4.934l-.158-4.047s-1.473-7.804-1.79-11.763c-.207-2.535-.308-6.002-.356-8.168 0-.391 0-.738-.022-1.028h-.145s0 .804.035 2.021c.048 2.162.154 5.629.356 8.164.321 3.955 1.794 11.763 1.794 11.763l.154 4.05a7.228 7.228 0 0 0 1.135 4.97l.391 2.637s.963 2.197.792 3.106c-.172.91.77 4.302.77 4.302zM362.335 213.145a4.915 4.915 0 0 1-.88-1.955c-.5.487.163 2.271.748 2.961s4.974 1.024 5.757-.386l-.031-.796c-1.082 1.16-5.013.866-5.594.176zM368.505 208.184a7.822 7.822 0 0 0-.537 1.274l.022.585c.115-.29.244-.575.387-.853.119-.333.167-.688.141-1.04l-.013.034zM362.436 209.076c.147-.328.272-.666.374-1.01 0 0-.704.197-1.887-1.099-.857-.94-.971-2.772-.879-3.954-.185.716-.405 3.695.774 4.987.752.821 1.315 1.032 1.618 1.076zM359.899 199.902c.106.819.166 1.643.18 2.47 0-.164.049-.295.07-.392.185-.716-.118-3.076-.118-3.076s-.027-1.67-.378-2.197c-.352-.527-1.188-3.59-1.188-3.59a2.455 2.455 0 0 0-.646-1.564c-.603-.518-1.06-2.636-1.06-2.636a2.71 2.71 0 0 1-.488-1.758c.083-1.05-.796-2.144-.796-2.144l-1.592-4.455-1.469-3.331-.677 1.955v.637l.55-1.617 1.468 3.331 1.592 4.451s.88 1.094.796 2.144a2.727 2.727 0 0 0 .484 1.758s.44 2.113 1.064 2.636c.394.427.623.98.647 1.56 0 0 .83 3.076 1.183 3.594.351.519.378 2.224.378 2.224z"/></g><path d="M360.449 122.964l-.256 1.533.044.681.036.497-1.737.246-.211-.352a15.483 15.483 0 0 0-1.434-2.135c-.334-.26-1.073-4.473-.374-4.249.428.146.787.445 1.007.84 0 0 3.448.263 2.925 2.939z" fill="#FFCDD3" fill-rule="nonzero"/><path d="M360.273 125.675l-1.737.246-.211-.352a1.536 1.536 0 0 1 1.912-.39l.036.496z" fill="#000" fill-rule="nonzero" opacity=".1"/><path d="M360.743 126.483l-2.278.624-.061-.342-.167-.914a1.588 1.588 0 0 1 2.198-.391l.132.465.176.558z" fill="#DCE6F2" fill-rule="nonzero"/><path d="M323.377 124.554l-2.4 1.41-.243-.439c-.25-.478-.628-1.203-.734-1.463-.163-.4-1.205-.879-1.205-.879-2.665-2.355.317-4.578.317-4.578 1.495-3.317 3.47.971 3.47.971s.338 2.29.166 2.452c-.171.162-.15.79-.15.79.254.442.47.903.647 1.38.088.233.132.356.132.356z" fill="#FFCDD3" fill-rule="nonzero"/><path d="M323.377 124.554l-2.4 1.41-.243-.439c.335-.303 1.526-1.344 1.93-1.318.194.017.388.017.581 0 .088.224.132.347.132.347z" fill="#000" fill-rule="nonzero" opacity=".1"/><path d="M323.654 125.31l-2.7 1.441-.074-.593-.058-.404s1.548-1.432 2.019-1.397c.24.026.483.015.721-.031l.053.496.04.488z" fill="#DCE6F2" fill-rule="nonzero"/><path d="M354.156 133.342s-11.97 1.82-9.754 1.002c1.548-.567 2.128-1.586 2.199-2.693a6.31 6.31 0 0 0-.554-2.764c-.312-.747-.7-1.46-1.157-2.127 0 0 8.997-5.404 7.335-.742a7.398 7.398 0 0 0-.44 2.197c-.026.745.083 1.49.321 2.197a6.59 6.59 0 0 0 2.05 2.93z" fill="#FFCDD3" fill-rule="nonzero"/><path d="M352.243 126.018a7.398 7.398 0 0 0-.44 2.197c-.836.76-1.79.747-3.008.795-.937.035-1.966.303-2.73-.123-.312-.747-.7-1.46-1.157-2.127 0 0 8.997-5.404 7.335-.742z" fill="#000" fill-rule="nonzero" opacity=".1"/><ellipse fill="#FFCDD3" fill-rule="nonzero" cx="348.456" cy="124.365" rx="4.974" ry="4.97"/><path d="M354.156 133.342s-11.97 1.82-9.754 1.002c1.548-.567 2.128-1.586 2.199-2.693.576-.668 1.759-1.182 2.524-1.464a3.613 3.613 0 0 1 2.177-.118c.283.074.554.188.804.338a6.59 6.59 0 0 0 2.05 2.935zM360.743 126.483l-2.278.624-.061-.342a2.032 2.032 0 0 1 2.198-.84l.141.558zM323.654 125.31l-2.7 1.441-.074-.593a20.443 20.443 0 0 1 2.735-1.318l.04.47zM360.092 163.432c-4.63.914-11.218 2.127-12.282 1.845-.88-.232-3.668-.096-6.09.08a206.567 206.567 0 0 1-.036-2.017l17.969-2.575c.065.9.212 1.793.44 2.667z" fill="#000" fill-rule="nonzero" opacity=".1"/><path d="M364.679 162.162s-15.233 3.22-16.9 2.781c-1.666-.439-10.114.44-10.114.44-3.703 2.693-2.26-1.125-2.26-1.125a9.281 9.281 0 0 1 0-3.555c.266-1.177.434-2.375.5-3.58 0 0-.18-2.5.256-3.103.435-.602.818-4.798.818-4.798s.308-2.856.246-3.48c-.061-.624.03-2.386.03-2.386l.44-2.94c-3.148-.298-12.897-5.778-12.897-5.778-.537-1.942-4.266-6.397-4.266-6.397a4.707 4.707 0 0 0-.334-1.116c-.277-.66 3.43-2.14 3.43-2.14s2.933 3.317 3.553 4.214c.62.896 2.691 2.526 2.691 2.526.31-.043.627-.013.924.088a.198.198 0 0 1 .048 0c.683.24 1.328.577 1.913 1.002a3.625 3.625 0 0 1 2.582.879s1.706-.317 2.01-.035c.303.28 1.758-.066 1.758-.066s1.342-3.146 2.34-2.285c.998.861 5.07.663 5.07.663.515-.742 1.816-1.318 2.639-1.612a3.618 3.618 0 0 1 2.176-.119c.313.076.61.206.88.382l2.564 2.325s.677-.945.585-1.151c-.093-.207.822-.405.822-.405s1.196-.439 1.649-.566c.453-.128.88.338.937.377a4.83 4.83 0 0 1-.282-1.823 2.086 2.086 0 0 0-.558-1.485c1.319-3.647 4.74-.77 4.74-.77s.44 1.952.145 2.716c-.294.765.44 2.325.357 2.742-.084.418.21 1.12.241 1.916a11.38 11.38 0 0 1-.554 2.988c-.224.68-2.172 2.258-2.172 2.258s-.03 2.386-.88 3.797c-.848 1.41-.1 6.107-.1 6.107s.98 3.643 2.066 4.772c1.086 1.13 2.907 7.742 2.907 7.742z" fill="#2AB875" fill-rule="nonzero"/><path d="M341.27 135.552s-.514-1.357-.936-1.467a9.877 9.877 0 0 1-1.231-.497l.25-.523s1.584.37 1.852.818c.268.448.066 1.67.066 1.67zM332.757 132.828c-.07.44-3.773.94-3.773.94l1.808-1.955h.048a7.438 7.438 0 0 1 1.917 1.015z" fill="#000" fill-rule="nonzero" opacity=".1"/><ellipse fill="#575988" fill-rule="nonzero" cx="362.515" cy="127.863" rx="1" ry="1"/><ellipse fill="#575988" fill-rule="nonzero" cx="362.581" cy="128.478" rx="1" ry="1"/><ellipse fill="#575988" fill-rule="nonzero" cx="362.643" cy="129.089" rx="1" ry="1"/><path d="M341.728 146.867c-.044-.049 9.833 11.472 16.882 4.323 0 0-11.495 2.013-16.882-4.323zM336.552 153.251s5.642-.061 6.298 1.534l.061 1.687a1.07 1.07 0 0 1-1.046.04c-.58-.286-4.055-1.885-5.225-1.007l-.088-2.254z" fill="#000" fill-rule="nonzero" opacity=".1"/><path d="M339.16 140.904a18.075 18.075 0 0 0 2.33 3.665 14.693 14.693 0 0 0 3.55 3.168s-5.757-6.06-5.88-6.833zM337.062 134.432s1.1 4.02 3.576 5.303l-3.576-5.303zM335.638 134.898c-.027-.075-.713 3.238 3.315 4.903 0 .01-1.701-.505-3.315-4.903zM360.14 131.233c-.06 0 2.006 1.209 2.573 1.758.018.022-1.385-1.89-2.572-1.758z" fill="#000" fill-rule="nonzero" opacity=".1"/><path d="M347.282 128.922c.052.262.2.495.414.655.15.064.312.094.475.088 1.517.035 3.1.04 4.476-.598.259-.103.488-.267.669-.479.195-.341.317-.72.356-1.112.225-.735.504-1.454.835-2.148a7.104 7.104 0 0 0 .348-3.805 2.6 2.6 0 0 0-.44-1.095c-.44-.558-1.165-.764-1.715-1.2-.55-.434-.919-1.12-1.552-1.44a2.9 2.9 0 0 0-1.882-.093 9.92 9.92 0 0 0-3.452 1.446c-.318.283-.728.44-1.153.44a1.61 1.61 0 0 1-.88-.624 4.584 4.584 0 0 0-.285 2.175c.018.109.018.22 0 .33a.989.989 0 0 1-.22.35c-.356.44-.563 1.143-.176 1.57.167.184.44.28.585.465.29.338.216.844.229 1.292a.65.65 0 0 0 .123.44c.17.147.406.194.62.122.21-.07.43-.1.65-.088.237.07.443.218.586.418a7.717 7.717 0 0 1 1.39 2.891z" fill="#2D293D" fill-rule="nonzero"/><g opacity=".1" fill="#000" fill-rule="nonzero"><path d="M353.465 128.201a1.697 1.697 0 0 1-.664.48c-1.38.636-2.96.628-4.48.592a1.012 1.012 0 0 1-.471-.087 1.032 1.032 0 0 1-.414-.655 7.783 7.783 0 0 0-1.38-2.891 1.077 1.077 0 0 0-.585-.413 1.668 1.668 0 0 0-.651.088.656.656 0 0 1-.62-.123.676.676 0 0 1-.128-.44c0-.44.066-.953-.229-1.292-.162-.189-.413-.28-.584-.47a.975.975 0 0 1-.132-.993 1.146 1.146 0 0 0 0 1.318c.171.185.44.277.585.466.294.338.22.844.228 1.292a.676.676 0 0 0 .128.44c.17.148.406.195.62.122.21-.07.43-.1.65-.088.237.07.442.218.585.418a7.73 7.73 0 0 1 1.381 2.887c.049.264.197.5.414.659.148.064.309.094.47.088 1.522.035 3.078.04 4.481-.598.258-.102.487-.266.664-.479.091-.123.16-.262.203-.409l-.07.088zM343.514 121.356a.68.68 0 0 0 .14-.26.878.878 0 0 0 0-.325 4.64 4.64 0 0 1 .163-1.806l-.026-.03a4.588 4.588 0 0 0-.29 2.175c.013.08.017.163.013.246z"/></g><path d="M346.513 131.967s6.244.584 6.763-.374M358.487 128.935s3.452-.132 4.261 1.134" fill="#000" fill-rule="nonzero" opacity=".1"/><path fill="#FFF" fill-rule="nonzero" d="M364.913 282.354l32.542.052-.052 33.71-32.542-.052z"/><path fill="#FFF" fill-rule="nonzero" d="M364.913 282.354l32.542.052-.052 33.71-32.542-.052z"/><path fill="#2AB875" fill-rule="nonzero" opacity=".5" d="M381.614 311.27v-6.002l2.766 2.773.695-.716-3.958-3.955-3.958 3.955.69.69 2.775-2.738v6.007z"/><path d="M375.73 290.935h5.396v-5.387h-.387a5.02 5.02 0 0 0-5.022 5.014c0 .118.004.255.013.373z" fill="#DFE3EF" fill-rule="nonzero"/><path d="M377.595 294.477a5.025 5.025 0 0 0 5.989 1.432 5.017 5.017 0 0 0-1.689-9.574v5.374h-5.391a4.998 4.998 0 0 0 1.09 2.768z" fill="#DFE3EF" fill-rule="nonzero"/><path d="M121 90.5c1.936 0 3.5-1.522 3.5-3.393 0-2.88-2.064-8.607-3.5-8.607-.659 0-1.52 1.187-2.269 3.174-.708 1.881-1.231 4.283-1.231 5.433 0 1.87 1.564 3.393 3.5 3.393z" stroke="#40CB89"/><path d="M94.455 55.82c-2.837 5.853-7.476 12.518-12.722 9.97-5.247-2.549-9.165-13.34-6.328-19.193 2.836-5.853 9.402-8.537 14.679-5.989 5.277 2.549 7.212 9.355 4.37 15.212z" fill="#2AB875" fill-rule="nonzero"/><path d="M83.228 69.507s-1.025-.167-.633-1.015c.034-.075.075-.147.123-.215.157-.24.27-.507.334-.787.025-.098.044-.198.057-.298a3.995 3.995 0 0 0-.048-1.363l2.792-.184s-1.086.927-.959 1.406c.02.07.066.132.128.171.057.037.12.063.185.08.071.015.142.036.21.06.735.256.44.63.44.63-.11 1.186-2.63 1.515-2.63 1.515z" fill="#2AB875" fill-rule="nonzero"/><path d="M85.022 67.21l-1.97.267c.025-.098.044-.198.057-.299.497 0 1.284-.092 1.785-.14.02.07.066.132.128.171z" fill="#444053" fill-rule="nonzero"/><path d="M83.228 69.507s-1.025-.167-.633-1.015a3.08 3.08 0 0 0 1.209.048 2.687 2.687 0 0 0 1.614-1.177c.734.255.44.628.44.628-.11 1.187-2.63 1.516-2.63 1.516z" fill="#2AB875" fill-rule="nonzero"/><path d="M83.228 69.507s-1.025-.167-.633-1.015a3.08 3.08 0 0 0 1.209.048 2.687 2.687 0 0 0 1.614-1.177c.734.255.44.628.44.628-.11 1.187-2.63 1.516-2.63 1.516z" fill="#000" fill-rule="nonzero" opacity=".1"/><path d="M84.719 41.21s-3.123-.373-4.007 1.7c.375-.06.757-.037 1.122.067.229.103.479.151.73.14a4.185 4.185 0 0 1 2.155-1.907z" fill="#FFF" fill-rule="nonzero" opacity=".1"/><path d="M78.518 83.673a8.046 8.046 0 0 1-1.759 1.459c-.18.114-.37.228-.563.334-4.973 2.733-13.764 2.781-17.885-.848-3.847-3.388-5.176-8.467-3.68-12.62a9.573 9.573 0 0 1 1.838-3.102c3.126-3.541 8.355-4.262 12.836-2.126.398.187.784.396 1.157.628.18.105.36.224.536.343.461.31.902.648 1.32 1.015.228.202.44.408.69.62l.057.052a34.359 34.359 0 0 1 3.9 4.148c.361.461.704.927 1.008 1.402.215.325.44.654.607.984a8.65 8.65 0 0 1 1.292 4.394c0 .14 0 .281-.03.44v.065a4.87 4.87 0 0 1-.484 1.613c-.227.434-.51.837-.84 1.2z" fill="#2AB875" fill-rule="nonzero"/><path d="M78.518 83.673a8.046 8.046 0 0 1-1.759 1.459c-.18.114-.37.228-.563.334-4.973 2.733-13.764 2.781-17.885-.848-3.847-3.388-5.176-8.467-3.68-12.62a9.573 9.573 0 0 1 1.838-3.102c3.126-3.541 8.355-4.262 12.836-2.126.398.187.784.396 1.157.628.18.105.36.224.536.343.461.31.902.648 1.32 1.015.228.202.44.408.69.62l.057.052a34.359 34.359 0 0 1 3.9 4.148c.361.461.704.927 1.008 1.402.215.325.44.654.607.984a8.65 8.65 0 0 1 1.292 4.394c0 .14 0 .281-.03.44v.065a4.87 4.87 0 0 1-.484 1.613c-.227.434-.51.837-.84 1.2z" fill="#000" fill-rule="nonzero" opacity=".1"/><path d="M80.501 82.856a2.31 2.31 0 0 0-.277-.136c.097-.409.216-1.028.3-1.507 0-.036 0-.066.021-.101.022-.036 0-.102.027-.145a.321.321 0 0 0 .193-.08l-.04.3v.118l-.224 1.55z" fill="#444053" fill-rule="nonzero"/><path d="M100.383 65.495c-2.375 1.525-5.115 3.002-7.718 3.784-2.001.61-3.918.8-5.523.29a4.992 4.992 0 0 1-1.874-1.077 5.573 5.573 0 0 1-.945-1.125c-1.86-2.904-1.825-8.01-.352-12.435 1.025-3.075 2.735-5.8 4.982-7.236 5.48-3.516 12.48-2.378 15.638 2.54 3.157 4.916 1.27 11.749-4.208 15.26z" fill="#2AB875" fill-rule="nonzero"/><path d="M100.383 65.495c-2.375 1.525-5.115 3.002-7.718 3.784-2.001.61-3.918.8-5.523.29a4.992 4.992 0 0 1-1.874-1.077 5.573 5.573 0 0 1-.945-1.125c-1.86-2.904-1.825-8.01-.352-12.435 1.025-3.075 2.735-5.8 4.982-7.236 5.48-3.516 12.48-2.378 15.638 2.54 3.157 4.916 1.27 11.749-4.208 15.26z" fill="#000" fill-rule="nonzero" opacity=".1"/><path d="M86.68 71.37c-.704.98-3.017-.066-3.017-.066s-.787-.68 0-1.195c.07-.045.144-.084.22-.119.259-.125.495-.293.7-.496.07-.075.14-.15.202-.229a3.928 3.928 0 0 0 .668-1.186l2.48 1.318a5.628 5.628 0 0 0-.778.19c-.356.113-.708.285-.774.509a.277.277 0 0 0 0 .21.523.523 0 0 0 .119.163c.05.052.1.106.145.163.497.584.035.738.035.738z" fill="#2AB875" fill-rule="nonzero"/><path d="M86.385 70.29l-1.816-.783c.07-.075.14-.15.202-.228.44.241 1.144.593 1.597.813a.277.277 0 0 0 .017.197z" fill="#444053" fill-rule="nonzero"/><path d="M86.68 71.37c-.704.98-3.017-.066-3.017-.066s-.787-.68 0-1.195c.291.287.634.515 1.012.672.659.204 1.371.145 1.987-.167.48.602.018.756.018.756z" fill="#2AB875" fill-rule="nonzero"/><path d="M86.68 71.37c-.704.98-3.017-.066-3.017-.066s-.787-.68 0-1.195c.291.287.634.515 1.012.672.659.204 1.371.145 1.987-.167.48.602.018.756.018.756z" fill="#000" fill-rule="nonzero" opacity=".1"/><g opacity=".1" fill="#000" fill-rule="nonzero"><path d="M50.849 63.514c-.2.32-.323.683-.36 1.059-1.76-1.402-.568-4.31-.568-4.31.1.983.546 1.9 1.258 2.587a1.564 1.564 0 0 1-.33.664zM73.201 68.453l.572-2.733c.116.237.248.466.396.685a4.931 4.931 0 0 1-.528 2.1 4.12 4.12 0 0 0-.44-.052z"/><path d="M75.646 69.613a1.108 1.108 0 0 1-.175-.176 2.546 2.546 0 0 0-.669-.532 3.806 3.806 0 0 0-1.157-.4 4.12 4.12 0 0 0-.44-.052l.572-2.733c.116.237.249.466.396.685.203.308.462.606.704.61a.3.3 0 0 0 .193-.078.488.488 0 0 0 .128-.159l.114-.184c.44-.633.721-.237.721-.237 1.13.408.766 2.917.766 2.917s-.445.945-1.153.339z"/><path d="M74.802 68.905a3.235 3.235 0 0 0-.277-.136c.114-.483.255-1.261.347-1.758a.3.3 0 0 0 .194-.079l-.264 1.973zM75.646 69.613c.196-.357.321-.748.37-1.152.013-.69-.24-1.359-.708-1.867.44-.633.721-.237.721-.237 1.13.408.765 2.917.765 2.917s-.44.945-1.148.339z"/><path d="M75.646 69.613c.196-.357.321-.748.37-1.152.013-.69-.24-1.359-.708-1.867.44-.633.721-.237.721-.237 1.13.408.765 2.917.765 2.917s-.44.945-1.148.339zM50.506 64.573c-1.76-1.402-.568-4.31-.568-4.31.101.983.547 1.9 1.258 2.587a1.564 1.564 0 0 1-.33.664c-.2.32-.323.683-.36 1.059z"/></g><path d="M73.18 69.182l-.176.193a8.068 8.068 0 0 1-1.584 1.266l-.167.105c-.127.08-.26.154-.391.229-4.305 2.364-11.464 2.72-15.985.44a8.94 8.94 0 0 1-1.9-1.266c-4.886-4.302-5.717-11.341-1.847-15.726 3.131-3.542 8.355-4.262 12.841-2.123a13.083 13.083 0 0 1 3.004 1.964 36.254 36.254 0 0 1 4.648 4.834c.286.365.558.734.809 1.103.07.096.132.202.198.299.123.18.237.364.347.549.11.184.172.294.255.44a8.603 8.603 0 0 1 1.297 4.393 4.931 4.931 0 0 1-.527 2.1c-.22.435-.497.838-.823 1.2z" fill="#2AB875" fill-rule="nonzero"/><path d="M76.011 69.068a1.108 1.108 0 0 1-.175-.176 2.458 2.458 0 0 0-.669-.532 3.806 3.806 0 0 0-1.157-.4 4.12 4.12 0 0 0-.44-.052l.572-2.733c.116.237.249.466.396.685.203.308.462.607.704.61a.321.321 0 0 0 .193-.078.54.54 0 0 0 .128-.158c.04-.07.079-.132.114-.185.44-.637.721-.237.721-.237 1.13.408.766 2.917.766 2.917s-.449.95-1.153.339z" fill="#2AB875" fill-rule="nonzero"/><path d="M75.163 68.365a2.31 2.31 0 0 0-.277-.137c.114-.483.255-1.26.347-1.757a.321.321 0 0 0 .194-.08l-.264 1.974z" fill="#444053" fill-rule="nonzero"/><path d="M76.011 69.068c.196-.357.321-.748.37-1.151.013-.69-.24-1.36-.708-1.868.44-.637.721-.237.721-.237 1.13.408.765 2.917.765 2.917s-.444.95-1.148.339z" fill="#2AB875" fill-rule="nonzero"/><path d="M76.011 69.068c.196-.357.321-.748.37-1.151.013-.69-.24-1.36-.708-1.868.44-.637.721-.237.721-.237 1.13.408.765 2.917.765 2.917s-.444.95-1.148.339z" fill="#000" fill-rule="nonzero" opacity=".1"/><g opacity=".1" fill="#000" fill-rule="nonzero"><path d="M68.272 40.12a1.54 1.54 0 0 1-.739.106c-.377.018-.745.12-1.077.299.162-2.25 3.245-2.9 3.245-2.9a4.191 4.191 0 0 0-1.43 2.495zM72.63 60.486c.215.326.417.655.602.989a10.062 10.062 0 0 1-1.222-.527c-3.158-1.595-6.289-5.005-8.039-8.665a12.92 12.92 0 0 1 3.003 1.982 36.254 36.254 0 0 1 4.649 4.833c.36.448.699.914 1.007 1.388zM78.303 61.093a5.029 5.029 0 0 1-2.032.755 3.198 3.198 0 0 0-.207-.395l2.586-1.076c-.133.23-.249.469-.347.716z"/><path d="M77.414 64.876s-1.024.171-.928-.751c.009-.084.025-.166.049-.247.068-.278.089-.566.061-.852a2.287 2.287 0 0 0-.044-.303c-.055-.304-.15-.6-.281-.879a3.198 3.198 0 0 0-.207-.395l2.586-1.077c-.133.23-.249.47-.347.716-.141.347-.238.725-.106.927a.317.317 0 0 0 .176.115.541.541 0 0 0 .198 0h.22c.778 0 .602.44.602.44.304 1.194-1.979 2.306-1.979 2.306z"/><path d="M78.373 62.134l-1.76.879a2.287 2.287 0 0 0-.043-.303c.466-.18 1.187-.501 1.645-.703a.317.317 0 0 0 .158.127zM77.414 64.876s-1.024.171-.928-.751c.406-.043.8-.16 1.161-.348a2.676 2.676 0 0 0 1.144-1.634c.778 0 .602.44.602.44.304 1.181-1.979 2.293-1.979 2.293z"/><path d="M77.414 64.876s-1.024.171-.928-.751c.406-.043.8-.16 1.161-.348a2.676 2.676 0 0 0 1.144-1.634c.778 0 .602.44.602.44.304 1.181-1.979 2.293-1.979 2.293zM68.272 40.12a1.54 1.54 0 0 1-.739.106c-.377.018-.745.12-1.077.299.162-2.25 3.245-2.9 3.245-2.9a4.191 4.191 0 0 0-1.43 2.495z"/></g><path d="M78.483 60.825a5.02 5.02 0 0 1-2.032.773 5.47 5.47 0 0 1-1.469 0 7.635 7.635 0 0 1-2.005-.545 9.55 9.55 0 0 1-.783-.356l-.052-.026c-3.004-1.534-5.977-4.706-7.753-8.164-1.21-2.355-1.865-4.833-1.592-7.03.8-6.455 6.156-11.108 11.952-10.392 5.796.716 9.86 6.53 9.06 12.984a36.163 36.163 0 0 1-1.364 6.56c-.057.19-.119.374-.185.558-.853 2.456-2.067 4.54-3.777 5.638z" fill="#2AB875" fill-rule="nonzero"/><path d="M78.483 60.825a5.02 5.02 0 0 1-2.032.773 5.47 5.47 0 0 1-1.469 0 7.635 7.635 0 0 1-2.005-.545 9.55 9.55 0 0 1-.783-.356l-.052-.026c-3.004-1.534-5.977-4.706-7.753-8.164-1.21-2.355-1.865-4.833-1.592-7.03.8-6.455 6.156-11.108 11.952-10.392 5.796.716 9.86 6.53 9.06 12.984a36.163 36.163 0 0 1-1.364 6.56c-.057.19-.119.374-.185.558-.853 2.456-2.067 4.54-3.777 5.638z" fill="#000" fill-rule="nonzero" opacity=".1"/><path d="M77.595 64.608s-1.025.171-.928-.756c.009-.083.025-.166.048-.246.068-.277.089-.564.062-.848a3.654 3.654 0 0 0-.325-1.186 3.198 3.198 0 0 0-.207-.396L78.83 60.1a5.816 5.816 0 0 0-.347.72c-.14.343-.238.725-.106.923.044.058.106.1.176.119a.555.555 0 0 0 .198 0h.22c.778 0 .602.44.602.44.304 1.194-1.978 2.306-1.978 2.306z" fill="#2AB875" fill-rule="nonzero"/><path d="M78.553 61.866l-1.759.879a2.353 2.353 0 0 0-.044-.308c.466-.18 1.188-.5 1.645-.703.037.06.092.107.158.132z" fill="#444053" fill-rule="nonzero"/><path d="M77.595 64.608s-1.025.171-.928-.756a3.08 3.08 0 0 0 1.16-.347 2.663 2.663 0 0 0 1.144-1.635c.778 0 .602.44.602.44.304 1.186-1.978 2.298-1.978 2.298z" fill="#2AB875" fill-rule="nonzero"/><path d="M77.595 64.608s-1.025.171-.928-.756a3.08 3.08 0 0 0 1.16-.347 2.663 2.663 0 0 0 1.144-1.635c.778 0 .602.44.602.44.304 1.186-1.978 2.298-1.978 2.298z" fill="#000" fill-rule="nonzero" opacity=".1"/><path d="M69.877 37.352s-3.078.655-3.241 2.905a2.473 2.473 0 0 1 1.082-.3c.25.024.5-.012.734-.105.166-.974.67-1.86 1.425-2.5z" fill="#FFF" fill-rule="nonzero" opacity=".1"/><path d="M110.853 87.175c-3.821 4.42-10.915 4.557-15.831.303-2.392-2.065-4.864-4.587-6.328-7.14a8.611 8.611 0 0 1-1.32-4.394c.011-.73.18-1.447.498-2.104.217-.442.49-.854.813-1.226a10.08 10.08 0 0 1 3.914-2.58c5.066-2.008 12.55-1.792 16.27 1.433 4.908 4.258 5.806 11.288 1.984 15.708z" fill="#2AB875" fill-rule="nonzero"/><path d="M87.744 76.638c-.116-.24-.25-.47-.4-.69-.211-.307-.47-.601-.708-.601a.277.277 0 0 0-.198.079.712.712 0 0 0-.128.158 1.784 1.784 0 0 1-.114.189c-.44.641-.717.246-.717.246-1.134-.4-.791-2.913-.791-2.913s.44-.95 1.143-.352c.066.053.126.112.18.176a2.68 2.68 0 0 0 .95.66 4 4 0 0 0 1.32.302l-.537 2.746z" fill="#2AB875" fill-rule="nonzero"/><path d="M86.636 75.347a.277.277 0 0 0-.198.079l.246-1.969c.09.05.183.093.277.132-.11.488-.242 1.266-.325 1.758z" fill="#444053" fill-rule="nonzero"/><path d="M86.196 75.773c-.44.641-.717.246-.717.246-1.134-.4-.791-2.913-.791-2.913s.44-.95 1.143-.352a3.113 3.113 0 0 0-.352 1.156 2.67 2.67 0 0 0 .717 1.863z" fill="#2AB875" fill-rule="nonzero"/><path d="M86.196 75.773c-.44.641-.717.246-.717.246-1.134-.4-.791-2.913-.791-2.913s.44-.95 1.143-.352a3.113 3.113 0 0 0-.352 1.156 2.67 2.67 0 0 0 .717 1.863z" fill="#000" fill-rule="nonzero" opacity=".1"/><path d="M111.631 81.854s1.17-2.922-.606-4.31a2.538 2.538 0 0 1-.357 1.067c-.16.194-.271.423-.325.668a4.164 4.164 0 0 1 1.288 2.575z" fill="#FFF" fill-rule="nonzero" opacity=".1"/><g opacity=".1" fill="#000" fill-rule="nonzero"><path d="M77.502 59.704a1.584 1.584 0 0 1-.739.101c-.378.019-.747.12-1.081.3.167-2.246 3.245-2.897 3.245-2.897a4.17 4.17 0 0 0-1.425 2.496zM87.529 80.672a5.007 5.007 0 0 1-2.028.756 3.198 3.198 0 0 0-.206-.396l2.585-1.072a5.71 5.71 0 0 0-.351.712z"/><path d="M77.502 59.704a1.584 1.584 0 0 1-.739.101c-.378.019-.747.12-1.081.3.167-2.246 3.245-2.897 3.245-2.897a4.17 4.17 0 0 0-1.425 2.496z"/></g><path d="M92.225 68.26c-.796 6.454-3.021 14.253-8.826 13.55-5.804-.703-12.981-9.667-12.185-16.134.796-6.468 6.156-11.108 11.952-10.392 5.796.716 9.86 6.516 9.06 12.975z" fill="#2AB875" fill-rule="nonzero"/><path d="M78.294 57.569s-3.079.65-3.246 2.9c.335-.181.706-.283 1.087-.299.25.026.502-.01.734-.105a4.156 4.156 0 0 1 1.425-2.496z" fill="#FFF" fill-rule="nonzero" opacity=".1"/><path d="M89.356 80.584c-.545.046-4.546 2.402-4.866 2.845a1.875 1.875 0 0 0-.304 1.536c.387 1.292 1.98 1.705 3.017 2.57 1.038.866 1.535 2.25 1.662 3.6a8.81 8.81 0 0 1-2.537 6.972c-.932.923-2.058 1.626-2.981 2.558a15.215 15.215 0 0 0-2.569 3.919 9.117 9.117 0 0 0-1.139 3.291c-.154 1.854.779 3.62 1.891 5.11 1.113 1.49 2.445 2.825 3.307 4.473a9.379 9.379 0 0 1 .537 7.364.879.879 0 0 1-.312.497.348.348 0 0 1-.506-.11" stroke="#444053" stroke-width=".5"/><path d="M80.444 82.333a.878.878 0 0 0-.035 1.12c.265.318.659.5 1.073.497.497 0 1.051-.154 1.46.132.278.241.438.59.44.958-.004.361.033.723.11 1.076.1.288.262.55.475.77.24.278.54.498.88.64.73.286 1.582.031 2.33.269.994.312 1.526 1.375 1.825 2.372a6.827 6.827 0 0 1 .215 3.683 12.702 12.702 0 0 1-.998 2.254 5.09 5.09 0 0 0-.65 2.36 2.162 2.162 0 0 0 1.24 1.972" stroke="#444053" stroke-width=".5"/><path d="M118.668 126.29l-.827.497 1.117 4.042s.37.21.901.562c.985.646 2.524 1.758 3.338 2.957 1.262 1.82 6.878 6.925 6.157 4.799-.722-2.127-1.038-1.727-1.038-1.727s1.231-3.212-1.803-4.658c-2.305-1.098-5.647-4.262-7.12-5.712-.435-.47-.725-.76-.725-.76z" fill="#EFB7B9" fill-rule="nonzero"/><path d="M135.409 137.103a7.22 7.22 0 0 1 1.262 1.622 2.42 2.42 0 0 1 .176 1.99c-.15.356-.405.66-.559 1.01-.734 1.697 1.175 3.551.814 5.366-.22 1.12-1.231 1.876-2.102 2.636-.87.76-1.728 1.758-1.495 2.891a6.15 6.15 0 0 0 .703 1.464c.298.466.332 1.054.088 1.55-.51.787-2.005.655-2.198 1.57-.194.817.932 1.656.483 2.359-.27.32-.71.443-1.108.307a8.132 8.132 0 0 0-1.183-.32 1.456 1.456 0 0 0-1.376 2.157c.233.418.681.773.629 1.244a.98.98 0 0 1-.541.694c-.975.5-2.172.144-2.714-.809-.369-.716-.263-1.577-.215-2.381.048-.804 0-1.71-.576-2.276a3.743 3.743 0 0 0-.976-.593c-1-.498-1.912-1.156-2.7-1.947-.695-.699-1.32-1.586-1.258-2.566.066-1.112.994-2.07.919-3.177-.075-1.107-1.192-1.929-2.137-2.605-.946-.677-1.935-1.718-1.627-2.839.334-1.208 1.9-1.564 2.673-2.548.283-.385.481-.825.58-1.292.208-.817.26-1.665.44-2.483a3.515 3.515 0 0 1 1.271-2.122c.836-.576 1.944-.536 2.947-.387 1.002.15 2.036.391 3.021.154.734-.18 1.398-.615 2.142-.747a2.79 2.79 0 0 1 2.475.9c.352.383.352.484.845.537a1.76 1.76 0 0 1 1.297.641z" fill="#30374E" fill-rule="nonzero"/><g opacity=".1" fill="#000" fill-rule="nonzero"><path d="M134.059 155.844c-.36.271-.765.477-1.196.606.357-.274.763-.48 1.196-.606zM130.198 159.583c-.17-.01-.34.01-.501.061.3-.305.72-.465 1.147-.439.402.076.798.184 1.183.32.16.037.325.048.488.032a.237.237 0 0 1-.022.048c-.272.317-.71.439-1.108.307a8.185 8.185 0 0 0-1.187-.33zM121.988 137.763c-.198.821-.251 1.67-.44 2.487-.1.466-.298.907-.58 1.291-.775.985-2.344 1.34-2.674 2.549-.308 1.12.677 2.157 1.622 2.834.946.677 2.058 1.446 2.138 2.606.079 1.16-.85 2.07-.915 3.176-.062.98.563 1.872 1.258 2.57a10.29 10.29 0 0 0 2.7 1.947c.354.144.682.344.972.594.58.562.633 1.467.58 2.271-.053.804-.154 1.665.216 2.386a2.063 2.063 0 0 0 2.383.95c-.093.096-.2.179-.317.245-.975.501-2.172.144-2.713-.808-.37-.72-.264-1.578-.215-2.386.048-.809 0-1.71-.58-2.272-.29-.249-.619-.45-.973-.593-.999-.5-1.91-1.157-2.7-1.947-.695-.698-1.319-1.59-1.257-2.57.065-1.107.993-2.065.919-3.177-.075-1.111-1.192-1.924-2.138-2.605-.945-.681-1.935-1.714-1.627-2.834.335-1.209 1.9-1.565 2.674-2.549.283-.385.48-.825.58-1.292.207-.817.26-1.665.44-2.487a3.515 3.515 0 0 1 1.284-2.118c.148-.1.306-.183.47-.25a3.655 3.655 0 0 0-1.107 1.982z"/></g><path d="M101.759 148.501l-.901-1.252s-1.645 2.333.738 3.796c2.384 1.464.163-2.544.163-2.544z" fill="#DDC460" fill-rule="nonzero"/><path d="M93.949 187.572s-.158 2.347-.528 4.631c-.264 1.635-.637 3.243-1.139 3.929-1.2 1.656-.936 7.03-.936 7.03l-1.496 6.103c.11 1.24-.743 2.86-1.147 3.546a5.73 5.73 0 0 1-.203.33l1.043 1.757 1.68.418s2.88-.958 2.018-2.852a2.893 2.893 0 0 1-.194-1.2c0-2.447 1.623-6.564 1.623-6.564s3.958-7.54 3.545-9.087a2.867 2.867 0 0 1-.084-.51c-.123-1.713.88-4.675.88-4.675l-5.062-2.856zM68.052 176.302c-2.718 1.757-7.357 6.42-8.215 7.64-1.064 1.517-3.76 3.24-3.76 3.24l-1.9 1.137c-.255.168-.477.38-.655.629-.106.14-.204.287-.294.439l2.735 3.186s.752-.58 1.583-1.319c.831-.738 1.843-1.757 2.098-2.412.492-1.283 3.549-2.772 3.549-2.772s5.668-3.353 6.319-3.911c.627-.528 1.31-.987 2.036-1.367.387-.21.835-.439 1.354-.663a31.228 31.228 0 0 0 4.2-2.518l-2.638-3.954-4.838 1.973c-.572.09-1.113.32-1.574.672z" fill="#EFB7B9" fill-rule="nonzero"/><path d="M88.703 212.815a5.73 5.73 0 0 1-.203.33l1.043 1.758 1.68.417s2.88-.958 2.018-2.852a2.893 2.893 0 0 1-.194-1.2c-.879.207-1.182 1.438-1.182 1.438s-.115.51-1.46.984c-.91.303-1.443-.404-1.702-.875z" fill="#000" fill-rule="nonzero" opacity=".1"/><path d="M88.448 212.688c-.396.316-.55 1.758-.607 2.746-.031.484-.04.857-.04.932 0 .224 1.495.73 2.428.479.932-.25 4.67.878 4.67.878a10.597 10.597 0 0 0 3.777-.62c1.232-.438 1.104-.979.59-1.431a4.254 4.254 0 0 0-1.35-.725 3.232 3.232 0 0 1-1.364-1.108 7.763 7.763 0 0 0-1.759-1.678c-.607-.404-1.288-.76-1.724-.686-.95.154-1.253 1.45-1.253 1.45s-.114.506-1.455.985c-1.342.478-1.878-1.253-1.913-1.222z" fill="#444053" fill-rule="nonzero"/><path d="M87.84 215.434c-.03.484-.039.857-.039.932 0 .224 1.495.73 2.428.479.932-.25 4.67.878 4.67.878a10.597 10.597 0 0 0 3.777-.62c1.232-.438 1.104-.979.59-1.431-.985.316-2.925.878-4.09.804-1.39-.062-6.069-.83-7.335-1.042zM53.606 188.952h-.084c-.106.14-.204.287-.294.44l2.735 3.185s.752-.58 1.583-1.318c-.224-1.635-3.68-2.61-3.68-2.61l-.26.303z" fill="#000" fill-rule="nonzero" opacity=".1"/><path d="M50.76 189.901s.26 3.537 1.03 4.833c.58.993 1.086.826 2.058.321.308-.162.664-.356 1.086-.562 1.76-.844 1.79-1.71 1.79-1.71 2.56-2.5-3.021-4.077-3.021-4.077l-.26.32a3.96 3.96 0 0 0-1.825.387c-.3.136-.587.3-.857.488z" fill="#444053" fill-rule="nonzero"/><path d="M50.76 189.901s.26 3.537 1.03 4.833c.58.993 1.086.826 2.058.321a3.516 3.516 0 0 1-1.808-2.197 10.862 10.862 0 0 1-.44-3.453c-.294.139-.575.305-.84.496z" fill="#000" fill-rule="nonzero" opacity=".1"/><path d="M118.668 142.284l-4.741 3.476-.976.716.686 2.342.708 2.416 1.987 2.096s2.674-.334 4.2-1.683c.556-.453.92-1.1 1.02-1.81a2.74 2.74 0 0 1 .163-.641c.096-.24.232-.46.4-.655.21-.234.46-.429.739-.576 1.363-.742 3.303-.518 3.303-.518s-.497-6.064-1.482-5.145c-.638.597-2.274.439-3.347.228-.58-.105-.998-.22-.998-.22l-1.662-.026z" fill="#EFB7B9" fill-rule="nonzero"/><ellipse fill="#000" fill-rule="nonzero" opacity=".1" cx="127.339" cy="144.173" rx="5.004" ry="5"/><ellipse fill="#EFB7B9" fill-rule="nonzero" cx="127.498" cy="144.077" rx="5.004" ry="5"/><path d="M101.359 150.197c-.92.66-2.08 2.342-2.08 2.342l1.218 7.088 6.763 2.496h.027c.387-.334 5.277-4.54 7.22-3.88 2.019.69 5.884-1.586 5.884-1.586s1.636-3.432 2.072-4.17c.435-.739-.357-3.924-.357-3.924-.136.237-.268.44-.4.655-.337.527-.752 1-1.231 1.401a2.556 2.556 0 0 1-1.71.673 1.88 1.88 0 0 0-.498.026c-2.405.44-3.078-1.96-3.271-2.962-.044-.254-.058-.439-.058-.439l-1.02-2.153-.642-1.349s-10.523 5.321-11.433 5.545a1.438 1.438 0 0 0-.484.237z" fill="#1EA87B" fill-rule="nonzero"/><path d="M101.359 150.197c.338 1.068.699 2.035.699 2.035l2.493 5.19 5.52-2.387a8.54 8.54 0 0 0 .474-2.737c-.079-1.055.44-2.562 3.079-3.48.153-.053.312-.106.483-.154.302-.086.596-.196.88-.33a5.055 5.055 0 0 0 2.761-2.935l.036-.11 3.623-2.596a1.318 1.318 0 0 0-.097-.163c-.58-.105-.998-.22-.998-.22l-1.662-.026-4.74 3.476-.643-1.35s-10.523 5.322-11.433 5.546c-.172.05-.333.132-.475.241z" fill="#000" fill-rule="nonzero" opacity=".1"/><path d="M110.163 139.221a4.917 4.917 0 0 1-1.878 2.663c-1.535 1.103-1.32 1.731-1.32 1.731l-4.542 2.786s-.787 1.059-1.565.879c-.779-.18 1.103 4.833 1.103 4.833l2.494 5.19 5.519-2.386a8.54 8.54 0 0 0 .475-2.738c-.084-1.116.479-2.737 3.566-3.63a5.214 5.214 0 0 0 3.646-3.268c.021-.07.03-.11.03-.11l3.628-2.597a2.023 2.023 0 0 0-1.367-1.02 4.81 4.81 0 0 1-.585-.122c-.532-.159-.783-.44-.779-.923 0-.664-.026-3.515-1.253-3.603-1.227-.088-7.172 2.315-7.172 2.315z" fill="#EAD376" fill-rule="nonzero"/><path d="M119.367 141.388l-2.305 2.065.599 1.784c.021-.07.03-.11.03-.11l3.628-2.597a2.023 2.023 0 0 0-1.367-1.02 4.81 4.81 0 0 1-.585-.122z" fill="#DDC460" fill-rule="nonzero"/><path d="M118.668 126.29l-.827.497 1.117 4.042s.37.21.901.562c-.092-.439-.497-2.513-.62-3.642-.044-.413-.053-.699 0-.738.053-.04.088 0 .163.03a59.945 59.945 0 0 0-.734-.751z" fill="#000" fill-rule="nonzero" opacity=".1"/><path d="M111.047 124.295s-1.399 5.743-.766 8.647c0 0 .528 4.25-.118 6.28l6.926-1.077.246-1.283s-1.24-.879-1.442-1.986c-.203-1.108-.546-2.303-.546-2.303a18.357 18.357 0 0 0-.44-3.075c-.259-.752.814-.88 1.628-.36.108.065.21.142.303.228a1.014 1.014 0 0 0 .26 1.34c.292.205.62.354.967.44a9.506 9.506 0 0 0 1.561.276s-.497-2.46-.633-3.735c-.048-.413-.057-.698 0-.734.242-.145 1.944 1.538 1.944 1.538s.083-2.118-.84-2.557c0 0-.145.606-.642.387-.497-.22-5.893-3.208-5.893-3.208s-2.04-1.735-2.515 1.182z" fill="#EAD376" fill-rule="nonzero"/><path d="M115.836 126.628l.699 2.536c.108.065.21.142.303.228a1.014 1.014 0 0 0 .26 1.34c.292.205.62.354.967.44.435.1.875.17 1.32.21 0 0-.498-2.46-.638-3.73l-2.911-1.024z" fill="#000" fill-rule="nonzero" opacity=".1"/><path d="M116.095 126.677l.743 2.702a1.014 1.014 0 0 0 .26 1.34c.73.55 2.533.699 2.533.699s-.497-2.46-.634-3.735l-2.902-1.006z" fill="#DDC460" fill-rule="nonzero"/><path d="M98.997 190.41l-5.048-2.838s-.158 2.347-.528 4.631c1.737 1.099 3.351 2.145 4.71 2.883-.132-1.714.866-4.675.866-4.675zM68.052 176.302a15.7 15.7 0 0 0 2.093 2.781s.51.708 1.403 1.696c.387-.21.835-.44 1.354-.663a31.228 31.228 0 0 0 4.2-2.518l-2.638-3.955-4.838 1.973a3.484 3.484 0 0 0-1.574.686z" fill="#000" fill-rule="nonzero" opacity=".1"/><path d="M84.208 160.185c-.905 1.42-5.312 6.151-5.312 6.151-.736.95-1.4 1.953-1.987 3.001-.774 1.45-3.15 3.256-4.965 4.89-1.816 1.635-1.816.541-2.89 1.13-1.072.589 2.12 3.999 2.12 3.999s5.405 7.47 11.53 7.786c6.126.316 15.08 8.396 18.8 9.2 3.72.805 1.412-1.318 2.995-1.867 1.583-.55 2.357-2.29 2.357-2.29s-.58-4.257-.106-5.197c.475-.94 1.03-4.78 1.03-4.78s0-3.397.263-3.955c.264-.558.14-4.522-.053-5.668-.193-1.147.84-2.804.84-2.804s-.365-.606.145-1.955c.51-1.349-.44-5.66-.44-5.66-7.897-4.63-9.256-9.613-9.256-9.613l-.99.303c-6.262-1.578-13.18 5.91-14.08 7.329z" fill="#30374E" fill-rule="nonzero"/><path d="M98.29 152.843s.62 6.7 10.254 9.315c-7.906-4.623-9.265-9.605-9.265-9.605l-.99.29zM99.345 164.381s-7.942 12.817-8.144 13.49c-.203.672 8.47-13.134 8.144-13.49zM98.637 160.365s-6.095 9.135-7.291 9.522c0 0 5.844-8.819 7.29-9.522zM94.92 158.203s-4.3 3.076-7.642 2.716l7.643-2.716zM93.738 156.226s-4.13 1.718-5.172 1.626l5.172-1.626zM103.21 167.984l.312 8.476-1.5-2.5zM128.725 139.942c-.08.47-.334.936-.203 1.393.128.314.338.589.607.795.63.585 1.227 1.318 1.32 2.149.114 1.217-.858 2.333-.757 3.55a2.042 2.042 0 0 0 .866 1.512c.439.303.98.421 1.504.33a2.594 2.594 0 0 0 1.878-1.798c.24-.88.253-1.807.04-2.693-.44-2.334-1.575-4.473-2.683-6.591a1.028 1.028 0 0 0-.356-.44c-.387-.224-1.873-.25-2.243.049-.51.408.466 1.485.027 1.744z" fill="#000" fill-rule="nonzero" opacity=".1"/><path d="M128.887 139.845c-.083.47-.334.936-.206 1.393.128.316.339.59.611.795.624.585 1.223 1.297 1.32 2.15.11 1.216-.88 2.332-.762 3.55a2.086 2.086 0 0 0 .867 1.51c.44.304.982.422 1.508.33a2.59 2.59 0 0 0 1.874-1.797 5.37 5.37 0 0 0 .043-2.693c-.44-2.333-1.574-4.473-2.682-6.591a1.06 1.06 0 0 0-.356-.44c-.387-.224-1.874-.25-2.243.049-.519.391.466 1.485.026 1.744z" fill="#30374E" fill-rule="nonzero"/><path d="M137.718 169.35l-2.503 1.912.937.663 5.08 3.6s1.758 3.642 4.837 2.635c3.078-1.006-1.76-4.125-2.094-4.257-.334-.132-.954-.497-.954-.497l-4.516-3.449-.787-.606z" fill="#EFB7B9" fill-rule="nonzero"/><path d="M137.718 169.35l-2.503 1.912.937.663c1.183-.75 2.199-1.568 2.362-1.968l-.796-.606zM108.9 153.212l-5.413 3.515 3.8 5.356c.387-.334 5.277-4.539 7.22-3.88 2.019.69 5.884-1.586 5.884-1.586s1.636-3.432 2.072-4.17c.435-.738-.357-3.924-.357-3.924.211-.233.461-.428.74-.575-.24-.01-.48.005-.718.044-1.068.47-1.613 1.212-1.653 2.588v.378c0 .21.022.439.048.672v.11c.264 2.144-.695 3.05-.695 3.05a4.735 4.735 0 0 1-2.686 2.196c-1.887.606-8.241-3.774-8.241-3.774z" fill="#000" fill-rule="nonzero" opacity=".1"/><path d="M109.094 153.532l-5.413 3.516 4.274 6.05s2.12-1.16 2.815-2.017c.694-.857 4.23-2.28 4.23-2.28 4.266 1.502 6.095-1.055 6.095-1.055s4.952 7.703 5.277 7.738c.325.035 3.008 2.144 3.008 2.144s2.076 2.667 2.682 2.887c.23.079.45.179.66.299.062.033.12.071.176.114l-1.816 1.055a.44.44 0 0 0 .03.065l.023.036c.262.46.645.842 1.108 1.103.822.439 6.191-2.905 6.104-3.656a.817.817 0 0 0-.163-.387 4.542 4.542 0 0 0-1.399-1.09l-.14-.079-.053-.026s-3.105-3.111-4.112-3.568c-1.007-.457-4.397-5.914-4.397-5.914s-1.76-2.342-1.53-2.847c.228-.506-.902-4.76-1.615-4.834-.712-.074-1.029-1.05-1.029-1.05.47-.989-.022-1.318-.576-1.406a3.384 3.384 0 0 0-.994 0c-1.16.514-1.706 1.349-1.653 2.966 0 .242.026.505.062.782.263 2.144-.695 3.05-.695 3.05a4.735 4.735 0 0 1-2.687 2.196c-1.917.59-8.272-3.792-8.272-3.792z" fill="#EAD376" fill-rule="nonzero"/><path d="M138.17 169.144a.62.62 0 0 1 .067.224c.088.752-5.277 4.113-6.104 3.66a2.994 2.994 0 0 1-1.012-.944l-.022-.036a.44.44 0 0 1-.03-.065l1.816-1.055a1.35 1.35 0 0 0-.176-.114l.079-.044a5.43 5.43 0 0 0 3.843-2.795l1.54 1.17z" fill="#000" fill-rule="nonzero" opacity=".1"/><path d="M132.885 170.928l-1.816 1.055c.26.506.664.924 1.16 1.204.823.439 6.192-2.905 6.104-3.656-.066-.598-1.117-1.235-1.56-1.477a5.426 5.426 0 0 1-3.888 2.874zM120.668 151.296l1.32.567 1.319-3.546a3.384 3.384 0 0 0-.994 0c-1.152.527-1.697 1.362-1.645 2.979z" fill="#DDC460" fill-rule="nonzero"/><path d="M129.222 139.652c-.084.47-.339.936-.207 1.393.126.315.336.59.607.795.629.585 1.227 1.296 1.32 2.149.109 1.217-.88 2.333-.762 3.55.021.38.146.746.36 1.059.137.172.3.32.485.44a2.007 2.007 0 0 0 2.036.153 2.015 2.015 0 0 1-2.84-.43 2.117 2.117 0 0 1-.388-1.042c-.101-1.217.88-2.333.76-3.55-.074-.852-.672-1.564-1.319-2.149a1.854 1.854 0 0 1-.61-.795c-.128-.44.122-.923.206-1.393.44-.26-.537-1.318-.044-1.757a.814.814 0 0 1 .255-.115c-.3.475.545 1.446.14 1.692zM117.718 149.31s-1.715.118-1.922 1.006c0 0 1.645-1.586 1.416-2" fill="#000" fill-rule="nonzero" opacity=".1"/><path d="M146.456 175.84s-4.433-2.122-3.835.545c.598 2.667 3.835-.545 3.835-.545z" fill="#EFB7B9" fill-rule="nonzero"/><path fill="#2AB875" fill-rule="nonzero" d="M137.076 160.413l4.2-1.918 21.541 47.16-4.2 1.919z"/><path d="M85.048 82.865c-.818 1.792-2.81 3.387-2.22 5.272.303.971 1.23 1.595 2.093 2.136 2.014 1.274 4.068 2.592 5.528 4.473 1.46 1.88 2.251 4.46 1.407 6.687-.576 1.525-1.825 2.703-2.555 4.162a8.715 8.715 0 0 0-.48 5.87 20.252 20.252 0 0 0 2.415 5.497c.373.641.813 1.318 1.512 1.573.523.125 1.061.17 1.597.132 1.86.07 3.54 1.318 4.534 2.878.993 1.56 1.394 3.449 1.592 5.299.096.931.167 1.92.694 2.693.74 1.081 2.146 1.437 3.44 1.657 3.359.571 6.774.747 10.175.523" stroke="#444053" stroke-width=".5"/><rect fill="#444053" fill-rule="nonzero" x="109.626" y="128.979" width="6.047" height="3.99" rx="1.995"/><g transform="rotate(-45 234.713 -421.795)" fill-rule="nonzero"><path d="M14.966 7.648c3.89 4.615 4.952 10.564 5.237 13.803a1.762 1.762 0 0 1-2.216 1.851c-3.154-.841-8.854-2.916-12.743-7.532C1.354 11.155.292 5.206.007 1.967A1.762 1.762 0 0 1 2.223.116c3.154.842 8.854 2.916 12.743 7.532z" fill="#22BC89"/><path d="M20.203 21.451c-.285-3.239-1.347-9.188-5.237-13.803a18.594 18.594 0 0 0-1.041-1.134c-4.082 2.009-6.922 6.142-7.06 10.949 3.726 3.447 8.383 5.108 11.122 5.84a1.762 1.762 0 0 0 2.216-1.852z" fill="#000" opacity=".1"/><path d="M15.149 18.648a.958.958 0 0 1-.735-.34L4.327 6.337a.952.952 0 0 1 .118-1.345.962.962 0 0 1 1.352.118L15.883 17.08a.952.952 0 0 1-.118 1.345.957.957 0 0 1-.616.223z" fill="#000" opacity=".1"/><path d="M35.361 19.947v-.167c0-6.957-5.588-12.724-12.575-12.775-7.043-.052-12.768 5.616-12.768 12.616v.324c0 3.935-1.32 7.734-3.652 10.91a19.974 19.974 0 0 0-3.884 12.188c.168 10.636 8.742 19.38 19.417 19.785C33.421 63.265 42.9 54.095 42.9 42.72a19.97 19.97 0 0 0-3.94-11.937 18.198 18.198 0 0 1-3.599-10.836z" fill="#EAD376"/><path d="M38.96 30.783a18.198 18.198 0 0 1-3.599-10.836v-.167c0-6.957-5.588-12.724-12.575-12.775-7.043-.052-12.768 5.616-12.768 12.616v.324c0 3.935-1.32 7.734-3.652 10.91a19.974 19.974 0 0 0-3.884 12.188c.168 10.636 8.742 19.38 19.417 19.785C33.421 63.265 42.9 54.095 42.9 42.72c0-4.47-1.464-8.597-3.94-11.937zM34.45 54.428a16.557 16.557 0 0 1-11.759 4.85c-.217 0-.437-.004-.655-.013-4.242-.16-8.228-1.931-11.224-4.985-2.996-3.053-4.682-7.063-4.75-11.293A16.367 16.367 0 0 1 9.257 32.96c2.84-3.867 4.342-8.367 4.342-13.014v-.324c0-4.99 4.079-9.052 9.092-9.052h.07c4.974.037 9.021 4.169 9.021 9.21v.168c0 4.68 1.487 9.16 4.299 12.954a16.37 16.37 0 0 1 3.24 9.819c0 4.423-1.73 8.581-4.871 11.708z" fill="#22BC89"/><ellipse fill="#DDC460" cx="22.689" cy="42.72" rx="8.564" ry="8.527"/><g opacity=".3" transform="translate(51.918 16.807)" fill="#FFF"><ellipse cx="5.55" cy="1.007" rx="1" ry="1"/><ellipse cx="6.125" cy="9.028" rx="1" ry="1"/><ellipse cx="1.083" cy="4.445" rx="1" ry="1"/></g></g><g transform="rotate(45 -351.34 254.583)" fill-rule="nonzero"><path d="M10.32 5.274c2.682 3.182 3.415 7.284 3.611 9.518.074.84-.71 1.495-1.528 1.277-2.175-.581-6.105-2.012-8.787-5.194C.934 7.692.201 3.59.005 1.356A1.215 1.215 0 0 1 1.533.08C3.708.66 7.638 2.09 10.32 5.274z" fill="#22BC89"/><path d="M13.931 14.792c-.196-2.234-.929-6.336-3.61-9.518-.231-.274-.472-.534-.719-.782-2.815 1.385-4.773 4.235-4.868 7.55 2.569 2.376 5.78 3.522 7.67 4.027a1.215 1.215 0 0 0 1.527-1.277z" fill="#000" opacity=".1"/><path d="M10.446 12.86a.66.66 0 0 1-.507-.236L2.984 4.371a.656.656 0 0 1 .081-.928.663.663 0 0 1 .932.081l6.955 8.253a.656.656 0 0 1-.506 1.082z" fill="#000" opacity=".1"/><path d="M24.384 13.755v-.116c0-4.797-3.854-8.773-8.672-8.809-4.856-.036-8.804 3.873-8.804 8.7v.224c0 2.712-.91 5.333-2.518 7.522a13.774 13.774 0 0 0-2.679 8.405c.116 7.334 6.029 13.363 13.39 13.643 7.945.301 14.481-6.022 14.481-13.866 0-3.082-1.009-5.928-2.716-8.23a12.549 12.549 0 0 1-2.482-7.473z" fill="#EAD376"/><path d="M26.866 21.227a12.549 12.549 0 0 1-2.482-7.472v-.116c0-4.797-3.854-8.773-8.672-8.809-4.856-.036-8.804 3.873-8.804 8.7v.224c0 2.712-.91 5.333-2.518 7.522a13.774 13.774 0 0 0-2.679 8.405c.116 7.334 6.029 13.363 13.39 13.643 7.945.301 14.481-6.022 14.481-13.866 0-3.082-1.01-5.928-2.716-8.23zm-3.111 16.305a11.417 11.417 0 0 1-8.109 3.344 11.416 11.416 0 0 1-8.19-3.446c-2.067-2.106-3.23-4.871-3.276-7.787-.04-2.509.722-4.9 2.203-6.915 1.959-2.667 2.994-5.77 2.994-8.974v-.224c0-3.442 2.812-6.242 6.269-6.242h.048c3.43.026 6.221 2.875 6.221 6.351v.116c0 3.228 1.025 6.316 2.964 8.932a11.288 11.288 0 0 1 2.234 6.771 11.32 11.32 0 0 1-3.358 8.074z" fill="#22BC89"/><ellipse fill="#DDC460" cx="15.646" cy="29.459" rx="5.905" ry="5.88"/><g opacity=".3" transform="translate(35.8 11.59)" fill="#FFF"><ellipse cx="3.827" cy=".694" rx="1" ry="1"/><ellipse cx="4.224" cy="6.226" rx="1" ry="1"/><ellipse cx=".747" cy="3.065" rx="1" ry="1"/></g></g></g></svg>