<svg width="1029" height="799" viewBox="0 0 1029 799" xmlns="http://www.w3.org/2000/svg"><g fill="none" fill-rule="evenodd"><path d="M1008.48 212.56a250.48 250.48 0 0 0-40.75-64.93l-565.37-5.57 465.49-65.38a264.39 264.39 0 0 0-94.45-18.74c-91.443-73.092-220.035-77.443-316.21-10.7a263.57 263.57 0 0 0-121-29.16c-125.62 0-230.3 87-253.78 202.38l926.07-7.9zM1028.36 309.32a244.38 244.38 0 0 0-17.62-91.32L30.88 320.85a245.29 245.29 0 0 0-23 58l303.43 45.24-310.36 33c9.34 130.61 121.31 233.75 258.09 233.75 68.85 0 131.42-26.14 177.77-68.76 46.51 43.43 109.67 70.13 179.26 70.13 103.26 0 192.38-58.79 233.88-143.8 83.27-26.42 147.95-92.78 170.09-175.79l-383.68-59.56h392c-.02-1.25 0-2.49 0-3.74z" fill="#2AB875" fill-rule="nonzero" opacity=".1"/><ellipse fill="#2AB875" fill-rule="nonzero" cx="287.68" cy="761.68" rx="227" ry="37.21"/><path d="M548.38 739.658c4.925 5.87 6.27 13.437 6.631 17.557a2.234 2.234 0 0 1-2.806 2.355c-3.995-1.071-11.213-3.71-16.139-9.58-4.925-5.87-6.27-13.437-6.632-17.557a2.234 2.234 0 0 1 2.807-2.355c3.994 1.071 11.212 3.71 16.138 9.58z" fill="#22BC89" fill-rule="nonzero"/><path d="M551.989 759.652c-.347 0-.691-.148-.931-.434l-12.774-15.223a1.214 1.214 0 1 1 1.861-1.561l12.773 15.223a1.214 1.214 0 0 1-.93 1.995zM225.24 371.69l-3.02 8h-.65z" fill="#000" fill-rule="nonzero" opacity=".1"/><ellipse fill="#2AB875" fill-rule="nonzero" opacity=".1" cx="514.02" cy="729.17" rx="41" ry="5.63"/><ellipse fill="#2AB875" fill-rule="nonzero" opacity=".1" cx="671.07" cy="745.09" rx="41" ry="5.63"/><ellipse fill="#2AB875" fill-rule="nonzero" opacity=".1" cx="856.06" cy="723.54" rx="41" ry="5.63"/><ellipse fill="#2AB875" fill-rule="nonzero" opacity=".1" cx="608.21" cy="790.43" rx="29.14" ry="4"/><ellipse fill="#2AB875" fill-rule="nonzero" opacity=".1" cx="771.21" cy="786.43" rx="29.14" ry="4"/><path d="M671.96 743.83s-57.5-188.5 9-264c49.74-56.48 106.21-49.72 131.5-42.74a46.71 46.71 0 0 1 30.16 25.07c8.84 19.08 7.25 50-55.16 86.17-104.5 60.5-111 143.5-111 143.5l-4.5 52z" fill="#2AB875" fill-rule="nonzero"/><path d="M803.46 463.83s-169.5 53-131.5 280M704.46 482.83s23.33 15.73 15.92 39.36M786.46 496.83s-14.27-14.52-31.64-6.51M719.46 569.83s-25.06-12.72-31.54 3.21M657.46 596.33s18.81-1.5 19.15 7.5" stroke="#565987"/><path d="M669.68 745.33s67.34-137 85.84-134c8.79 1.42 12.84 10.07 14.67 18.75a55.1 55.1 0 0 1-3.72 33.36c-9.55 21.91-35.22 63.54-96.79 81.89z" fill="#2AB875" fill-rule="nonzero"/><path d="M754.97 637.33s-70.68 102.5-84.34 107M761.47 653.33h-16.5M741.71 690.83l-25.86 1.11M725.97 660.83l2.81 13.47M698.47 701.83l.5 12.24" stroke="#565987"/><path d="M671.68 745.33s-67.34-137-85.84-134c-8.79 1.42-12.84 10.07-14.67 18.75a55.1 55.1 0 0 0 3.62 33.36c9.55 21.91 35.22 63.54 96.89 81.89z" fill="#2AB875" fill-rule="nonzero"/><path d="M586.29 637.33s70.68 102.5 84.34 107M579.78 653.33h16.5M599.55 690.83l25.86 1.11M615.28 660.83l-2.8 13.47M642.78 701.83l-.5 12.24" stroke="#565987"/><path d="M787.26 777.32a11.63 11.63 0 0 0 3.84-5.78c.49-2.3-.49-5.05-2.68-5.89-2.46-.94-5.09.76-7.08 2.48-1.99 1.72-4.28 3.69-6.89 3.32a10.47 10.47 0 0 0 3.23-9.81 4 4 0 0 0-.9-2c-1.36-1.46-3.84-.83-5.48.32-5.2 3.66-6.65 10.72-6.67 17.08-.53-2.3-.09-4.69-.1-7-.01-2.31-.66-5-2.64-6.22a8 8 0 0 0-4-1c-2.34-.08-4.94.15-6.54 1.86-2 2.12-1.47 5.69.26 8 1.73 2.31 4.35 3.8 6.76 5.42a14.82 14.82 0 0 1 4.84 4.61c.148.26.268.535.36.82h14.65a40.77 40.77 0 0 0 9.04-6.21zM530.68 722.15a11.64 11.64 0 0 0 3.83-5.79c.5-2.3-.48-5-2.68-5.89-2.46-.94-5.08.76-7.08 2.49-2 1.73-4.28 3.68-6.88 3.32a10.5 10.5 0 0 0 3.21-9.84 4.08 4.08 0 0 0-.9-2c-1.37-1.46-3.84-.84-5.48.31-5.2 3.66-6.65 10.72-6.68 17.08-.52-2.29-.08-4.68-.09-7-.01-2.32-.66-5-2.65-6.23a7.91 7.91 0 0 0-4-.94c-2.33-.09-4.94.14-6.53 1.85-2 2.13-1.47 5.69.25 8 1.72 2.31 4.35 3.8 6.77 5.42a15 15 0 0 1 4.83 4.61c.15.263.27.541.36.83h14.66a41.11 41.11 0 0 0 9.06-6.22zM616.17 777.32a11.63 11.63 0 0 0 3.84-5.78c.49-2.3-.49-5.05-2.68-5.89-2.46-.94-5.09.76-7.08 2.48-1.99 1.72-4.28 3.69-6.89 3.32a10.47 10.47 0 0 0 3.24-9.81 4 4 0 0 0-.9-2c-1.36-1.46-3.84-.83-5.48.32-5.2 3.66-6.65 10.72-6.67 17.08-.53-2.3-.09-4.69-.1-7-.01-2.31-.66-5-2.64-6.22a8 8 0 0 0-4-1c-2.34-.08-4.94.15-6.54 1.86-2 2.12-1.47 5.69.26 8 1.73 2.31 4.35 3.8 6.76 5.42a14.82 14.82 0 0 1 4.84 4.61c.148.26.268.535.36.82h14.65a40.77 40.77 0 0 0 9.03-6.21zM858.68 665.79s5.5 7.18-2.53 18-14.65 20-12 26.76c0 0 12.12-20.14 22-20.42 9.88-.28 3.42-12.23-7.47-24.34z" fill="#2AB875" fill-rule="nonzero"/><path d="M858.68 665.79a8.63 8.63 0 0 1 1.12 2.25c9.63 11.3 14.75 21.85 5.5 22.12-8.61.24-18.94 15.65-21.42 19.54.082.298.178.592.29.88 0 0 12.12-20.14 22-20.42 9.88-.28 3.4-12.26-7.49-24.37z" fill="#000" fill-rule="nonzero" opacity=".1"/><path d="M868.93 674.94c0 2.53-.28 4.58-.63 4.58s-.62-2.08-.62-4.58.35-1.33.7-1.33.55-1.17.55 1.33z" fill="#FFD037" fill-rule="nonzero"/><path d="M872.44 677.96c-2.22 1.21-4.16 1.94-4.32 1.64-.16-.3 1.49-1.54 3.71-2.75 2.22-1.21 1.35-.33 1.51 0 .16.33 1.34-.1-.9 1.11z" fill="#FFD037" fill-rule="nonzero"/><path d="M829.68 665.79s-5.5 7.18 2.53 18 14.65 20 12 26.76c0 0-12.11-20.14-22-20.42-9.89-.28-3.35-12.23 7.47-24.34z" fill="#2AB875" fill-rule="nonzero"/><path d="M829.68 665.79a8.82 8.82 0 0 0-1.13 2.25c-9.62 11.3-14.74 21.85-5.5 22.12 8.62.24 19 15.65 21.43 19.54a7 7 0 0 1-.3.88s-12.11-20.14-22-20.42c-9.89-.28-3.32-12.26 7.5-24.37z" fill="#000" fill-rule="nonzero" opacity=".1"/><path d="M819.49 674.94c0 2.53.29 4.58.64 4.58.35 0 .63-2.05.63-4.58 0-2.53-.35-1.33-.7-1.33s-.57-1.17-.57 1.33z" fill="#FFD037" fill-rule="nonzero"/><path d="M815.99 677.96c2.22 1.21 4.15 1.94 4.32 1.64.17-.3-1.49-1.54-3.71-2.75-2.22-1.21-1.35-.33-1.52 0-.17.33-1.31-.1.91 1.11z" fill="#FFD037" fill-rule="nonzero"/><path d="M821.24 709.64s15.36-.47 20-3.77c4.64-3.3 23.63-7.23 24.78-1.94 1.15 5.29 23.08 26.29 5.74 26.43-17.34.14-40.29-2.7-44.91-5.52-4.62-2.82-5.61-15.2-5.61-15.2z" fill="#A8A8A8" fill-rule="nonzero"/><path d="M872.06 728.52c-17.34.14-40.3-2.7-44.92-5.52-3.51-2.14-4.92-9.83-5.38-13.38h-.52s1 12.39 5.6 15.2c4.6 2.81 27.57 5.66 44.91 5.52 5 0 6.73-1.82 6.64-4.46-.71 1.61-2.61 2.61-6.33 2.64z" fill="#000" fill-rule="nonzero" opacity=".2"/><g fill="#DDC460" fill-rule="nonzero"><path d="M478.4 295.55c27.844 0 52.946 16.773 63.6 42.498 10.655 25.725 4.764 55.335-14.926 75.023-19.69 19.687-49.301 25.574-75.025 14.916-25.723-10.658-42.493-35.763-42.489-63.607.006-38.015 30.825-68.83 68.84-68.83zm0-17c-34.72 0-66.021 20.915-79.307 52.993-13.286 32.077-5.94 69 18.612 93.549 24.553 24.549 61.476 31.89 93.551 18.6 32.076-13.289 52.988-44.592 52.984-79.312-.055-47.384-38.456-85.78-85.84-85.83z"/><path d="M465.69 258.47h20.12v21.18h-20.12v-21.18zm56.007 8.591l17.246 10.363-10.908 18.155-17.246-10.363 10.908-18.155zm42.86 34.683l9.754 17.598-18.524 10.268-9.754-17.598 18.524-10.268zm10.398 107.632l-10.662 17.063-17.962-11.224 10.662-17.063 17.962 11.224zm-164.181-97.37l-9.755 17.597-18.524-10.268 9.754-17.597 18.525 10.268zm-10.959 86.139l10.662 17.062-17.961 11.224-10.662-17.063 17.961-11.223zm46.192-112.93l-17.246 10.362-10.909-18.155L435.1 267.06l10.908 18.155zM465.69 449.11h20.12v21.18h-20.12v-21.18zm45.101-5.561l17.247-10.363 10.908 18.155-17.246 10.363-10.909-18.155zm-75.69 18.156l-17.246-10.362 10.909-18.155 17.246 10.362-10.909 18.155zM370.38 355.91h24.36v18h-24.36v-18zm216.04 18h-24.36v-18h24.36v18z"/></g><g fill="#2AB875" fill-rule="nonzero"><path d="M626.202 268.344c19.689-19.69 49.3-25.578 75.024-14.922 25.724 10.656 42.495 35.76 42.493 63.604-.002 27.844-16.777 52.945-42.503 63.598-25.725 10.652-55.335 4.759-75.02-14.933-26.878-26.885-26.875-70.466.006-97.347zm-12.02-12.021c-24.551 24.55-31.895 61.473-18.607 93.55 13.287 32.076 44.59 52.99 79.31 52.988 34.72-.002 66.02-20.92 79.303-52.997 13.284-32.079 5.936-69-18.618-93.548-33.544-33.467-87.848-33.463-121.389.007z"/><path d="M590.995 251.111l14.227-14.227 14.977 14.977-14.227 14.227-14.977-14.977zm45.678-33.527l19.523-4.868 5.124 20.55-19.523 4.868-5.124-20.55zm54.831-5.783l19.341 5.546-5.838 20.36-19.34-5.546 5.837-20.36zm83.46 68.755l4.526 19.604-20.637 4.765-4.526-19.604 20.637-4.765zM590.02 327.8l5.546 19.34-20.36 5.838-5.545-19.34 20.36-5.838zm53.16 68.658l19.605 4.526-4.764 20.637-19.605-4.526 4.765-20.637zM595.99 283.94l-4.868 19.522-20.55-5.124 4.867-19.522 20.55 5.124zm129.81 101.973l14.226-14.227 14.977 14.977-14.227 14.227-14.977-14.977zm27.958-35.823l4.868-19.523 20.55 5.124-4.867 19.522-20.55-5.123zm-40.682 66.359l-19.522 4.867-5.124-20.55 19.522-4.868 5.124 20.55zm-120.573-29.044l17.225-17.225 12.728 12.728-17.226 17.225-12.727-12.728zm165.49-140.035l-17.224 17.225-12.728-12.728 17.225-17.225 12.728 12.728z"/></g><g fill="#1EA87B" fill-rule="nonzero"><path d="M237.202 263.344c19.689-19.69 49.3-25.578 75.024-14.922 25.724 10.656 42.495 35.76 42.493 63.604-.002 27.844-16.777 52.945-42.503 63.598-25.725 10.652-55.335 4.759-75.02-14.933-26.878-26.885-26.875-70.466.006-97.347zm-12.02-12.021c-24.551 24.55-31.895 61.473-18.607 93.55 13.287 32.076 44.59 52.99 79.31 52.988 34.72-.002 66.02-20.92 79.303-52.997 13.284-32.079 5.936-69-18.618-93.548-33.544-33.467-87.848-33.463-121.389.007z"/><path d="M201.995 246.111l14.227-14.227 14.977 14.977-14.227 14.227-14.977-14.977zm45.678-33.527l19.523-4.868 5.124 20.55-19.523 4.868-5.124-20.55zm54.831-5.783l19.341 5.546-5.838 20.36-19.34-5.546 5.837-20.36zm83.46 68.755l4.526 19.604-20.637 4.765-4.526-19.604 20.637-4.765zM201.02 322.8l5.546 19.34-20.36 5.838-5.545-19.34 20.36-5.838zm53.16 68.658l19.605 4.526-4.764 20.637-19.605-4.526 4.765-20.637zM206.99 278.94l-4.868 19.522-20.55-5.124 4.867-19.522 20.55 5.124zm129.81 101.973l14.226-14.227 14.977 14.977-14.227 14.227-14.977-14.977zm27.958-35.823l4.868-19.523 20.55 5.124-4.867 19.522-20.55-5.123zm-40.682 66.359l-19.522 4.867-5.124-20.55 19.522-4.868 5.124 20.55zm-120.573-29.044l17.225-17.225 12.728 12.728-17.226 17.225-12.727-12.728zm165.49-140.035l-17.224 17.225-12.728-12.728 17.225-17.225 12.728 12.728z"/></g><g transform="rotate(45 -618.412 859.414)" fill-rule="nonzero"><path d="M18.954 9.727c4.925 5.87 6.27 13.437 6.632 17.557a2.234 2.234 0 0 1-2.807 2.355c-3.994-1.071-11.212-3.71-16.138-9.58C1.715 14.189.37 6.622.009 2.502A2.234 2.234 0 0 1 2.815.147c3.995 1.071 11.213 3.71 16.139 9.58z" fill="#22BC89"/><path d="M25.586 27.284c-.361-4.12-1.707-11.686-6.632-17.557a23.613 23.613 0 0 0-1.32-1.442c-5.17 2.555-8.765 7.812-8.94 13.926 4.718 4.384 10.616 6.498 14.085 7.428a2.234 2.234 0 0 0 2.807-2.355z" fill="#000" opacity=".1"/><path d="M19.185 23.719c-.347 0-.691-.148-.931-.434L5.48 8.062a1.214 1.214 0 1 1 1.86-1.561l12.774 15.223a1.214 1.214 0 0 1-.93 1.995z" fill="#000" opacity=".1"/><path d="M44.782 25.37v-.212c0-8.848-7.078-16.183-15.926-16.249-8.919-.066-16.17 7.144-16.17 16.048v.412c0 5.004-1.67 9.837-4.624 13.876a25.48 25.48 0 0 0-4.919 15.502c.212 13.528 11.071 24.649 24.59 25.164 14.592.557 26.596-11.107 26.596-25.575a25.474 25.474 0 0 0-4.99-15.182 23.213 23.213 0 0 1-4.557-13.783z" fill="#EAD376"/><path d="M49.34 39.154a23.213 23.213 0 0 1-4.558-13.783v-.213c0-8.848-7.078-16.183-15.926-16.249-8.919-.066-16.17 7.144-16.17 16.048v.412c0 5.004-1.67 9.837-4.624 13.876a25.48 25.48 0 0 0-4.919 15.502c.212 13.527 11.071 24.649 24.59 25.164 14.592.557 26.596-11.107 26.596-25.575a25.474 25.474 0 0 0-4.99-15.182zm-5.714 30.074a20.922 20.922 0 0 1-14.89 6.168h-.002c-.274 0-.553-.005-.828-.016-5.372-.205-10.42-2.456-14.215-6.34-3.794-3.884-5.93-8.985-6.014-14.364-.073-4.627 1.326-9.037 4.045-12.755 3.598-4.918 5.5-10.642 5.5-16.552v-.412c0-6.349 5.164-11.514 11.512-11.514h.088c6.3.047 11.426 5.302 11.426 11.715v.213c0 5.954 1.882 11.65 5.444 16.476a20.882 20.882 0 0 1 4.102 12.489c0 5.626-2.19 10.914-6.168 14.892z" fill="#22BC89"/><circle fill="#DDC460" cx="28.734" cy="54.337" r="10.845"/><path d="M36.675 61.72c-11.516 2.039-14.937-13.08-10.86-17.829-4.572 1.276-7.926 5.467-7.926 10.445 0 5.99 4.855 10.845 10.845 10.845 3.137 0 5.96-1.333 7.941-3.461z" fill="#000" opacity=".1"/><g opacity=".3" transform="translate(65.749 21.377)" fill="#FFF"><circle cx="7.028" cy="1.281" r="1.215"/><circle cx="7.757" cy="11.483" r="1.215"/><circle cx="1.372" cy="5.653" r="1.215"/></g></g></g></svg>